<?xml version="1.0" encoding="utf-8"?>
<!-- Generator: Adobe Illustrator 27.5.0, SVG Export Plug-In . SVG Version: 6.00 Build 0)  -->
<svg version="1.1" xmlns="http://www.w3.org/2000/svg" xmlns:xlink="http://www.w3.org/1999/xlink" x="0px" y="0px"
	 viewBox="0 0 500 500" style="enable-background:new 0 0 500 500;" xml:space="preserve">
<g id="BACKGROUND">
	<rect style="fill:#FFFFFF;" width="500" height="500"/>
</g>
<g id="OBJECTS">
	<g>
		<path style="fill:#FFCAC2;" d="M101.189,355.83c-6.683-4-11.446-10.795-11.967-19.344c-0.334-5.467,1.283-10.858,3.161-16.003
			c6.675-18.287,18.833-36.747,37.716-41.478c13.702-3.433,29.179,1.729,38.077,12.7c8.898,10.971,10.754,27.18,4.566,39.879
			c-4.959,10.177-14.976,19-24.901,24.269c-9.733,5.167-22.811,4.469-33.574,3.914C109.565,359.524,105.056,358.144,101.189,355.83z
			"/>
		<path style="fill:#D4E8FF;" d="M302.253,352.046c12.274,2.336,23.874,7.193,32.486,16.047
			c13.089,13.455,15.524,38.133,1.055,50.091c-12.427,10.271-38.473,11.633-53.856,9.777c-20.916-2.523-42.834-3.102-63.645-6.46
			c-27.997-4.518-66.356-42.386-31.281-66.421c11.184-7.664,26.117-4.444,39.631-3.344c18.709,1.522,37.482-1.671,56.252-1.497
			C289.314,350.299,295.874,350.832,302.253,352.046z"/>
		<path style="fill:#D4E8FF;" d="M243.731,64.758c-5.463,0.674-10.953,2.478-14.68,3.903c-25.428,9.725-47.01,27.213-67.964,44.595
			c-17.532,14.544-35.052,29.301-49.82,46.645c-10.012,11.757-18.977,25.391-20.398,40.768
			c-1.421,15.377,6.919,32.525,21.791,36.686c11.786,3.298,24.625-2.224,33.289-10.869c8.663-8.645,13.983-19.998,19.13-31.101
			c5.69-12.273,11.379-24.546,17.069-36.818c4.684-10.104,8.107-22.655,16.566-30.163c9.348-8.298,20.561-14.135,31.257-20.604
			c8.251-4.991,16.25-10.398,23.957-16.195c6.419-4.828,11.803-15.345,5.551-22.746C255.935,64.664,249.849,64.003,243.731,64.758z"
			/>
		<path style="fill:#F5EEE4;" d="M337.507,281.032c-6.002,2.781-12.275,4.983-18.749,6.521c-29.509,7.012-61.744,0.716-86.973-16.12
			c-25.229-16.836-43.276-43.811-50.13-73.357c-2.486-10.714-3.56-21.863-1.951-32.743c2.465-16.663,11.15-34.837,21.771-47.859
			c13.82-16.942,33.907-27.812,54.751-34.414c21.993-6.966,45.769-9.581,68.245-4.379c47.755,11.052,80.04,64.755,76.502,111.966
			C398.083,229.196,372.371,264.879,337.507,281.032z"/>
		<path style="fill:#FFCAC2;" d="M209.616,267.056c-8.356,4.245,6.792,18.888,11.818,20.991c7.215,3.019,24.52,4.08,20.23-8.804
			c-0.981-2.947-3.366-5.262-6.067-6.797c-2.7-1.535-5.726-2.387-8.717-3.224c-2.873-0.804-5.746-1.608-8.619-2.412
			c-1.692-0.474-3.441-0.952-5.183-0.723C211.637,266.277,210.496,266.609,209.616,267.056z"/>
		<path style="fill:#FFCAC2;" d="M287.544,251.101c2.641,0.159,5.769,0.886,6.674,3.372c4.564,12.544-18.052,17.043-25.485,11.759
			c-3.521-2.503-5.245-7.372-2.194-11.138C270.431,250.288,282.032,250.769,287.544,251.101z"/>
		<path style="fill:#FFCAC2;" d="M200.845,208.083c-2.828-4.864-6.985-9.959-12.611-10.018c-5.473-0.058-9.861,4.94-11.36,10.204
			c-1.996,7.008-0.013,15.05,5.141,20.2c5.154,5.15,13.312,7.117,20.19,4.711C218.212,227.583,205.734,216.491,200.845,208.083z"/>
	</g>
	<g>
		<path style="fill:none;stroke:#222221;stroke-linecap:round;stroke-linejoin:round;stroke-miterlimit:10;" d="M243.37,293.726
			c0.288-0.356-0.351-0.73-0.808-0.734c-4.015-0.036-7.865,1.599-11.866,1.926c-5.35,0.438-10.852-1.617-14.606-5.453
			c-3.378-3.452-6.081-7.513-9.505-10.887c-2.697-2.659-6.949-5.137-8.73-8.548c-0.38-0.727-0.665-1.547-0.539-2.357
			c0.126-0.81,0.773-1.583,1.592-1.621c1.006-0.047,1.72,0.913,2.343,1.705c1.617,2.055,3.867,3.605,6.363,4.385
			c4.157,1.298,8.981,0.539,12.638,2.905c1.209,0.782,2.196,1.856,3.301,2.779c2.22,1.854,4.945,3.097,7.8,3.557
			c1.579,0.254,3.209,0.278,4.722,0.793c4.471,1.522,8.886,10.795,14.108,9.104c0.239-0.077,0.496-0.206,0.568-0.447
			c0.124-0.417-0.371-0.728-0.767-0.91c-3.351-1.541-4.377-4.383-6.097-7.323c-1.733-2.962-3.466-5.923-5.199-8.884
			c-0.632-1.079-1.315-2.21-2.413-2.81c-1.665-0.91-3.85-0.36-5.497-1.302c-1.455-0.832-2.1-2.679-1.922-4.346
			c0.178-1.667,1.034-3.183,1.991-4.56c0.613-0.883,1.307-1.83,1.253-2.904c-0.09-1.804-2.106-2.762-3.784-3.429
			c-2.895-1.151-5.789-2.665-7.626-5.181c-3.781-5.179,0.045-11.491,5.549-13.309c1.176-0.388,2.562-0.537,3.572,0.178
			c0.259,0.183,0.499,0.521,0.338,0.795c-0.086,0.147-0.259,0.215-0.421,0.266c-1.556,0.483-3.233,0.233-4.859,0.345
			c-3.214,0.221-7.217,3.429-7.37,6.798c-0.134,2.957,3.312,5.743,5.896,4.299c1.76-0.983,2-1.894,4.059-0.922
			c1.338,0.632,2.503,1.661,3.294,2.91c0.679,1.071,1.092,2.289,1.714,3.394c3.897,6.922,11.05,4.61,16.833,2.036
			c0.412-0.184,1.039-0.423,1.391-0.045c-0.598,0.561-1.066,1.145-1.833,1.518c-0.672,0.327-1.397,0.527-2.105,0.767
			c-0.244,0.082-0.537,0.253-0.49,0.505c0.114,0.617,1.996,0.886,2.451,0.953c1.106,0.164,2.262,0.086,3.242-0.495
			c1.064-0.63,1.753-1.75,2.176-2.912c1.337-3.68-0.679-6.761-1.001-10.431c-0.173-1.97,0.378-3.926,0.963-5.815
			c2.085-6.734,5.252-12.618,8.69-18.754c3.331-5.945,7.267-11.677,12.582-16.026c1.352-1.107,2.816-2.132,4.487-2.645
			c1.599-0.491,3.305-0.488,4.975-0.398c4.408,0.236,8.784,1.047,12.985,2.403c1.114,0.36,2.266,0.791,3.042,1.668
			c0.776,0.877,1.022,2.332,0.233,3.197c-0.609,0.667-1.608,0.789-2.512,0.773c-5.683-0.1-10.759-3.839-16.425-4.289
			c-0.589-0.047-1.298,0.003-1.597,0.512c-0.448,0.761,0.443,1.602,1.229,2.003c9.52,4.848,21.088,3.204,31.212,6.611
			c1.776,0.598,6.232,2.671,6.878,4.64c0.255,0.778-0.08,1.614-0.414,2.361c-6.511,14.582-11.675,29.618-20.086,43.406
			c-11.296,18.518-28.617,33.862-47.549,44.146c-9.279,5.04-19.153,9.784-29.708,10.103c-12.868,0.389-25.225-5.994-34.564-14.854
			c-9.34-8.861-16.084-20.06-22.422-31.265c-4.555-8.053-9.06-16.5-9.8-25.723c-0.399-4.971,0.319-9.957,1.037-14.893
			c0.768-5.284,1.534-10.576,2.666-15.797c0.438-2.021,4.237-9.787,1.262-10.39c-1.272-0.258-2.515,0.43-3.71,0.936
			c-3.213,1.362-7.312,1.341-9.817-1.089c-2.02-1.959-2.564-5.037-2.24-7.833c0.324-2.795,1.387-5.442,2.146-8.152
			c2.16-7.715,1.865-16,4.448-23.584c1.327-3.898,3.405-7.538,6.086-10.664c2.504-2.92,5.743-5.484,9.555-6
			c9.841-1.332,10.779,8.593,6.648,14.995c-1.697,2.629-4.098,4.719-6.072,7.146c-2.519,3.096-4.315,6.704-6.091,10.279
			c-1.671,3.364-3.341,6.728-5.012,10.091c-0.356,0.717-0.72,1.468-0.71,2.268c0.025,2.059,2.657,3.286,4.604,2.615
			c1.947-0.67,3.21-2.543,4.089-4.406c2.329-4.936,2.947-10.505,4.88-15.609c3.03-8.003,8.805-11.283,14.338-17.045
			c4.314-4.493,5.084-12.159,11.213-14.948c3.11-1.415,6.723-0.932,10.08-1.568c6.862-1.302,10.636-7.472,16.122-11.117
			c11.277-7.492,26.972-1.409,39.642-6.18c0.799-0.301,1.624-0.678,2.102-1.386c1.338-1.98-0.881-4.356-2.659-5.953
			c-4.319-3.877-7.209-9.311-8.01-15.059c2.271-2.035,6.096-0.729,7.98,1.669c1.884,2.398,2.513,5.515,3.686,8.33
			c6.098,14.632,24.638,18.338,37.919,26.994c16.065,10.47,25.195,30.663,22.444,49.641c-0.702,4.843-2.095,9.867-0.577,14.519
			c1.751,5.368,6.863,8.763,11.382,12.147c7.67,5.742,20.545,16.477,21.47,26.78c0.6,6.677-2.109,13.3-6.038,18.731
			c-9.472,13.097-23.107,22.979-34.04,34.762c-6.341,6.834-11.023,16.808-7.334,25.37c2.954,6.857,10.331,10.632,17.428,12.951
			c19.624,6.413,44.995,6.979,63.762-2.572c16.36-8.326,27.67-25.65,29.075-43.953c1.568-20.434-9.336-41.432-26.374-52.573
			c-3.587-2.347-7.263-4.779-9.729-8.285c-6.317-8.98-2.718-21.166-0.461-31.911c3.482-16.577,2.607-35.314-8.059-48.474
			c-8.238-10.164-21.065-15.483-33.782-18.552c-6.444-1.555-13.116-2.679-18.938-5.849c-11.652-6.343-17.618-19.439-22.807-31.649
			c-0.889-2.092-0.719-1.933,0.311-3.959c7.299-3.868,16.059,0.779,22.855,5.475c7.211,4.983,14.344,10.237,20.082,16.862
			c13.678,15.792,17.951,37.404,21.728,57.951c5.561,30.249,11.122,60.498,16.683,90.747c3.155,17.162,6.112,35.814-1.913,51.308
			c-8.088,15.615-26.047,24.266-43.597,25.367c-16.012,1.005-31.719-3.352-46.614-8.8c-11.728-4.29-22.092-8.893-11.213-22.58
			c8.831-11.111,20.013-18.908,29.869-28.817c5.744-5.775,11.183-12.068,14.445-19.532c2.534-5.798,2.249-11.663,3.313-17.832
			c1.279-7.414,3.124-14.714,4.758-22.054c3.169-14.235,5.918-29.128,2.126-43.532c-2.652-10.076-8.297-19.071-14.029-27.772
			c-12.306-18.678-26.982-38.018-48.44-44.332c-5.544-1.631-12.34-3.132-14.207-8.602c-0.815-2.389-0.407-5.04,0.459-7.411
			c4.198-11.491,18.267-16.834,30.368-15.041c12.102,1.793,22.63,8.977,32.575,16.101c12.274,8.792,24.654,18.06,32.996,30.645
			c8.71,13.139,12.389,29.018,13.83,44.716c0.883,9.618,1.148,19.827,6.387,27.941c5.374,8.324,15.277,13.192,19.715,22.051
			c8.573,17.111-8.011,34.368-1.602,51.385c3.438,9.129,12.424,15.267,16.005,24.342c3.556,9.01,1.012,19.609-4.652,27.467
			c-5.664,7.858-14.05,13.338-22.738,17.621c-19.592,9.659-44.023,15.432-65.932,12.454c-9-1.223-19.063-5.937-27.641-9.052
			c-11.344-4.119-22.282-9.276-33.668-13.288c-4.956-1.747-11.381-3.037-14.706,1.033c-3.542,4.336-0.332,10.848,3.504,14.926
			c9.998,10.633,24.131,17.24,37.986,21.252c13.013,3.769,24.921,9.459,38.053,13.217c15.015,4.297,29.778,10.191,42.337,19.475
			c12.558,9.285,22.827,22.231,26.818,37.33"/>
		<path style="fill:none;stroke:#222221;stroke-linecap:round;stroke-linejoin:round;stroke-miterlimit:10;" d="M230.742,168.396
			c-4.287-1.151-8.637-3.926-12.759-5.737c-2.472-1.086-4.995-2.186-7.682-2.458c-0.58-0.059-1.213-0.065-1.688,0.275
			c-0.474,0.339-0.631,1.148-0.158,1.489c0.244,0.176,0.568,0.178,0.869,0.188c4.881,0.154,8.756,3.903,12.598,6.918
			c9.209,7.23,20.515,11.116,31.231,15.831c1.116,0.491,2.319,1.079,2.826,2.188c0.583,1.276,0.019,2.804-0.845,3.91
			c-0.803,1.029-1.912,1.876-3.197,2.108c-2.32,0.419-4.462-1.179-6.376-2.557c-2.07-1.49-11.11-4.343-10.213,0.955
			c0.193,1.139,0.917,2.103,1.544,3.074c1.322,2.044,2.294,4.314,2.864,6.68c0.534,2.217,0.684,4.674-0.419,6.671
			c-1.328-0.68-1.987-2.171-2.938-3.321c-1.579-1.911-4.02-2.903-6.443-3.425c-2.423-0.522-4.921-0.648-7.334-1.213
			c-1.41-0.33-2.804-0.82-3.989-1.652c-3.327-2.336-4.318-6.742-6.473-10.189c-1.706,0.344-3.536,0.027-5.027-0.87
			c-0.308-0.186-0.631-0.44-0.666-0.798c-0.045-0.446,0.404-0.813,0.849-0.864c0.445-0.051,0.881,0.12,1.307,0.258
			c4.181,1.359,8.73-0.196,13.113,0.148c1.627,0.128,3.233,0.522,4.735,1.161c1.568,0.668,3.062,1.643,3.997,3.068
			c1.869,2.849-0.314,6.79-3.343,7.726c-1.917,0.593-4.071,0.167-5.758-0.918c-1.107-0.712-2.058-1.734-2.461-2.987
			c-0.952-2.959,2.244-5.435,4.778-6.225c1.885-0.588,3.67,0.456,5.207,1.537c2.335,1.642,4.239,3.891,5.488,6.457
			c1.323,2.718,2.965,5.28,4.33,8.008"/>
		<path style="fill:none;stroke:#222221;stroke-linecap:round;stroke-linejoin:round;stroke-miterlimit:10;" d="M295.655,235.358
			c-3.687-0.319-7.398-0.769-10.889-1.997c-2.496-0.878-4.884-2.177-6.834-3.981c-1.83-1.693-2.313-3.528-4.803-4.487
			c-1.344-0.518-2.763-0.813-4.128-1.275c-3.267-1.103,2.499-3.053,3.408-3.302c5.181-1.418,10.81-0.755,15.657,1.493
			c2.462,1.142,4.738,2.695,6.668,4.606c2.198,2.177,3.259,5.302,4.635,8.05c0.259,0.518,0.529,1.049,0.963,1.432
			c1.222,1.077,3.184,0.536,4.485-0.445c0.453-0.342,0.908-0.947,0.594-1.419c-0.227-0.341-0.709-0.362-1.118-0.379
			c-1.07-0.044-2.189-0.338-2.927-1.114c-0.174-0.183-0.332-0.423-0.282-0.67c0.074-0.372,0.531-0.496,0.901-0.578
			c0.842-0.186,1.649-0.53,2.365-1.01c0.383-0.256,0.762-0.804,0.424-1.118c-0.24-0.223-0.623-0.088-0.926,0.036
			c-1.159,0.474-2.452,0.615-3.686,0.401c-0.549-0.095-1.202-0.405-1.187-0.962c0.005-0.212,0.115-0.408,0.25-0.572
			c0.412-0.501,1.048-0.759,1.532-1.191c0.484-0.432,0.789-1.231,0.352-1.71c-0.424-0.466-1.179-0.282-1.783-0.103
			c-1.327,0.394-2.8,0.578-4.066,0.019c-1.528-0.674-2.48-2.183-3.991-2.892c-1.884-0.884-4.288-1.096-6.328-1.385
			c-1.679-0.238-3.529-0.362-4.93,0.592c-1.639,1.116-2.1,3.486-1.383,5.335c0.717,1.849,2.383,3.197,4.198,3.995
			c2.159,0.949,4.884,1.146,6.711-0.345c1.472-1.201,2.023-3.406,1.29-5.159c-0.734-1.753-2.691-2.908-4.58-2.702
			c-1.387,0.151-2.741,1.084-3.09,2.434"/>
		<path style="fill:none;stroke:#222221;stroke-linecap:round;stroke-linejoin:round;stroke-miterlimit:10;" d="M244.185,106.733
			c-8.532-3.655-18.466-1.649-27.01,1.976c-8.544,3.625-16.425,8.794-25.236,11.712c-4.05,1.342-9.65,1.557-11.397-2.336
			c-1.476-3.29,1.064-6.916,3.565-9.514c7.481-7.77,16.148-14.418,25.571-19.665c7.901-4.4,16.291-9.957,25.412-10.907
			c6.54-0.681,13.283-0.307,19.532-2.352c1.597-0.523,3.256-1.298,4.065-2.77c3.175-5.778-6.356-8.364-10.052-9.229
			c-7.32-1.712-14.377-0.183-21.459,2.192c-29.318,9.83-54.215,32.154-67.173,60.23c-9.553,20.699-12.646,43.537-20.085,64.958
			c-1.738,5.004-4.844,10.108-5.866,15.284c-0.773,3.915-0.374,7.737-1.419,11.696c-2.376,9.006-7.168,17.861-14.641,23.61
			c-5.101,3.924-12.227,8.135-11.07,14.466c0.526,2.878,2.795,5.125,5.219,6.763c8.485,5.733,19.47,6.11,29.657,5.062
			c3.174-0.327,6.77-0.648,9.173,1.451c4.594,4.014,9.068,20.283,9.102,26.422c0.086,15.674-13.368,27.64-25.674,37.349
			c-9.838,7.761-20.373,15.821-32.82,17.268c-7.165,0.833-14.426-0.624-21.616-0.054c-7.19,0.57-14.991,3.985-17.328,10.809"/>
		<path style="fill:none;stroke:#222221;stroke-linecap:round;stroke-linejoin:round;stroke-miterlimit:10;" d="M210.162,184.303
			c0.158,0.575,1.161,0.265,1.228-0.328c0.068-0.593-0.389-1.1-0.792-1.539c-0.876-0.955-1.697-2.161-1.496-3.441
			c0.049-0.314,0.202-0.659,0.508-0.744c0.378-0.105,0.722,0.241,0.949,0.561c1.439,2.036,2.513,4.79,4.947,5.329
			c0.122,0.027,0.254,0.047,0.369-0.003c0.258-0.111,0.267-0.472,0.206-0.745c-0.356-1.595-1.658-2.931-1.689-4.565
			c-0.005-0.269,0.077-0.601,0.339-0.663c0.13-0.031,0.265,0.02,0.385,0.08c2.149,1.066,2.083,4.649,4.305,5.553
			c0.979,0.398,2.081,0.117,3.125-0.049c3.564-0.569,7.694,0.595,9.437,3.755"/>
		<g>
			<path style="fill:none;stroke:#222221;stroke-linecap:round;stroke-linejoin:round;stroke-miterlimit:10;" d="M162.699,408.827
				c-11.996-4.751-24.301-8.722-36.811-11.88c-1.962-0.495-4.43-0.808-5.653,0.803c2.056,1.328,4.615,1.512,7.04,1.846
				c8.779,1.208,16.956,4.798,25.236,7.759c4.182,1.496,8.461,2.378,12.684,3.659c4.053,1.229,10.022,3.81,13.801,5.839
				c-4.497-0.065-10.473,3.506-14.133,6.121c-8.855,6.324-19.643,5.8-29.385,1.647c-8.642-3.685-16.441-9.332-22.639-16.393
				c-2.213-2.522-4.275-5.266-7.088-7.096c-2.812-1.83-6.656-2.56-9.494-0.77c5.456-11.002,17.14-18.354,29.357-19.597
				c12.217-1.243,24.688,3.275,34.054,11.219c8.43,7.151,14.378,16.758,22.033,24.734c3.614-5.965,11.493-7.237,17.957-9.855
				c9.6-3.887,17.194-12.313,19.273-22.451c2.225-10.852,0.533-22.514-4.899-32.19c-0.145-0.257-0.31-0.53-0.583-0.643
				c-0.403-0.167-0.848,0.081-1.214,0.319c-4.253,2.777-8.507,5.555-12.761,8.332c-3.826,2.498-7.674,5.014-10.989,8.159
				c-6.436,6.108-10.41,14.596-11.435,23.374c-0.503,4.31-0.301,8.709,0.673,12.94c0.803,3.487,3.88,8.246,5.754,2.134
				c2.451-7.992,6.004-16.275,11.296-22.832c3.103-3.844,7.434-11.415,12.668-12.373c0.454,1.44-0.195,3.031-1.197,4.16
				c-1.002,1.129-2.322,1.916-3.537,2.812c-5.84,4.309-9.211,11.107-12.369,17.642c-1.682,3.48-3.363,6.96-5.044,10.439
				c-1.339,2.77-3.569,6.182-3.628,9.336c-0.029,1.554,0.322,3.087,0.67,4.601c1.255,5.452,2.513,10.915,4.343,16.202
				c0.1,0.288-0.568-0.208-0.616,0.093c1.02,0.475,2.312-0.135,2.852-1.122s0.457-2.214,0.086-3.276
				c-0.371-1.062-1.001-2.011-1.546-2.996c-1.062-1.919-1.813-4.01-2.215-6.166"/>
			<path style="fill:none;stroke:#222221;stroke-linecap:round;stroke-linejoin:round;stroke-miterlimit:10;" d="M114.348,320.549
				c10.055,4.318,22.764,1.334,29.847-7.007c4.284-5.045,6.505-12.227,4.308-18.47c-2.592-7.369-11.068-11.751-18.813-10.736
				c-7.745,1.015-14.407,6.684-17.847,13.698c-0.853,1.739-1.545,3.629-1.438,5.563c0.156,2.841,2.108,5.414,4.651,6.688
				c2.543,1.275,5.58,1.349,8.323,0.596c3.278-0.9,6.367-3.154,7.41-6.39c1.56-4.839-2.2-10.237-7.049-11.766
				c-4.849-1.529-10.204,0.033-14.544,2.682c-2.535,1.547-4.895,3.517-6.366,6.097c-1.471,2.58-1.944,5.845-0.726,8.554
				c1.95,4.34,7.193,5.862,11.714,7.345c3.175,1.042,6.28,2.299,9.286,3.759c1.492,0.725,3.003,1.535,4.042,2.828
				c1.038,1.293,1.493,3.191,0.677,4.635c-0.534,0.945-1.506,1.549-2.462,2.063c-5.928,3.192-12.857,4.493-19.54,3.668
				c-4.765-0.588-9.913-2.714-11.679-7.178c-0.807-2.04-0.791-4.307-0.611-6.493c0.922-11.155,5.993-21.919,14.007-29.733
				c8.014-7.814,18.904-12.61,30.079-13.249c8.902-0.509,18.773,2.153,23.63,9.629c4.253,6.546,3.666,15.022,2.583,22.753
				c-0.658,4.691-1.465,9.443-3.554,13.694c-2.089,4.251-5.652,7.999-10.217,9.259c-3.575,0.987-7.363,0.385-11.064,0.15
				c-7.001-0.444-14.085,0.468-20.745,2.672c-0.946,0.313-1.94,0.693-2.53,1.496c-0.963,1.311-0.41,3.284,0.79,4.382
				c1.2,1.098,2.854,1.525,4.445,1.859c10.448,2.188,21.811,1.811,31.187-3.293c9.375-5.104,16.205-15.6,14.94-26.199
				c-0.316-2.646-0.96-5.759,0.937-7.631c0.793-0.782,1.903-1.163,3.003-1.342c5.441-0.883,11.178,3.377,11.905,8.841
				c0.646,4.856-2.16,9.454-5.086,13.384c-5.419,7.277-11.965,14.137-20.399,17.484c-9.618,3.816-20.512,2.63-30.485,5.386
				c-3.613,0.998-7.077,2.508-10.727,3.359s-7.641,0.994-11-0.669c-2.875-1.424-4.976-3.998-7.428-6.068
				c-2.811-2.373-6.12-4.105-8.911-6.501c-2.848-2.444-5.113-5.564-6.556-9.029c-1.428-3.43-2.043-7.293-1.131-10.895
				c0.808-3.189,2.735-5.955,4.284-8.858c2.077-3.892,3.521-8.13,5.98-11.793c2.936-4.371,7.173-7.699,11.551-10.625
				c3.392-2.267,7.021-4.381,11.045-5.053c4.235-0.707,8.565,0.239,12.688,1.437c6.478,1.882,12.77,4.4,18.758,7.507
				c5.271,2.735,10.414,6.021,14.069,10.702c2.923,3.743,4.764,8.213,6.242,12.727c1.638,5.003,2.88,10.345,1.834,15.505
				c-0.892,4.402-3.405,8.344-6.492,11.606c-7.596,8.026-18.374,12.133-28.925,15.415c-10.408,3.238-21.799,5.896-32.02,2.11
				c-5.412-2.005-10.535-6.533-10.695-12.302c-0.013-0.456,0.02-0.95,0.312-1.3c0.383-0.458,1.06-0.504,1.657-0.485
				c4.72,0.153,9.173,2.15,13.823,2.978c7.439,1.326,15.033-0.371,22.561-1.027c7.528-0.656,15.814-0.004,21.439,5.042
				c6.581,5.904,7.08,15.094,9.595,22.996c2.545,7.999,13.235,21.594,17.236,28.97"/>
		</g>
	</g>
</g>
</svg>
