<svg width="385" height="384" viewBox="0 0 385 384" fill="none" xmlns="http://www.w3.org/2000/svg">
<path d="M180.589 87.7614C180.589 87.7614 182.414 115.37 179.859 120.097C177.324 124.823 161.345 128.454 151.895 129.915C142.445 131.375 129.02 132.085 125.37 138.637C121.74 145.169 122.47 160.079 127.195 171.338C131.92 182.596 154.064 241.1 154.064 241.1L125.735 309.401C125.735 309.401 165.319 357.356 189.654 364.273C213.989 371.17 246.679 347.193 253.938 337.395C261.198 327.577 261.563 316.318 261.563 316.318L233.599 237.469C233.599 237.469 258.968 177.058 260.772 164.704C262.598 152.351 263.753 138.009 254.668 134.012C245.583 130.016 226.339 127.379 220.519 124.478C214.699 121.577 212.529 120.117 212.164 112.489C211.799 104.862 212.529 88.1468 212.529 88.1468C212.529 88.1468 189.654 92.8531 180.589 87.7614Z" fill="white"/>
<path d="M212.184 112.469C211.819 104.842 212.549 88.1266 212.549 88.1266C212.549 88.1266 189.674 92.8531 180.589 87.7614C180.589 87.7614 182.049 110.055 180.508 118.007C183.266 119.833 187.484 121.801 193.69 122.612C200.544 123.505 207.986 121.233 213.502 118.92C212.731 117.378 212.326 115.37 212.184 112.469Z" fill="#C19FC2"/>
<path opacity="0.5" d="M212.184 112.469C211.819 104.842 212.549 88.1266 212.549 88.1266C212.549 88.1266 189.674 92.8531 180.589 87.7614C180.589 87.7614 182.049 110.055 180.508 118.007C183.266 119.833 187.484 121.801 193.69 122.612C200.544 123.505 207.986 121.233 213.502 118.92C212.731 117.378 212.326 115.37 212.184 112.469Z" fill="white"/>
<path d="M230.009 141.396C230.009 141.396 214.597 143.749 208.453 144.703C202.288 145.656 201.781 150.363 201.781 150.363" stroke="#263238" stroke-miterlimit="10" stroke-linecap="round" stroke-linejoin="round"/>
<path d="M190.992 148.943C190.992 148.943 190.485 146.103 185.862 144.216C181.238 142.33 159.154 141.863 154.531 140.91" stroke="#263238" stroke-miterlimit="10" stroke-linecap="round" stroke-linejoin="round"/>
<path d="M180.589 87.7614C180.589 87.7614 182.414 115.37 179.859 120.097C177.324 124.823 161.345 128.454 151.895 129.915C142.445 131.375 129.02 132.085 125.37 138.637C121.74 145.169 122.47 160.079 127.195 171.338C131.92 182.596 154.064 241.1 154.064 241.1L125.735 309.401C125.735 309.401 165.319 357.356 189.654 364.273C213.989 371.17 246.679 347.193 253.938 337.395C261.198 327.577 261.563 316.318 261.563 316.318L233.599 237.469C233.599 237.469 258.968 177.058 260.772 164.704C262.598 152.351 263.753 138.009 254.668 134.012C245.583 130.016 226.339 127.379 220.519 124.478C214.699 121.577 212.529 120.117 212.164 112.489C211.799 104.862 212.529 88.1468 212.529 88.1468C212.529 88.1468 189.654 92.8531 180.589 87.7614Z" stroke="#263238" stroke-miterlimit="10" stroke-linecap="round" stroke-linejoin="round"/>
<path d="M248.564 200.529C241.751 192.861 233.152 179.716 233.315 164.177C233.457 150.829 233.781 136.974 235.018 128.515C232.625 127.967 230.334 127.44 228.225 126.913C226.278 139.307 219.626 165.374 198.273 165.78C176.047 166.206 170.429 137.806 169.051 126.04C167.834 126.426 166.576 126.791 165.279 127.136C165.258 127.136 165.238 127.156 165.198 127.156C163.9 127.501 162.602 127.825 161.304 128.109C172.964 152.756 148.832 192.07 140.234 204.789C140.64 205.843 141.025 206.878 141.431 207.913C141.532 208.176 141.633 208.42 141.714 208.683C142.059 209.617 142.424 210.529 142.769 211.442C142.789 211.523 142.83 211.605 142.85 211.665C144.107 214.952 145.324 218.157 146.48 221.179C146.48 221.2 146.5 221.2 146.5 221.22C146.845 222.133 147.19 223.025 147.514 223.898C147.575 224.04 147.616 224.182 147.676 224.324C148.366 226.109 149.015 227.813 149.603 229.415C149.704 229.699 149.826 229.983 149.927 230.267C151.104 233.371 152.097 235.967 152.807 237.854C153.071 238.523 153.273 239.071 153.456 239.558C153.659 240.126 153.821 240.511 153.922 240.775C154.004 240.978 154.044 241.12 154.044 241.12L125.714 309.421C125.714 309.421 165.299 357.376 189.634 364.294C213.968 371.191 246.658 347.213 253.918 337.415C261.178 327.597 261.543 316.339 261.543 316.339L233.578 237.489C233.619 237.469 241.325 219.07 248.564 200.529Z" fill="#C19FC2"/>
<path opacity="0.15" d="M233.619 237.469C233.619 237.469 241.345 219.09 248.564 200.529C247.043 198.825 245.462 196.837 243.88 194.646C242.501 195.721 241.061 197.344 239.642 199.636C239.642 199.636 235.221 212.396 227.373 219.272C219.525 226.149 206.262 222.701 197.907 221.727C189.553 220.753 178.277 228.604 170.409 213.877C162.744 199.494 156.011 189.838 148.386 191.664C145.466 196.816 142.708 201.137 140.66 204.18C140.579 204.565 140.498 204.971 140.437 205.377C140.761 206.249 141.106 207.101 141.431 207.973C141.532 208.237 141.633 208.481 141.714 208.744C142.059 209.677 142.424 210.59 142.769 211.503C142.789 211.584 142.83 211.665 142.85 211.726C144.107 215.012 145.324 218.218 146.48 221.24C146.48 221.26 146.5 221.26 146.5 221.281C146.845 222.194 147.19 223.086 147.514 223.958C147.575 224.1 147.616 224.242 147.676 224.384C148.366 226.17 149.015 227.874 149.603 229.476C149.704 229.76 149.826 230.044 149.927 230.328C151.104 233.432 152.097 236.028 152.807 237.915C153.071 238.584 153.273 239.132 153.456 239.619C153.659 240.187 153.821 240.572 153.922 240.836C154.003 241.039 154.044 241.181 154.044 241.181L139.342 276.64C139.382 277.512 139.849 277.695 140.924 276.802C146.318 272.38 158.607 264.043 168.422 270.899C178.237 277.776 185.598 291.043 202.288 283.659C218.977 276.295 220.458 260.087 231.753 262.055C236.174 262.825 240.453 264.813 244.002 266.923L233.619 237.469Z" fill="black"/>
<path d="M248.564 200.529C241.751 192.861 233.152 179.716 233.315 164.177C233.457 150.829 233.781 136.974 235.018 128.515C232.625 127.967 230.334 127.44 228.225 126.913C226.278 139.307 219.626 165.374 198.273 165.78C176.047 166.206 170.429 137.806 169.051 126.04C167.834 126.426 166.576 126.791 165.279 127.136C165.258 127.136 165.238 127.156 165.198 127.156C163.9 127.501 162.602 127.825 161.304 128.109C172.964 152.756 148.832 192.07 140.234 204.789C140.64 205.843 141.025 206.878 141.431 207.913C141.532 208.176 141.633 208.42 141.714 208.683C142.059 209.617 142.424 210.529 142.769 211.442C142.789 211.523 142.83 211.605 142.85 211.665C144.107 214.952 145.324 218.157 146.48 221.179C146.48 221.2 146.5 221.2 146.5 221.22C146.845 222.133 147.19 223.025 147.514 223.898C147.575 224.04 147.616 224.182 147.676 224.324C148.366 226.109 149.015 227.813 149.603 229.415C149.704 229.699 149.826 229.983 149.927 230.267C151.104 233.371 152.097 235.967 152.807 237.854C153.071 238.523 153.273 239.071 153.456 239.558C153.659 240.126 153.821 240.511 153.922 240.775C154.004 240.978 154.044 241.12 154.044 241.12L125.714 309.421C125.714 309.421 165.299 357.376 189.634 364.294C213.968 371.191 246.658 347.213 253.918 337.415C261.178 327.597 261.543 316.339 261.543 316.339L233.578 237.489C233.619 237.469 241.325 219.07 248.564 200.529Z" stroke="#263238" stroke-miterlimit="10" stroke-linecap="round" stroke-linejoin="round"/>
<path d="M239.236 68.5916C239.135 68.5713 239.054 68.5916 238.972 68.5916C242.724 54.4729 238.83 36.2159 232.159 24.5315C223.439 9.27675 213.624 0.919114 205.999 0.919114C198.374 0.919114 195.819 9.27676 195.819 9.27676C195.819 9.27676 191.824 0.553974 179.839 0.188834C167.854 -0.176305 148.974 45.243 151.144 64.4939C153.314 83.7449 171.119 93.5631 190.019 95.7337C208.899 97.9042 221.614 93.908 233.233 80.1138C234.673 78.3895 235.87 76.4827 236.863 74.4136C234.937 81.4121 230.516 93.7254 222.222 98.1071C221.735 98.3708 221.533 98.9793 221.796 99.4865C221.979 99.8313 222.323 100.034 222.688 100.034C222.851 100.034 223.013 99.9936 223.155 99.9125C235.789 93.2183 239.865 70.7216 240.027 69.7682C240.149 69.2205 239.784 68.6931 239.236 68.5916Z" fill="#263238"/>
<path d="M187.383 11.6299C187.383 11.6299 179.961 4.20537 173.877 14.9973C167.814 25.7892 149.583 57.536 156.336 68.9973" stroke="white" stroke-miterlimit="10" stroke-linecap="round" stroke-linejoin="round"/>
<path d="M199.53 15.0175C199.53 15.0175 201.558 8.26246 211.677 9.62159C221.796 10.9807 237.026 38.3864 237.999 53.4991" stroke="white" stroke-miterlimit="10" stroke-linecap="round" stroke-linejoin="round"/>
<path d="M170.774 63.7839C170.774 63.7839 168.239 57.6171 166.049 64.1491C163.879 70.681 168.584 76.503 170.774 78.3287C172.944 80.1544 174.404 76.8681 173.674 74.6975C172.944 72.527 170.774 63.7839 170.774 63.7839Z" fill="white" stroke="#263238" stroke-miterlimit="10" stroke-linecap="round" stroke-linejoin="round"/>
<path d="M221.979 63.7839C221.979 63.7839 224.514 57.6171 226.704 64.1491C228.874 70.681 224.169 76.503 221.979 78.3287C219.809 80.1544 218.349 76.8681 219.079 74.6975C219.809 72.527 221.979 63.7839 221.979 63.7839Z" fill="white" stroke="#263238" stroke-miterlimit="10" stroke-linecap="round" stroke-linejoin="round"/>
<path d="M192.939 12.563C192.939 12.563 185.679 15.0987 178.42 28.9131C171.16 42.7276 168.605 58.3474 171.89 73.9673C175.155 89.5871 186.775 98.6751 198.05 99.4054C209.304 100.136 220.58 85.2258 222.749 73.237C224.919 61.2483 219.12 34.0048 212.225 22.7261C205.289 11.4676 192.939 12.563 192.939 12.563Z" fill="white"/>
<path d="M220.032 50.8012C220.032 68.1859 218.917 87.2746 203.768 92.3257C188.62 97.3768 180.204 81.6758 176.29 68.2062C172.944 56.7043 175.337 39.4007 176.412 33.0717C170.713 45.8313 168.929 59.8891 171.869 73.9876C175.134 89.6075 186.754 98.6954 198.029 99.4257C209.284 100.156 220.559 85.2461 222.729 73.2573C223.966 66.4617 222.628 54.7366 219.971 43.823C220.012 45.953 220.032 48.2655 220.032 50.8012Z" fill="#C19FC2"/>
<path opacity="0.5" d="M220.032 50.8012C220.032 68.1859 218.917 87.2746 203.768 92.3257C188.62 97.3768 180.204 81.6758 176.29 68.2062C172.944 56.7043 175.337 39.4007 176.412 33.0717C170.713 45.8313 168.929 59.8891 171.869 73.9876C175.134 89.6075 186.754 98.6954 198.029 99.4257C209.284 100.156 220.559 85.2461 222.729 73.2573C223.966 66.4617 222.628 54.7366 219.971 43.823C220.012 45.953 220.032 48.2655 220.032 50.8012Z" fill="white"/>
<path d="M192.939 12.5629C192.939 12.5629 192.006 26.1137 200.97 32.3007C209.953 38.4675 217.233 36.7838 217.233 36.7838C217.233 36.7838 197.238 12.4615 192.939 12.5629Z" fill="#C19FC2"/>
<path opacity="0.5" d="M192.939 12.5629C192.939 12.5629 192.006 26.1137 200.97 32.3007C209.953 38.4675 217.233 36.7838 217.233 36.7838C217.233 36.7838 197.238 12.4615 192.939 12.5629Z" fill="white"/>
<path d="M192.939 12.563C192.939 12.563 185.679 15.0987 178.42 28.9131C171.16 42.7276 168.605 58.3474 171.89 73.9673C175.155 89.5871 186.775 98.6751 198.05 99.4054C209.304 100.136 220.58 85.2258 222.749 73.237C224.919 61.2483 219.12 34.0048 212.225 22.7261C205.289 11.4676 192.939 12.563 192.939 12.563Z" stroke="#263238" stroke-miterlimit="10" stroke-linecap="round" stroke-linejoin="round"/>
<path d="M199.104 48.8943C199.104 48.8943 198.374 51.0649 199.104 53.2558C199.834 55.4263 204.924 55.7915 203.464 58.7126C202.004 61.6134 199.469 63.0739 199.469 63.0739" stroke="#263238" stroke-miterlimit="10" stroke-linecap="round" stroke-linejoin="round"/>
<path d="M195.474 72.5067H200.564" stroke="#263238" stroke-miterlimit="10" stroke-linecap="round" stroke-linejoin="round"/>
<path d="M204.194 51.0649C204.194 51.0649 208.919 48.1641 212.914 51.0649" stroke="#263238" stroke-miterlimit="10" stroke-linecap="round" stroke-linejoin="round"/>
<path d="M180.589 51.0649C180.589 51.0649 185.314 48.1641 189.309 51.0649" stroke="#263238" stroke-miterlimit="10" stroke-linecap="round" stroke-linejoin="round"/>
<path d="M177.304 42.3421C177.304 42.3421 182.394 36.8854 190.019 39.8065" stroke="#263238" stroke-miterlimit="10" stroke-linecap="round" stroke-linejoin="round"/>
<path d="M201.639 40.1716C201.639 40.1716 207.094 35.8102 213.989 40.9019" stroke="#263238" stroke-miterlimit="10" stroke-linecap="round" stroke-linejoin="round"/>
<path d="M192.939 12.5631C192.939 12.5631 200.929 22.3813 209.284 30.0086C217.639 37.636 227.089 36.5406 227.089 36.5406C227.089 36.5406 220.924 23.0913 210.379 15.829C199.834 8.56682 192.939 12.5631 192.939 12.5631Z" fill="#263238" stroke="#263238" stroke-miterlimit="10" stroke-linecap="round" stroke-linejoin="round"/>
<path d="M141.654 132.897C141.654 132.897 126.566 130.747 120.097 143.689C113.628 156.631 106.612 221.342 106.612 221.342C106.612 221.342 98.5203 226.738 89.3542 232.134C80.1881 237.53 62.4035 248.849 53.2374 252.095C44.0713 255.34 35.98 258.018 35.98 258.018C35.98 258.018 31.1333 249.397 30.5857 246.699C30.0382 244.001 24.1168 242.926 21.4197 240.228C18.7226 237.53 14.9507 233.209 14.9507 237.53C14.9507 241.85 14.4031 244.548 18.7226 246.151C23.042 247.774 26.2663 253.697 26.2663 253.697C26.2663 253.697 2.53994 253.433 4.16226 255.584C5.78458 257.734 9.55646 262.318 16.0255 266.092C22.4944 269.865 33.8101 273.11 43.5237 273.11C53.2374 273.11 114.683 253.149 119.529 247.774C124.376 242.378 140.011 185.213 140.011 185.213" fill="white"/>
<path d="M31.3766 271.67C35.4121 272.563 39.6099 273.11 43.544 273.11C53.2576 273.11 114.703 253.149 119.55 247.774C124.396 242.378 140.031 185.213 140.031 185.213L140.254 177.728L135.327 171.439C135.327 171.439 116.812 231.464 113.446 237.083C110.079 242.702 71.387 257.835 52.8723 264.57C44.8216 267.491 37.298 269.885 31.3766 271.67Z" fill="#C19FC2"/>
<path opacity="0.5" d="M31.3766 271.67C35.4121 272.563 39.6098 273.11 43.544 273.11C53.2576 273.11 114.703 253.149 119.55 247.774C124.396 242.378 140.031 185.213 140.031 185.213L140.254 177.728L135.327 171.439C135.327 171.439 116.812 231.464 113.446 237.083C110.079 242.702 71.387 257.835 52.8723 264.57C44.8216 267.491 37.298 269.885 31.3766 271.67Z" fill="white"/>
<path d="M141.654 132.897C141.654 132.897 126.566 130.747 120.097 143.689C113.628 156.631 106.612 221.342 106.612 221.342C106.612 221.342 98.5203 226.738 89.3542 232.134C80.1881 237.53 62.4035 248.849 53.2374 252.095C44.0713 255.34 35.98 258.018 35.98 258.018C35.98 258.018 31.1333 249.397 30.5857 246.699C30.0382 244.001 24.1168 242.926 21.4197 240.228C18.7226 237.53 14.9507 233.209 14.9507 237.53C14.9507 241.85 14.4031 244.548 18.7226 246.151C23.042 247.774 26.2663 253.697 26.2663 253.697C26.2663 253.697 2.53994 253.433 4.16226 255.584C5.78458 257.734 9.55646 262.319 16.0255 266.092C22.4944 269.865 33.8101 273.11 43.5237 273.11C53.2374 273.11 114.683 253.149 119.529 247.774C124.376 242.378 140.011 185.213 140.011 185.213" stroke="#263238" stroke-miterlimit="10" stroke-linecap="round" stroke-linejoin="round"/>
<path d="M8.13692 259.478C8.13692 259.478 4.42587 257.754 2.9455 255.766C1.46514 253.778 0.228114 246.84 1.46513 244.122C2.70215 241.404 14.5856 236.191 14.5856 236.191C14.5856 236.191 15.5793 238.909 15.0723 241.14C14.5856 243.372 6.8999 246.597 6.8999 246.597L9.61729 256.496" fill="white"/>
<path d="M8.13692 259.478C8.13692 259.478 4.42587 257.754 2.9455 255.766C1.46514 253.778 0.228114 246.84 1.46513 244.122C2.70215 241.404 14.5856 236.191 14.5856 236.191C14.5856 236.191 15.5793 238.909 15.0723 241.14C14.5856 243.372 6.8999 246.597 6.8999 246.597L9.61729 256.496" stroke="#263238" stroke-miterlimit="10" stroke-linecap="round" stroke-linejoin="round"/>
<path d="M15.0723 259.235C13.085 258.484 10.8543 255.279 11.1179 252.297C11.3612 249.336 10.8745 242.885 8.8872 241.647C6.89986 240.41 5.17615 252.054 5.17615 255.016C5.17615 257.977 10.1242 262.197 10.1242 262.197C10.1242 262.197 12.1318 263.272 14.0786 264.672" fill="white"/>
<path d="M15.0723 259.235C13.085 258.484 10.8543 255.279 11.1179 252.297C11.3612 249.336 10.8745 242.885 8.8872 241.647C6.89986 240.41 5.17615 252.054 5.17615 255.016C5.17615 257.977 10.1242 262.197 10.1242 262.197C10.1242 262.197 12.1318 263.272 14.0786 264.672" stroke="#263238" stroke-miterlimit="10" stroke-linecap="round" stroke-linejoin="round"/>
<path d="M21.0141 264.672C19.0267 263.921 16.796 260.716 17.0597 257.734C17.303 254.752 16.8163 248.321 14.829 247.084C12.8416 245.847 11.1179 257.49 11.1179 260.452C11.1179 263.414 14.829 266.152 14.829 266.152C13.957 266.132 16.4918 267.613 21.521 269.114" fill="white"/>
<path d="M21.0141 264.672C19.0267 263.921 16.796 260.716 17.0597 257.734C17.303 254.752 16.8163 248.321 14.829 247.084C12.8416 245.847 11.1179 257.49 11.1179 260.452C11.1179 263.414 14.829 266.152 14.829 266.152C13.957 266.132 16.4918 267.613 21.521 269.114" stroke="#263238" stroke-miterlimit="10" stroke-linecap="round" stroke-linejoin="round"/>
<path d="M27.5236 265.3C25.6782 265.037 23.1839 262.683 22.8392 260.067C22.4944 257.47 20.8924 252.034 18.9659 251.324C17.0394 250.634 17.6883 260.939 18.2358 263.495C18.7834 266.051 23.8126 268.749 23.8126 268.749C23.8126 268.749 25.7391 269.297 27.6656 270.149" fill="white"/>
<path d="M27.5236 265.3C25.6782 265.037 23.1839 262.683 22.8392 260.067C22.4944 257.47 20.8924 252.034 18.9659 251.324C17.0394 250.634 17.6883 260.939 18.2358 263.495C18.7834 266.051 23.8126 268.749 23.8126 268.749C23.8126 268.749 25.7391 269.297 27.6656 270.149" stroke="#263238" stroke-miterlimit="10" stroke-linecap="round" stroke-linejoin="round"/>
<path d="M243.434 132.897C243.434 132.897 258.521 130.747 264.99 143.689C271.459 156.631 278.476 221.342 278.476 221.342C278.476 221.342 286.567 226.738 295.733 232.134C304.899 237.53 322.684 248.849 331.85 252.095C341.016 255.34 349.108 258.018 349.108 258.018C349.108 258.018 353.954 249.397 354.502 246.699C355.049 244.001 360.971 242.926 363.668 240.228C366.365 237.53 370.137 233.209 370.137 237.53C370.137 241.85 370.684 244.548 366.365 246.151C362.046 247.774 358.821 253.697 358.821 253.697C358.821 253.697 382.548 253.433 380.925 255.584C379.303 257.734 375.531 262.318 369.062 266.092C362.593 269.865 351.277 273.11 341.564 273.11C331.85 273.11 270.405 253.149 265.558 247.774C260.711 242.378 245.076 185.213 245.076 185.213" fill="white"/>
<path d="M265.538 247.753C270.385 253.149 331.85 273.09 341.543 273.09C343.936 273.09 346.431 272.887 348.925 272.542C343.146 271.285 336.433 269.317 330.512 266.233C316.499 258.931 276.103 243.23 271.622 236.495C267.14 229.76 257.609 185.436 251.992 182.069C246.374 178.701 250.308 202.821 250.308 202.821V203.754C255.317 220.977 262.516 244.406 265.538 247.753Z" fill="#C19FC2"/>
<path opacity="0.5" d="M265.538 247.753C270.385 253.149 331.85 273.09 341.543 273.09C343.936 273.09 346.431 272.887 348.925 272.542C343.146 271.285 336.433 269.317 330.512 266.233C316.499 258.931 276.103 243.23 271.622 236.495C267.14 229.76 257.609 185.436 251.992 182.069C246.374 178.701 250.308 202.821 250.308 202.821V203.754C255.317 220.977 262.516 244.406 265.538 247.753Z" fill="white"/>
<path d="M243.434 132.897C243.434 132.897 258.521 130.747 264.99 143.689C271.459 156.631 278.476 221.342 278.476 221.342C278.476 221.342 286.567 226.738 295.733 232.134C304.899 237.53 322.684 248.849 331.85 252.095C341.016 255.34 349.108 258.018 349.108 258.018C349.108 258.018 353.954 249.397 354.502 246.699C355.049 244.001 360.971 242.926 363.668 240.228C366.365 237.53 370.137 233.209 370.137 237.53C370.137 241.85 370.684 244.548 366.365 246.151C362.046 247.774 358.821 253.697 358.821 253.697C358.821 253.697 382.548 253.433 380.925 255.584C379.303 257.734 375.531 262.319 369.062 266.092C362.593 269.865 351.277 273.11 341.564 273.11C331.85 273.11 270.405 253.149 265.558 247.774C260.711 242.378 245.076 185.213 245.076 185.213" stroke="#263238" stroke-miterlimit="10" stroke-linecap="round" stroke-linejoin="round"/>
<path d="M376.93 259.478C376.93 259.478 380.641 257.754 382.122 255.766C383.602 253.778 384.839 246.84 383.602 244.122C382.365 241.404 370.482 236.191 370.482 236.191C370.482 236.191 369.488 238.909 369.995 241.14C370.482 243.372 378.167 246.597 378.167 246.597L375.45 256.496" fill="white"/>
<path d="M376.93 259.478C376.93 259.478 380.641 257.754 382.122 255.766C383.602 253.778 384.839 246.84 383.602 244.122C382.365 241.404 370.482 236.191 370.482 236.191C370.482 236.191 369.488 238.909 369.995 241.14C370.482 243.372 378.167 246.597 378.167 246.597L375.45 256.496" stroke="#263238" stroke-miterlimit="10" stroke-linecap="round" stroke-linejoin="round"/>
<path d="M370.015 259.235C372.002 258.484 374.233 255.279 373.97 252.297C373.726 249.336 374.213 242.885 376.2 241.647C378.188 240.41 379.911 252.054 379.911 255.016C379.911 257.977 374.963 262.197 374.963 262.197C374.963 262.197 372.956 263.272 371.009 264.672" fill="white"/>
<path d="M370.015 259.235C372.002 258.484 374.233 255.279 373.97 252.297C373.726 249.336 374.213 242.885 376.2 241.647C378.188 240.41 379.911 252.054 379.911 255.016C379.911 257.977 374.963 262.197 374.963 262.197C374.963 262.197 372.956 263.272 371.009 264.672" stroke="#263238" stroke-miterlimit="10" stroke-linecap="round" stroke-linejoin="round"/>
<path d="M364.073 264.672C366.061 263.921 368.291 260.716 368.028 257.734C367.784 254.752 368.271 248.321 370.258 247.084C372.246 245.847 373.97 257.49 373.97 260.452C373.97 263.414 370.258 266.152 370.258 266.152C371.13 266.132 368.596 267.613 363.566 269.114" fill="white"/>
<path d="M364.073 264.672C366.061 263.921 368.291 260.716 368.028 257.734C367.784 254.752 368.271 248.321 370.258 247.084C372.246 245.847 373.97 257.49 373.97 260.452C373.97 263.414 370.258 266.152 370.258 266.152C371.13 266.132 368.596 267.613 363.566 269.114" stroke="#263238" stroke-miterlimit="10" stroke-linecap="round" stroke-linejoin="round"/>
<path d="M357.564 265.3C359.409 265.037 361.903 262.683 362.248 260.067C362.593 257.47 364.195 252.034 366.122 251.324C368.048 250.634 367.399 260.939 366.852 263.495C366.304 266.051 361.275 268.749 361.275 268.749C361.275 268.749 359.348 269.297 357.422 270.149" fill="white"/>
<path d="M357.564 265.3C359.409 265.037 361.903 262.683 362.248 260.067C362.593 257.47 364.195 252.034 366.121 251.324C368.048 250.634 367.399 260.939 366.852 263.495C366.304 266.051 361.275 268.749 361.275 268.749C361.275 268.749 359.348 269.297 357.422 270.149" stroke="#263238" stroke-miterlimit="10" stroke-linecap="round" stroke-linejoin="round"/>
<path d="M253.959 337.395C261.218 327.577 261.583 316.318 261.583 316.318L255.459 299.076C205.715 307.819 149.664 301.064 130.379 298.224L125.735 309.421C125.735 309.421 165.319 357.376 189.654 364.294C213.989 371.17 246.678 347.193 253.959 337.395Z" fill="white"/>
<path opacity="0.3" d="M253.959 337.395C261.218 327.577 261.583 316.318 261.583 316.318L255.459 299.076C205.715 307.819 149.664 301.064 130.379 298.224L125.735 309.421C125.735 309.421 165.319 357.376 189.654 364.294C213.989 371.17 246.678 347.193 253.959 337.395Z" fill="black"/>
<path d="M253.959 337.395C261.218 327.577 261.583 316.318 261.583 316.318L255.459 299.076C205.715 307.819 149.664 301.064 130.379 298.224L125.735 309.421C125.735 309.421 165.319 357.376 189.654 364.294C213.989 371.17 246.678 347.193 253.959 337.395Z" stroke="#263238" stroke-miterlimit="10" stroke-linecap="round" stroke-linejoin="round"/>
<path d="M221.898 335.59C221.898 335.59 264.402 299.461 299.546 285.566C299.546 285.566 335.095 268.404 342.456 281.894C349.817 295.384 315.079 335.853 304.048 342.791C293.016 349.749 266.856 362.813 248.889 366.505C230.922 370.197 210.379 371.15 199.449 365.288" fill="white"/>
<path opacity="0.3" d="M220.681 335.448C220.681 335.448 264.402 299.481 299.546 285.586C299.546 285.586 335.095 268.424 342.456 281.914C349.817 295.404 315.079 335.874 304.048 342.811C293.016 349.769 266.856 362.833 248.889 366.525C230.922 370.217 210.379 371.17 199.449 365.308" fill="black"/>
<path opacity="0.3" d="M208.919 365.024C208.919 365.024 241.264 361.94 269.513 350.134C297.761 338.328 306.988 336.259 306.988 336.259C306.988 336.259 285.939 354.232 268.985 361.433C252.032 368.614 234.065 371.191 218.653 371.191C203.241 371.191 191.946 366.058 191.946 366.058L208.919 365.024Z" fill="black"/>
<path d="M221.898 335.59C221.898 335.59 264.402 299.461 299.546 285.566C299.546 285.566 335.095 268.404 342.456 281.894C349.817 295.384 315.079 335.853 304.048 342.791C293.016 349.749 266.856 362.813 248.889 366.505C230.922 370.197 210.379 371.15 199.449 365.288" stroke="#263238" stroke-miterlimit="10" stroke-linecap="round" stroke-linejoin="round"/>
<path d="M188.498 359.405C188.498 359.405 227.19 345.712 250.288 322.12C273.406 298.528 318.223 271.163 333.31 273.983C348.398 276.823 352.17 282.949 346.512 300.415C340.854 317.88 316.316 341.006 293.198 348.552C270.08 356.098 226.683 364.131 209.223 367.438C191.763 370.744 183.286 374.984 162.054 374.984C140.822 374.984 118.191 373.564 112.046 361.291C105.922 349.019 115.818 349.485 137.517 353.745C159.236 357.985 188.498 359.405 188.498 359.405Z" fill="white"/>
<path opacity="0.3" d="M188.498 359.405C188.498 359.405 227.19 345.712 250.288 322.12C273.406 298.528 318.223 271.163 333.31 273.983C348.398 276.823 352.17 282.949 346.512 300.415C340.854 317.88 316.316 341.006 293.198 348.552C270.08 356.098 226.683 364.131 209.223 367.438C191.763 370.744 183.286 374.984 162.054 374.984C140.822 374.984 118.191 373.564 112.046 361.291C105.922 349.019 115.818 349.485 137.517 353.745C159.236 357.985 188.498 359.405 188.498 359.405Z" fill="black"/>
<path opacity="0.3" d="M342.436 276.153C342.436 276.153 345.518 287.452 334.223 303.376C322.927 319.3 275.17 337.801 248.99 347.558C222.81 357.316 183.773 364.517 183.773 364.517L205.35 368.107C205.35 368.107 274.846 356.727 293.239 348.552C311.632 340.377 330.126 326.502 340.388 313.154C350.649 299.786 356.286 283.862 342.436 276.153Z" fill="black"/>
<path d="M188.498 359.405C188.498 359.405 227.19 345.712 250.288 322.12C273.406 298.528 318.223 271.163 333.31 273.983C348.398 276.823 352.17 282.949 346.512 300.415C340.854 317.88 316.316 341.006 293.198 348.552C270.08 356.098 226.683 364.131 209.223 367.438C191.763 370.744 183.286 374.984 162.054 374.984C140.822 374.984 118.191 373.564 112.046 361.291C105.922 349.019 115.818 349.485 137.517 353.745C159.236 357.985 188.498 359.405 188.498 359.405Z" stroke="#263238" stroke-miterlimit="10" stroke-linecap="round" stroke-linejoin="round"/>
<path d="M188.336 359.385C186.166 359.283 158.384 357.802 137.537 353.725C115.839 349.485 105.922 348.998 112.067 361.271C118.191 373.544 140.843 374.964 162.075 374.964C175.114 374.964 183.347 373.361 191.804 371.353C189.066 367.519 188.417 362.691 188.336 359.385Z" fill="white"/>
<path d="M188.336 359.385C186.166 359.283 158.384 357.802 137.537 353.725C115.839 349.485 105.922 348.998 112.067 361.271C118.191 373.544 140.843 374.964 162.075 374.964C175.114 374.964 183.347 373.361 191.804 371.353C189.066 367.519 188.417 362.691 188.336 359.385Z" fill="#C19FC2"/>
<path opacity="0.5" d="M188.336 359.385C186.166 359.283 158.384 357.802 137.537 353.725C115.839 349.485 105.922 348.998 112.067 361.271C118.191 373.544 140.843 374.964 162.075 374.964C175.114 374.964 183.347 373.361 191.804 371.353C189.066 367.519 188.417 362.691 188.336 359.385Z" fill="white"/>
<path d="M188.336 359.385C186.166 359.283 158.384 357.802 137.537 353.725C115.839 349.485 105.922 348.998 112.067 361.271C118.191 373.544 140.843 374.964 162.075 374.964C175.114 374.964 183.347 373.361 191.804 371.353C189.066 367.519 188.417 362.691 188.336 359.385Z" stroke="#263238" stroke-miterlimit="10" stroke-linecap="round" stroke-linejoin="round"/>
<path d="M176.392 334.068C148.569 310.943 79.9853 265.016 63.0118 265.016C46.0383 265.016 39.4274 284.369 39.4274 284.369C39.4274 284.369 37.5414 291.448 51.6961 305.141C65.8509 318.834 109.248 355.632 143.215 364.598C177.182 373.564 185.679 369.325 185.679 369.325" fill="white"/>
<path opacity="0.3" d="M177.649 333.927C149.826 310.802 80.0056 265.037 63.0118 265.037C46.018 265.037 39.4274 284.39 39.4274 284.39C39.4274 284.39 37.5414 291.469 51.6961 305.162C65.8509 318.855 109.248 355.653 143.215 364.619C177.182 373.585 185.679 369.346 185.679 369.346" fill="black"/>
<path d="M176.392 334.068C148.569 310.943 79.9853 265.016 63.0118 265.016C46.0383 265.016 39.4274 284.369 39.4274 284.369C39.4274 284.369 37.5414 291.448 51.6961 305.141C65.8509 318.834 109.248 355.632 143.215 364.598C177.182 373.564 185.679 369.325 185.679 369.325" stroke="#263238" stroke-miterlimit="10" stroke-linecap="round" stroke-linejoin="round"/>
<path d="M77.8764 284.551C77.8764 284.551 113.466 300.455 125.735 309.401C138.024 318.347 165.847 344.292 180.954 352.325C196.042 360.338 209.73 366.018 220.113 366.018C230.496 366.018 280.504 359.405 288.514 363.665C296.524 367.905 284.276 377.824 273.427 381.597C262.577 385.37 222.486 376.871 208.331 375.938C194.176 374.984 146.541 368.391 113.507 357.072C80.4923 345.753 43.2196 302.808 38.9813 294.775C34.743 286.762 42.5301 278.06 42.5301 278.06" fill="white"/>
<path opacity="0.3" d="M79.0525 284.369C79.0525 284.369 113.446 300.476 125.735 309.401C138.024 318.347 165.846 344.292 180.954 352.325C196.042 360.338 209.73 366.018 220.113 366.018C230.496 366.018 280.504 359.405 288.514 363.665C296.524 367.905 284.276 377.824 273.426 381.597C262.577 385.37 222.486 376.871 208.331 375.938C194.176 374.984 146.541 368.391 113.506 357.072C80.4923 345.753 43.2195 302.808 38.9812 294.775C34.7429 286.762 45.1055 276.843 45.1055 276.843" fill="black"/>
<path opacity="0.3" d="M40.5022 279.236C40.5022 279.236 43.0776 292.077 63.0929 308.001C83.1286 323.925 164.244 356.281 184.787 361.413C205.33 366.545 220.742 366.545 222.263 367.58C223.804 368.614 225.852 376.303 217.132 376.83C208.412 377.337 170.916 374.781 137.537 367.073C104.158 359.364 70.7787 336.766 58.4491 324.96C46.1195 313.154 35.8583 299.786 34.8241 291.57C33.8304 283.354 40.5022 279.236 40.5022 279.236Z" fill="black"/>
<path d="M77.8764 284.551C77.8764 284.551 113.466 300.455 125.735 309.401C138.024 318.347 165.847 344.292 180.954 352.325C196.042 360.338 209.73 366.018 220.113 366.018C230.496 366.018 280.504 359.405 288.514 363.665C296.524 367.905 284.276 377.824 273.427 381.597C262.577 385.37 222.486 376.871 208.331 375.938C194.176 374.984 146.541 368.391 113.507 357.072C80.4923 345.753 43.2196 302.808 38.9813 294.775C34.743 286.762 42.5301 278.06 42.5301 278.06" stroke="#263238" stroke-miterlimit="10" stroke-linecap="round" stroke-linejoin="round"/>
<path d="M288.494 363.645C280.484 359.405 230.476 365.998 220.093 365.998C218.531 365.998 216.889 365.856 215.185 365.612C215.043 369.02 214.333 373.138 212.184 376.283C228.711 378.149 263.409 385.046 273.386 381.577C284.255 377.804 296.524 367.905 288.494 363.645Z" fill="white"/>
<path d="M288.494 363.645C280.484 359.405 230.476 365.998 220.093 365.998C218.531 365.998 216.889 365.856 215.185 365.612C215.043 369.02 214.333 373.138 212.184 376.283C228.711 378.149 263.409 385.046 273.386 381.577C284.255 377.804 296.524 367.905 288.494 363.645Z" fill="#C19FC2"/>
<path opacity="0.5" d="M288.494 363.645C280.484 359.405 230.476 365.998 220.093 365.998C218.531 365.998 216.889 365.856 215.185 365.612C215.043 369.02 214.333 373.138 212.184 376.283C228.711 378.149 263.409 385.046 273.386 381.577C284.255 377.804 296.524 367.905 288.494 363.645Z" fill="white"/>
<path d="M288.494 363.645C280.484 359.405 230.476 365.998 220.093 365.998C218.531 365.998 216.889 365.856 215.185 365.612C215.043 369.02 214.333 373.138 212.184 376.283C228.711 378.149 263.409 385.046 273.386 381.577C284.255 377.804 296.524 367.905 288.494 363.645Z" stroke="#263238" stroke-miterlimit="10" stroke-linecap="round" stroke-linejoin="round"/>
<path d="M175.499 93.2183C175.499 93.2183 165.684 104.112 146.804 120.827C127.925 137.542 129 177.87 134.82 189.128C140.64 200.387 154.429 201.117 156.254 210.57C158.08 220.023 162.419 237.103 171.139 244.731C179.859 252.358 198.009 257.45 201.659 227.285C205.289 197.121 193.527 171.784 185.172 157.239C176.817 142.715 180.224 94.6585 180.224 94.6585L175.499 93.2183Z" fill="#263238" stroke="#263238" stroke-miterlimit="10" stroke-linecap="round" stroke-linejoin="round"/>
<path d="M152.077 133.668C142.363 147.746 135.063 165.272 146.216 179.046C157.694 193.226 183.327 213.471 182.658 229.01C181.989 244.528 169.841 239.132 165.786 226.312" stroke="white" stroke-miterlimit="10" stroke-linecap="round" stroke-linejoin="round"/>
<path d="M176.574 95.3483C175.256 104.172 169.882 112.246 164.042 118.737C162.216 120.746 160.249 123.038 158.242 125.493" stroke="white" stroke-miterlimit="10" stroke-linecap="round" stroke-linejoin="round"/>
<path d="M194.237 209.414C195.231 211.97 195.9 214.668 196.164 217.528" stroke="white" stroke-miterlimit="10" stroke-linecap="round" stroke-linejoin="round"/>
<path d="M175.905 111.536C175.905 111.536 158.364 133.14 161.73 158.112C164.265 176.896 181.299 188.033 190.465 202.172" stroke="white" stroke-miterlimit="10" stroke-linecap="round" stroke-linejoin="round"/>
</svg>
