<svg width="214" height="254" viewBox="0 0 214 254" fill="none" xmlns="http://www.w3.org/2000/svg">
<rect width="214" height="254" fill="#F5F5F5"/>
<g clip-path="url(#clip0_0_1)">
<rect width="1600" height="5426" transform="translate(-704 -3841)" fill="white"/>
<rect width="1600" height="1180" transform="translate(-704 -392)" fill="#C9F2D4" fill-opacity="0.25"/>
<path opacity="0.5" d="M135.908 80.342C133.69 101.685 130.782 123.028 126.347 144.085C121.839 165.537 115.685 186.744 107.006 207.08C102.291 218.146 95.4916 237.434 82.0685 242.116C80.1299 244.212 77.1633 245.478 73.4771 244.757C27.6124 235.8 -4.46213 195.115 1.20671 151.789C3.85022 131.59 15.0998 114.643 25.5857 97.2204C30.8727 88.4001 35.4548 79.4981 38.3773 69.7522C41.4026 59.6796 43.2678 49.3075 46.9099 39.3847C53.1075 22.479 66.2222 5.20592 86.3422 1.44911C105.978 -2.22602 123.674 9.67053 131.399 25.8956C139.535 43.0067 137.788 62.2263 135.908 80.342Z" fill="#C19FC2" fill-opacity="0.28"/>
<path d="M108.694 221.24C106.856 219.877 104.98 218.462 102.885 217.445C101.695 216.87 100.372 216.411 99.0075 216.497C95.9557 216.69 93.2652 219.078 90.8127 220.531C89.0004 221.604 87.0339 222.874 84.8251 223.03C82.8366 223.172 80.7982 222.751 78.8082 222.687C74.7622 222.558 70.6912 222.634 66.6657 223.047C62.348 223.488 57.528 224.189 53.9197 226.603C53.6289 226.798 53.3968 227.22 53.6568 227.534C56.4574 230.937 61.6328 231.041 65.8507 230.973C68.1623 230.935 70.4768 230.764 72.7884 230.841C75.9444 230.945 79.1181 231.509 82.2125 232.062C85.6226 232.671 89.0063 233.4 92.3797 234.159C95.3756 234.833 98.2394 235.931 101.234 236.575C104.043 237.178 106.828 236.922 109.214 235.33C110.686 234.348 111.476 232.93 112.072 231.377C112.777 229.543 113.161 227.612 113.933 225.8C114.604 224.228 115.689 222.806 117.721 223.064C117.55 222.906 117.378 222.747 117.208 222.589C118.06 226.15 115.482 229.354 115.327 232.858C115.222 235.202 116.258 238.537 118.959 239.351C122.005 240.268 124.973 237.008 125.391 234.493C125.888 231.509 123.667 228.655 124.425 225.702C125.109 223.033 128.005 221.592 130.594 220.802C133.395 219.947 136.337 219.598 139.239 219.181C146.212 218.183 153.029 216.429 160.043 215.623C167.176 214.805 175.18 214.58 181.626 218C182.757 218.6 184.288 219.44 184.819 220.621C185.321 221.74 183.855 222.249 182.934 222.494C179.819 223.326 176.628 222.312 173.673 221.381C170.558 220.399 167.443 219.125 164.171 218.671C161.632 218.318 159 218.308 156.439 218.321C150.25 218.349 143.74 218.79 137.861 220.704C135.469 221.483 132.963 222.563 131.301 224.401C129.512 226.377 128.737 228.975 128.801 231.528C128.866 234.101 129.728 236.726 131.436 238.775C133.322 241.037 136.105 242.023 139.096 242.379C142.881 242.83 146.692 242.334 150.481 242.197C154.768 242.04 159.083 242.428 163.374 242.427C170.853 242.427 178.125 241.441 185.434 240.064C195.942 238.085 209.897 234.538 212.803 223.444C213.686 220.077 212.847 216.745 210.284 214.199C207.523 211.455 203.545 209.897 199.754 208.794C191.852 206.494 183.304 205.794 175.052 205.733C168.085 205.681 161.297 207.378 154.357 207.644C152.535 207.713 150.698 207.678 148.902 207.376C148.188 207.256 146.667 207.124 146.439 206.318C146.281 205.756 146.574 205.037 146.548 204.456C146.504 203.495 146.104 202.639 145.451 201.897C143.183 199.319 139.831 200.353 136.843 201.008C134.805 201.456 132.649 201.471 130.561 201.482C128.217 201.494 125.874 201.387 123.535 201.261C114.064 200.755 104.587 200.609 95.1039 200.449C92.785 200.409 90.4587 200.405 88.1413 200.313C86.3378 200.242 84.552 199.949 82.7544 199.802C81.0669 199.665 79.3722 199.637 77.7405 200.111C76.758 200.397 75.5156 200.714 74.887 201.542C74.4347 202.138 74.2952 202.863 73.8017 203.455C73.392 203.947 72.9558 204.338 72.7634 204.953C72.6019 205.469 72.6606 206.017 72.5137 206.534C72.1099 207.943 70.4283 208.304 69.0772 208.411C67.4984 208.538 65.9021 208.451 64.3233 208.365C58.5854 208.056 52.7639 208.656 47.0671 209.285C40.429 210.018 33.7923 211.067 27.3759 212.835C21.7335 214.39 15.9487 216.504 11.4621 220.138C9.15194 222.009 7.70683 224.472 7.66131 227.348C7.61431 230.326 8.87585 233.217 10.3327 235.817C11.9159 238.643 13.8809 241.266 15.793 243.904C17.3615 246.068 18.7346 248.483 20.6982 250.373C22.6059 252.21 25.1378 253.032 27.8121 253.391C32.0873 253.965 36.4535 253.908 40.7609 253.784C45.1667 253.658 49.5726 253.405 53.9828 253.454C58.722 253.505 63.4612 253.697 68.2004 253.817C77.579 254.054 86.9825 254.168 96.3434 253.475C100.78 253.146 105.115 252.661 109.405 251.528C113.664 250.402 117.86 249.099 122.335 249.052C129.34 248.978 136.077 251.127 143.041 251.445C146.441 251.6 149.86 251.577 153.26 251.439C157.154 251.281 161.18 251.039 164.95 250.056C166.998 249.521 170.381 248.333 169.709 245.779C169.36 244.451 168.11 243.418 167.001 242.608C164.224 240.58 161.127 239.604 157.642 239.2C153.486 238.718 149.488 238.554 145.781 236.541C142.436 234.724 139.535 232.353 135.968 230.879C132.297 229.362 128.198 228.064 124.143 228.882C120.972 229.522 119.036 231.418 117.581 233.986C116.964 235.074 116.375 236.202 115.481 237.124C114.187 238.455 112.444 239.194 110.52 239.299C106.848 239.498 103.311 238.104 99.6346 238.192C98.9943 238.207 98.6712 238.923 99.1147 239.355C101.598 241.761 104.356 246.71 99.9195 248.681C100.254 248.763 100.589 248.845 100.924 248.925C99.2851 246.916 97.8679 244.707 95.991 242.873C93.9056 240.837 91.2488 239.635 88.4658 238.621C82.6442 236.502 76.4159 235.233 70.8704 232.501C67.1592 230.672 63.5244 228.713 59.7809 226.94C55.773 225.041 51.5978 223.165 47.2052 222.17C44.0168 221.449 39.5581 221.065 37.831 224.317C37.6416 224.675 37.7561 225.015 38.0939 225.248C42.7758 228.461 48.521 225.097 53.0855 223.428C59.634 221.034 66.8141 220.271 73.718 219.256C78.6878 218.525 83.7251 217.607 88.1325 215.245C90.3192 214.071 92.3004 212.583 94.0906 210.936C95.1304 209.981 96.1731 208.99 96.975 207.848C97.7621 206.728 98.3319 205.49 98.8974 204.264C100.085 201.686 101.378 198.845 104.481 197.876C106.997 197.091 109.574 197.074 111.573 195.227C113.078 193.836 113.763 191.846 113.112 189.936C112.626 188.51 111.428 187.043 109.815 186.612C108.111 186.159 107.022 187.196 106.446 188.573C105.983 189.679 105.8 191.134 107.047 191.864C108.153 192.51 109.661 192.316 110.874 192.112C112.303 191.872 113.698 191.453 115.055 190.979C118.772 189.685 122.361 188.021 126.391 189.299C128.352 189.921 130.061 191.107 131.658 192.299C133.517 193.689 135.32 195.143 137.28 196.414C138.378 197.127 139.519 197.775 140.703 198.358C140.922 198.465 141.229 198.5 141.445 198.358C142.976 197.353 143.968 195.946 143.81 194.16C143.653 192.38 142.647 190.731 141.68 189.227C140.71 187.72 139.485 186.218 139.027 184.489C138.463 182.362 138.791 180.095 138.946 177.941C139.193 174.494 139.036 170.637 135.225 168.942C132.012 167.513 128.079 167.62 124.61 167.816C120.433 168.052 116.292 168.66 112.153 169.21C109.231 169.599 106.336 169.987 103.381 169.752C99.7169 169.459 96.0747 168.969 92.409 168.691C89.0885 168.441 85.439 168.117 82.1743 168.924C81.0655 169.198 79.9258 169.676 79.3501 170.647C78.4851 172.104 78.7377 174.117 78.8743 175.697C79.0329 177.521 79.4001 179.363 78.9448 181.171C78.35 183.532 76.9592 185.551 75.7124 187.648C74.6638 189.412 73.6005 191.37 73.2407 193.377C73.0733 194.309 73.1027 195.578 74.2849 195.904C75.3643 196.202 76.5847 195.449 77.4057 194.897C78.8567 193.918 80.1226 192.698 81.2417 191.404C82.6428 189.783 83.8338 187.995 84.9088 186.176C85.9824 184.356 87.1206 182.334 87.4349 180.253C87.7389 178.24 86.7901 176.236 86.4435 174.278C86.1204 172.451 86.8929 170.887 88.6097 169.914C91.7629 168.127 96.0644 168.706 99.5847 168.391C102.651 168.114 105.204 167.234 107.126 164.936C109.031 162.662 110.11 159.834 110.894 157.078C111.851 153.712 112.366 150.237 112.68 146.773C113.296 139.985 113.224 133.014 112.113 126.271C111.933 125.178 111.717 124.089 111.419 123.019C111.267 122.479 110.604 122.416 110.191 122.718C101.376 129.184 105.969 141.095 101.068 149.321C98.7887 153.147 94.2771 155.156 90.002 156.549C84.7914 158.246 79.2943 159.196 73.8267 159.843C68.4721 160.477 63.0618 160.825 57.6631 160.836C57.8996 161.002 58.1346 161.17 58.371 161.336C57.6132 157.04 60.3478 153.08 62.9869 149.789C65.9358 146.111 69.4209 142.737 71.8118 138.698C73.0013 136.689 73.8517 134.52 73.9691 132.214C73.9926 131.745 73.483 131.475 73.0395 131.558C70.0568 132.117 67.7393 134.172 66.1958 136.514C66.6187 136.742 67.0417 136.971 67.4647 137.201C68.1109 136.164 68.4721 134.985 68.8878 133.858C69.296 132.755 69.6881 131.407 70.7103 130.65C71.9997 129.694 73.7606 129.67 75.3232 129.471C76.8124 129.282 78.2237 128.924 79.4177 128.04C83.4138 125.084 84.2494 119.431 84.0321 115.005C83.9058 112.441 83.4167 109.84 82.2492 107.5C82.1053 107.212 81.7205 107.138 81.4194 107.187C75.5332 108.157 69.2608 108.27 64.2969 111.762C60.0761 114.734 57.0889 119.046 54.7582 123.391C50.4919 131.345 48.2802 140.055 44.1783 148.07C42.557 151.236 40.8519 154.367 39.3701 157.594C38.0175 160.541 36.7574 163.601 36.3462 166.801C36.0261 169.282 36.3741 171.939 38.2775 173.841C40.661 176.223 44.5734 176.711 47.8881 176.773C54.3294 176.892 60.0996 174.727 66.0181 172.648C72.43 170.397 79.1915 169.243 85.7092 167.296C88.5583 166.446 91.2709 165.199 94.1332 164.412C96.4051 163.786 98.7696 163.475 101.114 163.194C105.547 162.66 110.314 162.389 114.379 160.505C116.039 159.736 117.668 158.562 118.555 157.015C118.964 156.299 119.145 155.477 119.299 154.686C119.852 151.843 119.99 148.919 120.082 146.038C120.197 142.441 120.157 138.837 119.953 135.245C119.784 132.282 119.565 129.263 118.876 126.358C118.602 125.201 118.032 122.579 116.19 122.929C114.221 123.304 113.604 126.05 113.256 127.539C112.52 130.692 112.306 133.961 112.162 137.176C111.999 140.85 112.003 144.529 112.108 148.205C112.182 150.875 112.284 153.554 112.554 156.215C112.836 158.995 113.466 162.4 116.512 163.693C118.058 164.351 119.827 164.447 121.499 164.574C124.632 164.811 127.742 165.142 130.843 165.626C137.068 166.601 143.323 167.892 149.387 169.534C155.949 171.31 162.375 173.558 169.154 174.563C174.18 175.309 182.219 175.813 183.86 169.941C184.28 168.436 184.191 166.854 183.931 165.332C183.503 162.822 182.67 160.363 181.708 157.987C179.53 152.613 176.571 147.538 173.559 142.535C170.79 137.939 167.796 133.402 165.462 128.596C163.456 124.462 161.822 120.182 159.682 116.103C157.809 112.534 155.489 108.544 151.742 106.38C149.695 105.197 147.191 104.285 144.74 104.604C140.298 105.181 138.331 109.572 137.603 113.178C136.66 117.851 137.008 122.914 138.493 127.462C139.482 130.492 141.564 135.014 145.639 135.078C147.642 135.109 149.39 133.923 150.732 132.66C150.385 132.66 150.04 132.66 149.694 132.66C151.889 134.315 153.649 136.666 155.386 138.709C158.074 141.871 160.653 145.128 162.998 148.518C163.985 149.944 164.944 151.398 165.74 152.925C166.01 153.444 166.264 153.97 166.446 154.522C166.556 154.855 166.662 155.363 166.642 155.513C166.622 155.65 166.628 155.622 166.559 155.69C166.446 155.801 166.352 155.85 166.169 155.941C165.685 156.181 165.13 156.304 164.599 156.414C162.945 156.758 161.233 156.863 159.544 156.943C155.232 157.147 150.901 157.037 146.591 156.862C143.85 156.75 141.048 156.717 138.325 156.384C134.964 155.971 131.515 155.276 128.333 154.181C127.596 153.928 125.561 153.304 125.444 152.537C125.45 152.573 125.444 152.509 125.506 152.43C125.66 152.23 125.907 152.088 126.131 151.963C127.046 151.458 128.099 151.194 129.164 151.205C132.916 151.244 136.779 154.85 140.447 152.6C142.546 151.314 143.919 148.764 144.508 146.558C145.029 144.608 144.811 142.646 143.903 140.827C142.033 137.077 138.067 134.68 135.817 131.16C132.49 125.956 134.178 120.348 135.55 114.881C136.2 112.286 136.694 109.617 136.35 106.949C136.155 105.43 135.856 103.537 134.911 102.229C133.278 99.9678 131.511 102.898 130.913 104.251C129.599 107.226 128.847 110.432 128.104 113.562C127.375 116.634 126.745 119.722 126.123 122.815C125.735 124.742 125.31 126.746 124.224 128.454C123.033 130.327 121.066 131.505 118.89 132.218C113.545 133.971 107.436 134.002 102.078 132.299C96.9206 130.662 91.8275 127.018 89.6069 122.287C88.573 120.086 88.7801 117.521 88.9828 115.188C89.1854 112.858 89.557 110.491 89.2457 108.154C88.9754 106.131 88.0987 104.396 86.3275 103.147C86.0176 102.93 85.4948 103.098 85.323 103.391C84.8222 104.246 84.6606 104.951 84.5343 105.909C84.4609 106.462 85.1996 106.704 85.6387 106.497C90.3148 104.294 95.2611 101.843 98.6962 98.069C100.262 96.3498 101.463 94.3408 101.799 92.0894C102.19 89.476 101.347 86.9456 99.9665 84.6833C99.4995 83.917 98.2659 84.5949 98.6991 85.3707C102.631 92.4338 112.729 94.4551 120.455 92.397C123.959 91.4633 127.449 89.525 129.089 86.3889C130.067 84.5186 130.287 82.353 130.831 80.3535C131.18 79.0645 131.553 77.755 132.125 76.5341C132.63 75.4547 133.379 74.5005 134.072 73.5218C135.372 71.6897 136.463 69.7269 135.814 67.5096C135.157 65.2691 133.586 63.3022 132.235 61.3871C131.57 60.4451 130.897 59.4964 130.358 58.4851C129.778 57.3961 129.503 56.1861 129.03 55.0536C128.171 52.9969 127.048 51.03 125.488 49.353C123.011 46.6893 119.47 45.162 115.663 45.2614C111.66 45.3662 107.832 47.0119 104.637 49.1625C100.98 51.6221 97.9046 54.8195 95.5798 58.4061C94.8587 59.5182 94.2947 60.7283 93.4473 61.7668C92.644 62.7496 91.6101 63.5323 90.6952 64.4184C89.8772 65.2106 89.2868 65.8762 88.2088 66.3635C87.4451 66.7078 86.6653 67.0441 86.1542 67.7001C85.5154 68.5209 85.4831 69.5472 85.602 70.5177C85.7078 71.378 87.1778 71.3875 87.0706 70.5177C86.9605 69.6235 86.9194 68.6829 87.78 68.1098C88.4423 67.6688 89.2559 67.4592 89.9344 67.0373C90.8376 66.4751 91.4647 65.6148 92.2357 64.9138C93.1052 64.123 93.9893 63.3676 94.7162 62.4542C96.1276 60.6806 97.069 58.613 98.473 56.8177C99.7345 55.2047 101.171 53.7074 102.748 52.353C107.784 48.0286 115.983 44.2079 122.36 48.5023C123.989 49.5994 125.256 51.1021 126.243 52.7151C127.447 54.6847 127.935 56.8531 128.944 58.8839C129.932 60.8739 131.42 62.6271 132.649 64.4892C133.673 66.0382 135.096 68.1167 134.401 70.0046C133.602 72.177 131.802 73.8431 130.821 75.927C129.816 78.0627 129.281 80.3902 128.754 82.6579C128.372 84.2981 127.986 85.8077 126.854 87.1634C125.807 88.4184 124.395 89.3712 122.877 90.0817C116.271 93.1756 106.514 92.2732 101.548 86.8979C100.926 86.2228 100.41 85.4742 99.9724 84.6861C99.5494 84.9147 99.1265 85.1434 98.705 85.3734C99.9797 87.4628 100.787 89.8408 100.3 92.2528C99.8696 94.3816 98.5787 96.2409 96.9984 97.8008C93.6559 101.098 89.2045 103.297 84.903 105.325C85.2716 105.521 85.6402 105.717 86.0074 105.913C86.1013 105.203 86.2277 104.711 86.5963 104.083C86.2614 104.164 85.9266 104.246 85.5917 104.326C87.5861 105.732 87.9224 108.086 87.8945 110.258C87.8622 112.761 87.4055 115.241 87.3732 117.746C87.3423 120.151 87.8123 122.324 89.1781 124.387C90.6702 126.64 92.5941 128.63 94.8572 130.239C99.2484 133.361 104.759 134.909 110.27 134.902C115.143 134.897 121.439 133.985 124.68 130.235C127.447 127.032 127.618 122.439 128.477 118.58C129.104 115.764 129.718 112.945 130.481 110.156C130.913 108.58 131.379 107.006 131.976 105.476C132.336 104.558 132.791 103.481 133.469 102.819C133.568 102.723 133.507 102.706 133.602 102.866C133.871 103.32 134.121 103.813 134.288 104.348C135.065 106.816 135.16 109.346 134.717 111.878C133.75 117.376 131.249 122.707 132.95 128.328C133.649 130.636 134.937 132.618 136.588 134.443C138.071 136.083 139.762 137.564 141.155 139.274C142.446 140.861 143.418 142.667 143.335 144.7C143.239 147.027 141.837 150.088 139.71 151.426C137.973 152.519 135.931 151.704 134.187 151.063C132.226 150.34 130.208 149.631 128.06 149.918C126.739 150.095 124.557 150.735 124.072 152.085C123.683 153.172 124.716 154.009 125.611 154.512C128.572 156.173 132.408 156.792 135.762 157.367C138.305 157.802 140.847 157.945 143.426 158.078C147.698 158.3 151.982 158.449 156.261 158.398C158.273 158.374 160.291 158.313 162.293 158.113C163.732 157.97 165.258 157.812 166.593 157.258C169.044 156.241 167.871 153.878 166.973 152.174C165.205 148.816 162.817 145.708 160.457 142.691C158.08 139.651 155.605 136.655 152.941 133.827C152.249 133.092 151.552 132.317 150.732 131.699C150.427 131.469 149.995 131.415 149.694 131.699C148.539 132.787 146.961 133.892 145.317 133.701C143.922 133.539 142.762 132.463 141.962 131.349C139.499 127.923 138.728 123.387 138.594 119.352C138.469 115.571 138.807 110.788 141.584 107.759C144.711 104.351 150.005 106.32 152.916 108.988C156.144 111.946 158.131 116.038 159.921 119.839C161.697 123.608 163.18 127.507 165.171 131.186C170.357 140.773 177.161 149.716 180.903 159.934C181.677 162.046 182.4 164.268 182.624 166.497C182.755 167.785 182.721 169.156 182.168 170.364C181.212 172.45 178.86 173.298 176.583 173.551C173.443 173.899 170.204 173.428 167.132 172.84C163.706 172.184 160.338 171.279 156.999 170.318C154.32 169.548 151.665 168.693 148.959 168.008C142.668 166.414 136.262 165.037 129.816 164.103C127.095 163.708 124.365 163.431 121.62 163.225C120.085 163.109 118.367 163.062 116.969 162.392C114.41 161.168 114.165 157.866 113.961 155.496C113.432 149.352 113.36 143.128 113.645 136.972C113.786 133.922 113.984 130.821 114.694 127.832C114.918 126.883 115.177 125.886 115.7 125.034C115.848 124.793 116.09 124.488 116.228 124.392C116.356 124.303 116.468 124.278 116.488 124.265C116.556 124.22 116.503 124.293 116.452 124.239C116.466 124.255 116.427 124.177 116.528 124.307C116.568 124.357 116.628 124.417 116.725 124.579C116.901 124.876 117.013 125.171 117.126 125.506C117.469 126.523 117.668 127.584 117.837 128.637C118.329 131.68 118.502 134.775 118.605 137.849C118.718 141.21 118.709 144.578 118.539 147.939C118.415 150.374 118.308 152.902 117.672 155.28C116.948 157.986 113.842 159.485 111.041 160.256C106.716 161.447 102.147 161.605 97.7181 162.29C95.6561 162.608 93.6206 163.04 91.688 163.791C88.6376 164.978 85.5227 165.976 82.3461 166.829C79.2092 167.673 76.0384 168.407 72.878 169.177C69.813 169.926 66.8581 170.897 63.9033 171.953C58.3505 173.937 52.8755 175.699 46.8365 175.377C43.983 175.225 40.4789 174.638 38.7812 172.245C37.3405 170.215 37.5784 167.563 38.1012 165.298C38.815 162.204 40.1485 159.242 41.551 156.369C43.0211 153.357 44.638 150.41 46.1345 147.408C47.7955 144.076 49.0835 140.623 50.3906 137.16C52.1162 132.595 53.8771 128.019 56.2386 123.694C58.5223 119.515 61.4683 115.205 65.6994 112.496C70.4298 109.469 76.3483 109.402 81.8115 108.502C81.5354 108.397 81.2593 108.294 80.9818 108.189C82.9996 112.232 83.0995 117.491 81.8292 121.733C81.2021 123.828 80.0595 126.136 77.9858 127.324C75.4613 128.77 72.1451 127.821 69.744 129.626C67.5616 131.268 67.5308 134.375 66.1973 136.518C65.7229 137.279 66.9727 137.952 67.4661 137.205C68.8231 135.146 70.8087 133.367 73.4316 132.874C73.1217 132.655 72.8119 132.437 72.502 132.218C72.2788 136.636 69.0684 140.464 66.231 143.793C63.216 147.332 59.7868 150.807 57.9011 155.023C56.9435 157.161 56.5529 159.407 56.9567 161.702C57.0081 161.992 57.368 162.201 57.6646 162.201C62.467 162.192 67.2752 161.907 72.0467 161.407C77.6069 160.823 83.1818 159.968 88.5363 158.432C92.8643 157.192 97.6255 155.468 100.674 152.213C104.123 148.534 104.701 143.469 105.215 138.815C105.813 133.416 106.274 127.319 111.228 123.685C110.818 123.584 110.41 123.485 110 123.384C111.53 128.871 111.642 134.823 111.544 140.454C111.431 146.974 110.887 153.863 108.348 160.007C107.47 162.132 106.215 164.438 104.137 165.766C101.391 167.521 97.4435 167.111 94.2815 167.3C91.1005 167.491 87.5068 168.018 85.6769 170.74C84.6709 172.237 84.8016 173.752 85.1893 175.417C85.6637 177.455 86.3393 179.28 85.6446 181.341C84.9353 183.445 83.7442 185.42 82.5106 187.296C81.4958 188.838 80.4031 190.323 79.0799 191.654C78.0636 192.676 76.8946 193.783 75.52 194.389C74.6491 194.773 74.5243 194.657 74.655 193.744C74.9516 191.664 76.1956 189.623 77.2882 187.828C78.4014 185.999 79.5646 184.187 80.1887 182.151C80.7071 180.459 80.6572 178.912 80.4854 177.18C80.3165 175.475 79.92 173.503 80.4296 171.822C81.1022 169.602 85.276 169.832 87.1764 169.831C90.8362 169.827 94.4915 170.213 98.1219 170.593C100.836 170.877 103.619 171.331 106.359 171.196C109.752 171.029 113.127 170.438 116.485 170.001C120.432 169.488 124.434 169.01 128.427 169.104C131.21 169.169 135.127 169.42 136.717 171.92C137.795 173.615 137.622 175.786 137.494 177.671C137.359 179.662 137.109 181.669 137.381 183.66C137.86 187.187 140.831 189.634 142.02 192.908C142.64 194.613 142.348 196.104 140.701 197.186C140.948 197.186 141.196 197.186 141.443 197.186C137.453 195.226 134.319 192.297 130.665 189.902C127.311 187.704 123.599 186.931 119.589 187.931C116.744 188.641 114.352 189.951 111.47 190.605C110.516 190.821 108.882 191.266 107.941 190.78C107.041 190.315 107.804 188.641 108.317 188.148C109.327 187.179 110.858 188.762 111.325 189.525C112.372 191.24 111.858 193.164 110.316 194.458C108.371 196.092 105.659 195.912 103.36 196.825C100.88 197.811 99.4143 199.885 98.3305 202.081C97.185 204.402 96.2965 206.752 94.4049 208.666C92.7028 210.388 90.842 211.991 88.7419 213.29C84.903 215.665 80.4854 216.774 75.99 217.53C68.992 218.706 61.8957 219.37 55.0813 221.352C52.2822 222.166 49.6989 223.431 46.9467 224.353C44.24 225.261 41.3072 225.773 38.8341 224.076C38.9222 224.386 39.0103 224.696 39.0969 225.007C40.4686 222.423 44.1225 222.896 46.6265 223.444C50.8209 224.362 54.7949 226.124 58.6192 227.921C62.2716 229.636 65.8213 231.524 69.4209 233.329C74.1439 235.697 79.2914 237.063 84.3493 238.677C87.7579 239.766 91.4574 240.841 94.1773 243.136C96.3699 244.986 97.8781 247.439 99.6537 249.615C99.9092 249.928 100.263 250.034 100.658 249.859C106.06 247.459 103.28 241.426 100.15 238.394C99.9768 238.782 99.8035 239.168 99.6302 239.556C103.356 239.466 106.945 240.9 110.674 240.652C113.921 240.437 116.399 238.726 117.989 236.161C118.649 235.097 119.177 233.96 119.929 232.946C120.878 231.667 122.219 230.804 123.824 230.366C127.941 229.239 132.364 230.796 136.071 232.416C139.453 233.892 142.223 236.274 145.476 237.953C148.845 239.691 152.487 240.06 156.255 240.421C159.912 240.77 163.258 241.554 166.17 243.728C167.016 244.36 168.298 245.379 168.323 246.374C168.341 247.068 167.536 247.624 166.712 248.012C165.384 248.638 163.867 248.948 162.415 249.21C158.586 249.896 154.644 250.078 150.753 250.158C147.849 250.218 144.913 250.241 142.014 250.03C134.154 249.46 126.501 246.89 118.544 247.974C114.412 248.536 110.494 249.943 106.449 250.854C102.09 251.835 97.5095 252.084 93.0435 252.328C83.8735 252.829 74.68 252.637 65.5041 252.388C60.9705 252.265 56.4266 252.056 51.89 252.094C47.5899 252.131 43.2957 252.384 38.9971 252.471C34.9569 252.551 30.7024 252.645 26.7312 251.839C24.1362 251.313 22.1756 250.128 20.6012 248.153C18.7934 245.884 17.2073 243.435 15.5154 241.09C13.6459 238.496 11.7822 235.837 10.4884 232.945C9.32231 230.338 8.55128 227.325 9.68799 224.593C10.7425 222.057 13.3228 220.307 15.7284 218.913C20.9361 215.898 26.9633 214.18 32.9038 212.898C39.26 211.526 45.7453 210.691 52.241 210.151C55.0285 209.918 57.8232 209.732 60.6195 209.619C63.3555 209.509 66.0842 209.969 68.8231 209.794C71.5019 209.623 73.7283 208.654 74.0705 205.964C74.2159 204.818 75.2116 204.177 75.7021 203.153C76.0061 202.52 76.0854 202.188 76.8036 201.875C80.0727 200.447 83.7002 201.331 87.125 201.614C91.4853 201.975 95.944 201.829 100.32 201.901C104.982 201.979 109.642 202.066 114.3 202.214C118.785 202.357 123.262 202.684 127.747 202.812C129.969 202.876 132.195 202.866 134.414 202.707C136.094 202.587 137.65 202.199 139.286 201.853C140.978 201.495 142.796 201.245 144.098 202.531C144.771 203.195 145.116 203.94 145.075 204.848C145.046 205.49 144.853 206.14 145.047 206.777C145.276 207.528 145.974 207.969 146.717 208.245C149.744 209.37 153.5 209.125 156.673 208.863C163.01 208.343 169.234 207.019 175.622 207.102C179.374 207.15 183.128 207.372 186.857 207.774C191.27 208.251 195.694 208.987 199.922 210.275C203.46 211.353 207.208 212.879 209.651 215.588C212.088 218.288 212.099 221.722 210.766 224.89C208.664 229.887 203.868 233.013 198.722 235.068C193.26 237.249 187.358 238.386 181.533 239.378C178.032 239.975 174.54 240.559 170.986 240.815C166.511 241.138 162.017 241.098 157.533 240.972C155.49 240.915 153.44 240.779 151.397 240.81C149.625 240.837 147.857 240.979 146.088 241.078C142.499 241.281 138.44 241.518 135.137 239.948C130.283 237.642 128.979 230.726 131.483 226.537C132.775 224.374 135.128 223.116 137.55 222.254C140.356 221.255 143.339 220.692 146.309 220.309C151.897 219.589 157.773 219.374 163.391 219.941C166.495 220.254 169.488 221.469 172.41 222.415C175.155 223.303 178.199 224.37 181.16 224.175C183.096 224.048 186.662 223.271 186.388 220.858C186.114 218.44 182.626 216.832 180.562 215.978C174.12 213.312 166.734 213.482 159.874 214.281C153.094 215.07 146.498 216.708 139.767 217.733C134.726 218.5 128.024 218.766 124.486 222.71C122.464 224.965 122.679 227.578 123.395 230.261C123.771 231.67 124.254 233.182 123.87 234.634C123.482 236.096 121.864 238.07 120.092 238.145C118.728 238.203 117.813 236.93 117.353 235.9C116.74 234.524 116.657 233.001 116.969 231.551C117.649 228.384 119.418 225.543 118.624 222.225C118.574 222.019 118.346 221.779 118.111 221.749C114.275 221.259 112.798 224.33 111.871 227.235C111.35 228.871 110.964 230.587 110.162 232.134C109.137 234.11 107.029 235.354 104.66 235.524C101.749 235.733 98.9385 234.47 96.2245 233.685C93.0875 232.779 89.8155 232.168 86.6095 231.516C80.9818 230.372 75.2762 229.327 69.4943 229.503C66.8302 229.583 64.15 229.73 61.4889 229.489C59.1171 229.274 56.4457 228.693 54.9227 226.844C54.8346 227.155 54.7465 227.465 54.6598 227.775C57.7865 225.682 61.8883 224.966 65.6362 224.517C69.625 224.039 73.6681 223.93 77.6847 224.014C79.5513 224.054 81.393 224.24 83.2522 224.368C85.0733 224.494 86.7284 224.171 88.3703 223.429C90.3309 222.543 92.1491 221.355 93.954 220.226C95.1245 219.494 96.3111 218.666 97.63 218.175C98.8842 217.708 100.118 217.791 101.356 218.269C103.67 219.162 105.718 220.763 107.653 222.199C108.386 222.744 109.432 221.788 108.694 221.24Z" fill="#3C8C7F"/>
<path d="M86.3347 70.5202C87.9384 79.8156 88.5744 74.1341 95.9336 79.9381C97.6063 81.257 90.1575 63.0556 98.0234 51.7375C105.888 40.4209 125.835 39.7934 131.185 54.4898C134.26 47.7602 126.804 32.6268 111.538 32.6255C96.2714 32.6241 88.2659 38.7085 87.5977 57.3442" stroke="#3C8C7F" stroke-miterlimit="10" stroke-linecap="round" stroke-linejoin="round"/>
</g>
<defs>
<clipPath id="clip0_0_1">
<rect width="1600" height="5426" fill="white" transform="translate(-704 -3841)"/>
</clipPath>
</defs>
</svg>
