<svg width="30" height="30" viewBox="0 0 30 30" fill="none" xmlns="http://www.w3.org/2000/svg">
<g clip-path="url(#clip0_1_4)">
<path d="M29.4893 14.1517C27.6916 14.0889 25.9326 14.3531 24.2799 14.9178C24.247 13.1527 23.8924 11.4223 23.2221 9.76336C23.1126 9.49248 22.8046 9.36158 22.5332 9.47097C21.4863 9.89396 20.5058 10.4282 19.5993 11.067C18.5111 8.92072 17.0922 6.96486 15.3735 5.24683C15.1668 5.04023 14.8319 5.04023 14.6254 5.24689C12.9059 6.96632 11.4872 8.92189 10.3998 11.0662C9.49384 10.4278 8.51374 9.89379 7.46708 9.47097C7.19596 9.36152 6.88776 9.49242 6.77825 9.76336C6.10682 11.425 5.75204 13.1582 5.72011 14.9263C4.08997 14.3661 2.33327 14.0882 0.51071 14.1517C0.218621 14.162 -0.00983641 14.407 0.000358904 14.699C0.273816 22.5292 6.73032 28.7126 14.5052 28.7126C14.6693 28.7126 14.8348 28.7096 15.0001 28.7042C15.1657 28.7098 15.3305 28.7126 15.495 28.7126C23.2692 28.7126 29.7264 22.5288 29.9998 14.699C30.0099 14.407 29.7814 14.1619 29.4893 14.1517ZM7.56698 10.6641C9.05796 11.3353 10.3941 12.257 11.545 13.4091C12.7805 14.6439 13.7494 16.087 14.4292 17.7001C13.9757 18.8715 13.6782 20.0822 13.5396 21.3173C11.9797 18.6687 9.60575 16.564 6.77673 15.3361C6.75938 13.7408 7.02458 12.1731 7.56698 10.6641ZM1.08751 15.2011C4.48319 15.2156 7.70081 16.4885 10.1985 18.8177C12.6963 21.147 14.1907 24.2675 14.4418 27.6543C7.44176 27.6213 1.60858 22.1818 1.08751 15.2011ZM12.2933 12.6609C11.9615 12.3287 11.6151 12.0148 11.2554 11.7185C12.2246 9.76406 13.4816 7.97127 14.9996 6.37845C16.5168 7.97015 17.7737 9.76306 18.7436 11.7193C18.3843 12.0153 18.0382 12.3288 17.7066 12.6606C16.6031 13.7636 15.6962 15.0215 14.9999 16.4105C14.3043 15.0222 13.3975 13.7643 12.2933 12.6609ZM14.9979 24.7388C14.8603 24.2487 14.6979 23.7694 14.5118 23.3023C14.5083 23.1892 14.5066 23.0698 14.5066 22.9387C14.5066 21.2045 14.8376 19.5065 15.4904 17.8916C16.1742 16.1996 17.1715 14.6914 18.4549 13.4089C19.6063 12.2568 20.9426 11.3352 22.4335 10.6641C22.9746 12.1699 23.2397 13.734 23.2236 15.3256C21.7166 15.9776 20.3165 16.8905 19.0799 18.0436C17.1005 19.8894 15.7063 22.1963 14.9979 24.7388ZM15.5582 27.6542C15.8095 24.2675 17.3036 21.147 19.8015 18.8177C22.2994 16.4883 25.5165 15.2154 28.9126 15.201C28.3914 22.1822 22.5589 27.622 15.5582 27.6542Z" fill="black"/>
<path d="M0.825471 12.6057C1.11772 12.6057 1.35463 12.3688 1.35463 12.0765C1.35463 11.7843 1.11772 11.5474 0.825471 11.5474C0.533224 11.5474 0.29631 11.7843 0.29631 12.0765C0.29631 12.3688 0.533224 12.6057 0.825471 12.6057Z" fill="black"/>
<path d="M7.26902 6.73078C7.56127 6.73078 7.79818 6.49386 7.79818 6.20162C7.79818 5.90937 7.56127 5.67245 7.26902 5.67245C6.97677 5.67245 6.73986 5.90937 6.73986 6.20162C6.73986 6.49386 6.97677 6.73078 7.26902 6.73078Z" fill="black"/>
<path d="M14.9995 2.34567C15.2918 2.34567 15.5287 2.10876 15.5287 1.81651C15.5287 1.52427 15.2918 1.28735 14.9995 1.28735C14.7073 1.28735 14.4704 1.52427 14.4704 1.81651C14.4704 2.10876 14.7073 2.34567 14.9995 2.34567Z" fill="black"/>
<path d="M22.7314 6.73078C23.0236 6.73078 23.2605 6.49386 23.2605 6.20162C23.2605 5.90937 23.0236 5.67245 22.7314 5.67245C22.4391 5.67245 22.2022 5.90937 22.2022 6.20162C22.2022 6.49386 22.4391 6.73078 22.7314 6.73078Z" fill="black"/>
<path d="M29.1736 12.6057C29.4658 12.6057 29.7028 12.3688 29.7028 12.0765C29.7028 11.7843 29.4658 11.5474 29.1736 11.5474C28.8814 11.5474 28.6444 11.7843 28.6444 12.0765C28.6444 12.3688 28.8814 12.6057 29.1736 12.6057Z" fill="black"/>
</g>
<defs>
<clipPath id="clip0_1_4">
<rect width="30" height="30" fill="white"/>
</clipPath>
</defs>
</svg>
