<svg width="50" height="50" viewBox="0 0 50 50" fill="none" xmlns="http://www.w3.org/2000/svg">
<g id="&#208;&#154;&#208;&#189;&#208;&#190;&#208;&#191;&#208;&#186;&#208;&#176; &#208;&#178;&#208;&#190;&#208;&#183;&#208;&#178;&#209;&#128;&#208;&#176;&#209;&#130;&#208;&#176; &#208;&#178;&#208;&#178;&#208;&#181;&#209;&#128;&#209;&#133;">
<path id="Ellipse 1" d="M50 25C50 38.8071 38.8071 50 25 50C11.1929 50 0 38.8071 0 25C0 11.1929 11.1929 0 25 0C38.8071 0 50 11.1929 50 25Z" fill="#3C8C7F"/>
<path id="Arrow 1" d="M26.0607 10.9393C25.4749 10.3536 24.5251 10.3536 23.9393 10.9393L14.3934 20.4853C13.8076 21.0711 13.8076 22.0208 14.3934 22.6066C14.9792 23.1924 15.9289 23.1924 16.5147 22.6066L25 14.1213L33.4853 22.6066C34.0711 23.1924 35.0208 23.1924 35.6066 22.6066C36.1924 22.0208 36.1924 21.0711 35.6066 20.4853L26.0607 10.9393ZM26.5 37V12H23.5V37H26.5Z" fill="#C19FC2"/>
</g>
</svg>
