<svg width="155" height="37" viewBox="0 0 155 37" fill="none" xmlns="http://www.w3.org/2000/svg">
<path d="M49.5014 9.54545V27H47.456L37.9446 13.2955H37.7741V27H35.6605V9.54545H37.706L47.2514 23.2841H47.4219V9.54545H49.5014ZM54.4467 27H52.2308L58.6399 9.54545H60.8217L67.2308 27H65.0149L59.799 12.3068H59.6626L54.4467 27ZM55.2649 20.1818H64.1967V22.0568H55.2649V20.1818ZM69.9496 9.54545H72.4723L78.4041 24.0341H78.6087L84.5405 9.54545H87.0632V27H85.0859V13.7386H84.9155L79.4609 27H77.5518L72.0973 13.7386H71.9268V27H69.9496V9.54545ZM92.017 27H89.8011L96.2102 9.54545H98.392L104.801 27H102.585L97.3693 12.3068H97.233L92.017 27ZM92.8352 20.1818H101.767V22.0568H92.8352V20.1818ZM117.065 13.9091C116.963 13.0455 116.548 12.375 115.821 11.8977C115.094 11.4205 114.202 11.1818 113.145 11.1818C112.372 11.1818 111.696 11.3068 111.116 11.5568C110.543 11.8068 110.094 12.1506 109.77 12.5881C109.452 13.0256 109.293 13.5227 109.293 14.0795C109.293 14.5455 109.403 14.946 109.625 15.2812C109.852 15.6108 110.142 15.8864 110.494 16.108C110.847 16.3239 111.216 16.5028 111.602 16.6449C111.989 16.7812 112.344 16.892 112.668 16.9773L114.44 17.4545C114.895 17.5739 115.401 17.7386 115.957 17.9489C116.52 18.1591 117.057 18.446 117.568 18.8097C118.085 19.1676 118.511 19.6278 118.847 20.1903C119.182 20.7528 119.349 21.4432 119.349 22.2614C119.349 23.2045 119.102 24.0568 118.608 24.8182C118.119 25.5795 117.403 26.1847 116.46 26.6335C115.523 27.0824 114.384 27.3068 113.043 27.3068C111.793 27.3068 110.71 27.1051 109.795 26.7017C108.886 26.2983 108.17 25.7358 107.648 25.0142C107.131 24.2926 106.838 23.4545 106.77 22.5H108.952C109.009 23.1591 109.23 23.7045 109.616 24.1364C110.009 24.5625 110.503 24.8807 111.099 25.0909C111.702 25.2955 112.349 25.3977 113.043 25.3977C113.849 25.3977 114.574 25.267 115.216 25.0057C115.858 24.7386 116.366 24.3693 116.741 23.8977C117.116 23.4205 117.304 22.8636 117.304 22.2273C117.304 21.6477 117.142 21.1761 116.818 20.8125C116.494 20.4489 116.068 20.1534 115.54 19.9261C115.011 19.6989 114.44 19.5 113.827 19.3295L111.679 18.7159C110.315 18.3239 109.236 17.7642 108.44 17.0369C107.645 16.3097 107.247 15.358 107.247 14.1818C107.247 13.2045 107.511 12.3523 108.04 11.625C108.574 10.892 109.29 10.3239 110.188 9.92045C111.091 9.51136 112.099 9.30682 113.213 9.30682C114.338 9.30682 115.338 9.50852 116.213 9.91193C117.088 10.3097 117.781 10.8551 118.293 11.5483C118.81 12.2415 119.082 13.0284 119.111 13.9091H117.065ZM121.87 11.4205V9.54545H134.961V11.4205H129.472V27H127.359V11.4205H121.87ZM138.223 27V9.54545H148.757V11.4205H140.337V17.3182H148.212V19.1932H140.337V25.125H148.893V27H138.223Z" fill="white"/>
<g clip-path="url(#clip0_28_32)">
<path d="M29.4893 15.1516C27.6916 15.0888 25.9326 15.353 24.2799 15.9177C24.2471 14.1526 23.8925 12.4222 23.2221 10.7633C23.1126 10.4924 22.8047 10.3615 22.5333 10.4709C21.4863 10.8939 20.5058 11.4281 19.5993 12.0669C18.5111 9.92063 17.0922 7.96477 15.3736 6.24674C15.1669 6.04014 14.8319 6.04014 14.6254 6.2468C12.906 7.96623 11.4872 9.9218 10.3998 12.0661C9.49387 11.4277 8.51377 10.8937 7.46711 10.4709C7.19599 10.3614 6.88779 10.4923 6.77828 10.7633C6.10685 12.4249 5.75207 14.1581 5.72014 15.9263C4.09 15.366 2.3333 15.0881 0.510741 15.1516C0.218651 15.1619 -0.00980589 15.4069 0.000389422 15.6989C0.273846 23.5291 6.73035 29.7125 14.5052 29.7125C14.6693 29.7125 14.8349 29.7096 15.0001 29.7041C15.1657 29.7097 15.3305 29.7125 15.495 29.7125C23.2692 29.7125 29.7264 23.5287 29.9998 15.6989C30.0099 15.4069 29.7814 15.1618 29.4893 15.1516ZM7.56701 11.664C9.05799 12.3352 10.3942 13.2569 11.545 14.409C12.7805 15.6438 13.7495 17.0869 14.4292 18.7C13.9758 19.8714 13.6783 21.0821 13.5396 22.3172C11.9798 19.6686 9.60578 17.5639 6.77676 16.336C6.75941 14.7407 7.02461 13.173 7.56701 11.664ZM1.08754 16.201C4.48322 16.2155 7.70084 17.4884 10.1985 19.8176C12.6964 22.1469 14.1907 25.2674 14.4419 28.6542C7.4418 28.6212 1.60861 23.1817 1.08754 16.201ZM12.2934 13.6608C11.9615 13.3286 11.6151 13.0147 11.2554 12.7184C12.2246 10.764 13.4816 8.97117 14.9996 7.37836C16.5169 8.97006 17.7737 10.763 18.7437 12.7192C18.3843 13.0152 18.0382 13.3287 17.7066 13.6605C16.6031 14.7635 15.6962 16.0214 15 17.4104C14.3043 16.0221 13.3975 14.7642 12.2934 13.6608ZM14.9979 25.7387C14.8604 25.2486 14.6979 24.7693 14.5118 24.3022C14.5084 24.1891 14.5066 24.0697 14.5066 23.9387C14.5066 22.2045 14.8377 20.5064 15.4905 18.8915C16.1743 17.1995 17.1716 15.6913 18.455 14.4088C19.6063 13.2567 20.9427 12.3351 22.4335 11.664C22.9746 13.1698 23.2397 14.7339 23.2237 16.3255C21.7166 16.9775 20.3165 17.8904 19.08 19.0436C17.1006 20.8893 15.7063 23.1962 14.9979 25.7387ZM15.5583 28.6541C15.8095 25.2674 17.3037 22.1469 19.8016 19.8176C22.2995 17.4882 25.5166 16.2153 28.9126 16.2009C28.3914 23.1822 22.5589 28.6219 15.5583 28.6541Z" fill="white"/>
<path d="M0.825486 13.6057C1.11773 13.6057 1.35465 13.3688 1.35465 13.0765C1.35465 12.7843 1.11773 12.5474 0.825486 12.5474C0.533239 12.5474 0.296326 12.7843 0.296326 13.0765C0.296326 13.3688 0.533239 13.6057 0.825486 13.6057Z" fill="white"/>
<path d="M7.26903 7.73068C7.56128 7.73068 7.79819 7.49377 7.79819 7.20152C7.79819 6.90928 7.56128 6.67236 7.26903 6.67236C6.97678 6.67236 6.73987 6.90928 6.73987 7.20152C6.73987 7.49377 6.97678 7.73068 7.26903 7.73068Z" fill="white"/>
<path d="M14.9996 3.34592C15.2918 3.34592 15.5287 3.109 15.5287 2.81676C15.5287 2.52451 15.2918 2.2876 14.9996 2.2876C14.7073 2.2876 14.4704 2.52451 14.4704 2.81676C14.4704 3.109 14.7073 3.34592 14.9996 3.34592Z" fill="white"/>
<path d="M22.7314 7.73068C23.0236 7.73068 23.2605 7.49377 23.2605 7.20152C23.2605 6.90928 23.0236 6.67236 22.7314 6.67236C22.4391 6.67236 22.2022 6.90928 22.2022 7.20152C22.2022 7.49377 22.4391 7.73068 22.7314 7.73068Z" fill="white"/>
<path d="M29.1736 13.6057C29.4658 13.6057 29.7027 13.3688 29.7027 13.0765C29.7027 12.7843 29.4658 12.5474 29.1736 12.5474C28.8813 12.5474 28.6444 12.7843 28.6444 13.0765C28.6444 13.3688 28.8813 13.6057 29.1736 13.6057Z" fill="white"/>
</g>
<defs>
<clipPath id="clip0_28_32">
<rect width="30" height="30" fill="white" transform="translate(0 1)"/>
</clipPath>
</defs>
</svg>
