<svg width="112" height="274" viewBox="0 0 112 274" fill="none" xmlns="http://www.w3.org/2000/svg">
<path opacity="0.5" d="M104.367 132.865C103.708 136.514 104.399 140.048 105.13 143.645C106.649 151.141 106.335 158.075 102.775 165.199C99.7374 171.274 95.2932 176.856 89.8929 181.773C79.5662 191.183 64.3611 198.129 48.2566 196.56C31.4367 194.928 18.5863 185.223 13.8534 172.49C9.1525 159.835 11.2656 146.263 5.52741 133.773C2.32898 126.802 -0.427834 120.535 0.97088 112.988C2.32147 105.709 6.1305 98.4495 10.502 92.0091C16.7866 82.7398 26.3734 74.4882 38.517 70.3392C39.0634 70.1028 39.6098 69.872 40.1648 69.6542C56.527 63.1563 77.3002 63.1434 92.16 72.2339C103.982 79.4677 110.089 90.9775 111.158 102.616C111.753 109.069 110.411 115.394 108.12 121.565C106.73 125.285 105.059 129.011 104.367 132.865Z" fill="#C19FC2" fill-opacity="0.28"/>
<path d="M68.359 26.1541C73.0807 22.349 72.037 17.3031 72.1508 12.4947C72.2008 10.3694 72.3548 8.23992 72.1341 6.11678C71.9606 4.44753 71.6553 2.58739 70.1467 1.2872C69.8955 1.07191 69.4208 1.09524 69.1654 1.2872C65.6831 3.9003 67.3847 8.5655 66.7518 11.886C65.815 16.8036 62.155 21.0806 59.5083 25.538C53.661 35.3891 49.5833 45.6814 46.355 56.1985C43.1073 66.7803 40.2398 77.343 41.4779 88.2652C42.0844 93.6187 43.3946 98.9107 45.0004 104.138C46.4355 108.807 48.8213 113.271 50.1787 117.953C50.9129 120.487 51.2932 123.083 51.0739 125.678C50.8477 128.349 49.8622 130.915 48.9101 133.477C48.1301 135.575 47.6041 137.705 46.906 139.816C46.3259 141.569 45.643 143.35 45.5112 145.166C45.4279 146.32 45.6957 147.868 47.0698 148.572C48.4688 149.289 50.6076 148.575 52.1357 148.581C55.4486 148.594 58.638 149.517 61.9288 149.722C65.1085 149.919 68.3965 149.47 71.5346 149.108C74.699 148.743 77.8829 148.161 81.0835 148.04C83.1973 147.96 85.3624 148.028 87.4332 147.637C91.9786 146.777 92.9404 143.459 92.1021 140.296C91.0487 136.322 87.7482 132.863 87.0806 128.82C86.6309 126.097 87.522 122.335 85.1556 120.019C82.445 117.368 76.6685 118.487 73.0085 118.925C67.5568 119.577 60.3174 120.65 56.2147 116.99C54.4174 115.387 53.2405 113.346 52.2412 111.4C51.228 109.43 50.0094 107.269 50.0552 105.122C50.1037 102.898 51.6332 100.942 52.8615 98.9934C54.144 96.9593 55.0073 94.885 55.6499 92.6812C56.3535 90.2664 56.9129 87.8028 58.2897 85.5439C57.89 85.5439 57.4903 85.5439 57.0919 85.5439C59.5485 89.6566 54.3397 93.7566 54.8837 97.9488C55.3112 101.247 58.8088 103.09 62.7519 103.807C69.3306 105.002 82.6532 105.331 84.1993 98.5978C85.1737 94.3557 80.5366 89.909 82.8406 85.8165C82.5241 85.8801 82.2076 85.9438 81.8912 86.0063C84.3339 86.8293 84.6643 89.6831 85.0002 91.4425C85.4429 93.7587 85.8023 95.9296 86.8447 98.1513C88.8821 102.497 93.0265 108.64 87.515 112.493C83.7885 115.097 77.9426 115.546 73.139 115.825C68.6852 116.084 62.9198 116.827 59.2487 114.389C57.4764 113.212 56.4632 111.496 55.6665 109.846C54.4563 107.34 53.4792 104.714 52.7241 102.108C51.8525 99.0941 51.5972 96.0526 52.4396 93.0174C53.2641 90.0437 54.9434 87.3447 55.1253 84.2639C55.3098 81.146 54.6561 78.0238 54.6297 74.9049C54.5992 71.3193 54.9698 67.7411 55.0975 64.1587C55.2265 60.5646 55.2807 57.0246 55.9455 53.4549C56.57 50.1026 57.5083 46.7875 58.638 43.5147C59.8969 39.8729 61.3945 36.2831 63.0156 32.7272C64.6269 29.1925 66.6047 25.8148 68.5367 22.3808C70.402 19.0646 71.758 15.7155 72.5145 12.149C73.2653 8.61217 73.6983 5.01596 75.1265 1.58626C74.7032 1.62868 74.2812 1.67111 73.8579 1.71353C77.2417 7.42334 74.7504 14.1438 76.86 20.1177C79.0099 26.205 83.8898 31.4079 87.2569 37.0986C91.2055 43.7756 91.8676 51.056 93.5955 58.1679C95.2291 64.8873 98.4657 71.5749 98.7683 78.4449C99.0181 84.1165 97.8675 91.3397 92.3436 95.5499C92.624 95.5223 92.9043 95.4947 93.1847 95.4672C91.379 94.5466 90.3769 92.6642 89.5831 91.1912C88.6018 89.3713 87.8482 87.4709 87.2486 85.5577C85.7524 80.7801 86.946 76.1976 87.2805 71.3765C87.615 66.5406 86.9155 61.588 86.0549 56.8019C85.1223 51.6086 83.7455 46.4608 81.9315 41.4054C80.037 36.1304 77.6539 30.9508 74.6102 25.9972C74.3521 25.5772 73.4818 25.7055 73.3417 26.1234C72.2063 29.5266 73.5984 33.2829 74.749 36.5747C76.2438 40.8497 77.5054 45.1278 78.6005 49.4748C79.2514 52.0561 79.8871 54.6406 80.5963 57.2144C81.2555 59.607 82.0133 61.9762 82.1313 64.4313C82.3242 68.4686 80.5727 72.1284 78.3132 75.7151C77.0724 77.6855 75.8038 79.603 75.5623 81.8194C75.4527 82.8259 75.4999 83.8503 75.8399 84.8291C76.3021 86.1569 77.4027 87.5313 75.5609 88.5558C75.8774 88.6194 76.1938 88.683 76.5103 88.7456C74.8434 86.6744 75.3763 83.932 72.731 82.3264C69.4846 80.3559 64.7643 80.5033 61.9024 78.061C60.0177 76.4522 59.3709 74.048 58.9878 71.9747C58.5007 69.3382 58.5117 66.5936 59.0822 63.9657C59.5541 61.7895 60.3938 59.187 62.6505 57.662C65.5485 55.7043 70.0037 56.4901 73.0321 57.8285C74.5977 58.5199 76.0412 59.4394 77.0974 60.5699C78.13 61.6739 79.3097 63.6507 78.9433 65.0463C78.6018 66.3508 76.7282 65.1651 75.926 64.6677C74.563 63.8225 73.3638 62.8436 71.7941 62.2073C70.4853 61.676 69.0502 61.4363 67.6082 61.2136C65.7692 60.9294 63.3028 60.7661 61.8747 59.7162C59.629 58.066 63.6123 55.0913 64.9253 53.8643C66.9905 51.9341 69.0433 48.1842 72.978 49.6222C74.8989 50.3243 76.538 51.7464 77.132 53.3202C77.8357 55.1814 76.3631 56.0277 74.1716 56.3003C70.6782 56.7351 67.5332 56.5134 65.0475 58.7458C62.1925 61.3091 61.4416 64.9456 61.8872 68.2024C62.4423 72.2589 64.2688 76.0492 63.4208 80.1777C62.6505 83.9309 60.8837 87.4677 60.781 91.3068C60.6811 94.9963 61.8705 98.5618 63.1946 102.079C64.8365 106.44 66.3008 110.757 67.0419 115.268C67.7428 119.539 68.1286 123.883 68.0759 128.188C68.0329 131.677 67.7164 135.602 70.4867 138.597C70.7074 138.836 71.0835 138.937 71.436 138.787C73.1751 138.053 74.1591 135.486 72.2993 134.444C71.4027 133.943 70.2396 134.269 69.5873 134.883C68.6838 135.734 68.8934 136.959 69.1085 137.96C69.4027 139.335 69.5998 140.666 69.665 142.062C69.7192 143.231 69.8691 144.616 69.2986 145.728C67.9759 148.313 61.4055 143.254 59.7206 142.429C56.4312 140.819 52.9268 140.578 49.9331 142.722C48.3758 143.836 47.3127 145.306 46.2467 146.698C44.913 148.439 43.4126 150.048 41.7984 151.643C37.507 155.88 32.8047 159.608 27.4529 163.035C22.6841 166.088 17.9304 169.163 13.5196 172.521C9.18379 175.822 4.78413 179.488 2.22342 183.792C0.302543 187.019 -0.399749 191.018 2.85075 193.923C5.25046 196.068 9.33093 196.209 12.7452 196.296C16.7854 196.399 20.5147 196.583 24.3287 195.347C28.8173 193.892 32.9019 191.641 37.0948 189.76C41.9442 187.584 46.9268 185.522 52.2439 184.09C56.1689 183.034 60.3937 182.732 63.5013 185.232C67.275 188.267 67.4374 192.478 68.0606 196.389C68.3326 198.092 68.7365 199.759 69.6026 201.351C69.7844 201.685 70.1786 201.828 70.6213 201.668C75.1765 200.022 75.0627 195.786 74.6366 192.496C74.3881 190.58 73.9176 188.665 73.8829 186.737C73.8371 184.217 75.4415 182.036 76.7226 179.789C77.8246 177.856 78.7628 175.778 78.1313 173.654C77.5942 171.847 76.019 170.18 73.6234 169.652C68.6838 168.562 64.3771 171.593 59.7193 172.077C57.8386 172.272 54.7102 171.908 53.153 172.904C50.5729 174.555 53.7498 177.575 51.6166 179.303C51.9802 179.339 52.3425 179.374 52.7061 179.41C51.7276 178.392 51.2835 177.341 51.2446 176.08C51.221 175.347 51.3668 174.573 51.1391 173.852C50.627 172.22 48.305 171.982 46.4202 172.01C40.3314 172.098 34.3925 174.562 28.7381 176.051C25.1559 176.995 20.3982 178.409 18.3593 181.017C16.6189 183.243 18.7979 185.847 22.0887 184.561C25.6278 183.178 28.165 180.407 30.7631 178.198C35.4043 174.253 41.5958 171.521 47.9858 169.574C51.2613 168.576 54.62 167.748 57.9857 166.945C60.5742 166.326 63.0627 165.495 65.654 164.894C68.3257 164.274 71.7414 163.773 72.5394 166.411C73.1571 168.454 72.8198 170.697 72.563 172.76C71.7955 178.907 71.0669 185.068 70.8351 191.243C70.5866 197.866 70.4756 204.448 69.7442 211.056C69.0488 217.345 68.0634 223.608 67.4527 229.903C66.849 236.115 66.2827 242.388 64.2786 248.447C61.9982 255.342 58.1467 262.361 58.5923 269.601C58.6644 270.762 58.8435 272.116 59.7942 273.074C60.4826 273.767 61.5458 273.649 62.6033 273.695C64.7241 273.786 66.849 273.841 68.9725 273.885C70.5408 273.917 72.341 274.114 73.8982 273.907C75.3028 273.719 76.0189 272.534 76.1619 271.53C76.4075 269.813 75.4055 268.06 74.4561 266.549C73.4776 264.99 72.2174 263.544 71.2417 261.985C70.6574 261.053 69.9288 259.996 69.7164 258.961C69.5471 258.137 69.9996 257.429 70.4048 256.683C71.257 255.117 77.8468 244.771 72.6962 245.107C70.8059 245.23 69.0044 246.488 67.5998 247.337C67.4208 247.445 67.3486 247.693 67.4208 247.852C68.0162 249.147 69.3056 250.393 71.1404 249.383C73.214 248.241 74.327 245.853 75.2805 244.136C78.5505 238.248 80.8461 231.997 82.8849 225.802C83.4568 224.063 84.1813 222.256 84.3978 220.461C84.7142 217.845 84.6227 215.183 84.8877 212.557C85.1986 209.462 85.658 206.375 86.2659 203.305C88.1535 193.767 91.7274 184.551 94.5254 175.166C97.2388 166.06 98.2353 156.937 94.8321 147.848C94.5865 147.193 93.2471 147.472 93.4942 148.13C95.5372 153.585 96.1451 159.205 95.4401 164.849C94.7364 170.483 92.9016 175.995 91.0792 181.466C88.9474 187.865 86.8322 194.267 85.3971 200.784C84.5713 204.533 83.9481 208.309 83.5484 212.098C83.3221 214.24 83.1695 216.386 83.0834 218.533C83.0529 219.305 83.0904 220.098 82.9391 220.823C82.2743 224.022 81.0224 227.197 79.8787 230.308C78.3132 234.568 76.6171 238.827 74.445 242.934C74.0189 243.74 71.2986 249.307 69.5651 248.659C69.3667 248.585 69.2265 248.35 69.1224 248.215C68.6324 247.582 69.2459 247.677 69.9634 247.291C70.5075 246.999 72.359 245.846 73.114 246.164C74.2147 246.627 72.5741 249.623 72.2896 250.234C71.6053 251.702 70.7615 253.119 70.0231 254.57C69.4291 255.736 68.4104 257.032 68.2882 258.304C68.1744 259.48 68.9683 260.636 69.561 261.685C70.9475 264.134 73.0835 266.305 74.223 268.844C74.7046 269.918 75.386 271.695 74.1466 272.638C73.6761 272.995 72.5922 272.874 71.7317 272.868C68.7352 272.845 65.7331 272.769 62.7408 272.643C62.2841 272.624 61.747 272.654 61.3029 272.572C60.8018 272.48 61.0725 272.64 60.7671 272.279C60.1037 271.494 60.0232 270.383 59.9788 269.48C59.7192 264.228 61.797 258.772 63.6901 253.771C64.7588 250.947 65.8996 248.166 66.6103 245.268C67.6373 241.08 68.1494 236.827 68.5825 232.583C69.4985 223.577 70.9281 214.601 71.6706 205.586C72.0578 200.893 72.055 196.209 72.2202 191.512C72.3868 186.795 72.8628 182.091 73.4027 177.393C73.7705 174.201 74.5103 170.878 74.1688 167.669C73.9162 165.292 72.7449 163.302 69.2431 163.32C65.5665 163.338 62.1439 164.851 58.7061 165.668C54.0496 166.774 49.3918 167.906 44.9296 169.421C40.4397 170.946 36.2149 172.901 32.5341 175.398C30.2024 176.979 28.3148 178.833 26.1774 180.556C25.2184 181.33 21.0797 184.978 19.5002 183.647C17.0908 181.617 23.2503 179.074 24.9006 178.439C27.8332 177.31 30.9963 176.616 34.0539 175.719C36.3884 175.035 38.7256 174.339 41.1295 173.806C43.3626 173.312 46.0052 172.774 48.3328 173.188C50.2759 173.533 49.8275 174.888 49.8622 176.084C49.9039 177.52 50.3938 178.783 51.5139 179.949C51.7679 180.213 52.2703 180.326 52.6034 180.056C54.1856 178.775 53.679 177.267 53.5236 175.669C53.4306 174.715 53.4958 173.862 54.7658 173.522C55.8012 173.244 57.1446 173.306 58.2328 173.24C62.502 172.984 66.062 171.081 70.2618 170.599C73.1903 170.264 75.5984 171.151 76.5935 173.374C77.6053 175.63 76.3118 177.943 75.0988 179.986C74.0356 181.777 72.8323 183.587 72.5602 185.571C72.3479 187.123 72.6657 188.705 72.9114 190.245C73.443 193.58 74.8864 198.96 69.9232 200.753C70.2632 200.859 70.6033 200.964 70.9419 201.07C67.8275 195.341 70.5422 187.433 62.8254 183.403C60.1689 182.016 56.924 181.98 53.9011 182.58C49.2668 183.5 44.7866 185.265 40.609 187.011C36.2926 188.815 32.1413 190.833 27.8971 192.732C23.8777 194.531 20.165 195.543 15.4503 195.324C12.0582 195.167 7.94578 195.525 4.99646 193.979C2.83825 192.849 1.88751 190.672 1.94302 188.745C2.05961 184.71 5.64739 180.939 8.86736 177.956C12.8146 174.298 17.3836 171.045 22.0498 167.932C25.6514 165.529 29.4349 163.279 32.9713 160.819C35.9068 158.779 38.5285 156.445 41.0212 154.092C42.4966 152.7 43.9539 151.285 45.3168 149.827C46.5798 148.475 47.568 146.993 48.7339 145.593C50.1301 143.919 52.1273 142.041 55.0017 142.146C57.4306 142.235 59.5957 143.59 61.4347 144.675C63.264 145.755 67.1987 148.83 69.7331 147.149C71.7886 145.785 71.103 142.547 70.9725 140.745C70.8739 139.385 70.2771 138.005 70.3146 136.653C70.341 135.694 71.6636 134.602 71.8538 136.055C71.9482 136.777 71.5887 137.511 70.7407 137.87C71.0571 137.933 71.3736 137.997 71.69 138.06C68.6616 134.785 69.5499 130.381 69.4694 126.604C69.375 122.189 68.942 117.753 68.1009 113.385C67.2404 108.914 65.5596 104.658 63.9913 100.316C62.5673 96.3739 61.7081 92.4097 62.5048 88.3246C63.3708 83.8896 65.6748 79.8066 64.8934 75.2389C64.1203 70.719 61.9177 66.2627 64.2827 61.7852C65.2515 59.9527 66.9225 58.2283 69.5554 57.7914C71.5207 57.4658 73.5804 57.5644 75.5276 57.1667C79.3361 56.3904 79.2472 53.4751 77.3861 51.283C75.5998 49.1779 71.6359 47.0653 68.502 48.8491C67.0988 49.6477 66.2119 50.8821 65.1807 51.9331C64.0607 53.0753 62.7962 54.1315 61.7012 55.2896C60.248 56.8263 58.738 59.0014 61.0156 60.5413C63.9496 62.5234 68.5145 61.8436 71.7511 63.4142C73.4055 64.217 77.0502 67.81 79.4901 66.477C81.8773 65.1725 79.411 61.1999 78.1702 59.9007C74.359 55.9068 64.8018 53.1675 60.3841 58.0618C58.4743 60.1765 57.7789 62.8861 57.4514 65.3953C57.0836 68.2067 57.2418 71.1072 58.0315 73.8709C58.7338 76.327 59.9927 78.6198 62.8448 80.0431C66.2716 81.7537 72.4201 81.7059 73.5359 85.2735C73.9842 86.7041 74.2854 88.0022 75.3153 89.2812C75.4971 89.5071 75.9551 89.6439 76.2646 89.471C78.0397 88.4837 78.2701 87.3161 77.6747 85.7571C76.8114 83.4971 76.6768 81.4472 77.7511 79.1925C79.5831 75.3482 82.5158 72.015 83.2861 67.8769C84.1257 63.3665 82.463 59.0035 81.318 54.6172C80.0203 49.6498 78.9919 44.6145 77.3083 39.7117C75.8927 35.5884 73.25 30.7058 74.6837 26.4076C74.2604 26.45 73.8385 26.4924 73.4152 26.5338C79.2208 35.983 82.7462 46.3166 84.6379 56.6322C85.5831 61.7884 86.3353 67.1578 85.8107 72.3649C85.5192 75.2495 84.8725 78.1278 84.9835 81.0294C85.0501 82.7686 85.4693 84.4739 86.0147 86.159C86.6865 88.2281 87.5386 90.276 88.6642 92.2284C89.54 93.747 90.624 95.4353 92.4865 96.3845C92.7405 96.5139 93.1195 96.4609 93.3277 96.3018C98.1271 92.6441 99.6496 86.9046 100.08 81.9244C100.656 75.2644 98.1132 68.8472 96.1868 62.4205C93.9619 55.0011 93.5067 47.2212 90.2562 39.9938C87.4359 33.7241 82.1008 28.3441 79.1501 22.121C77.479 18.5958 77.1418 15.0813 77.0779 11.3663C77.0182 7.91965 76.9544 4.37541 75.0613 1.18009C74.799 0.737852 73.9579 0.909659 73.7927 1.30629C72.4298 4.58328 71.9745 8.01297 71.2792 11.396C70.5325 15.0336 69.2417 18.4622 67.3431 21.8463C65.5804 24.9865 63.7095 28.0662 62.2133 31.2913C60.6117 34.7464 59.1127 38.2312 57.8261 41.7628C55.2279 48.9011 53.9247 55.9736 53.7387 63.3697C53.6443 67.1292 53.2335 70.8813 53.2446 74.6429C53.2543 77.9899 54.0066 81.356 53.7095 84.6998C53.4056 88.103 51.2571 91.1626 50.7089 94.5414C50.2162 97.5755 50.7825 100.594 51.7443 103.541C52.5881 106.126 53.5375 108.764 54.8962 111.223C55.7748 112.812 56.9198 114.351 58.7283 115.426C62.7282 117.804 68.4367 117.161 73.1418 116.887C78.0564 116.601 83.6081 116.123 87.6608 113.774C94.1312 110.023 91.0959 103.744 88.7073 98.9435C87.3332 96.183 86.8447 93.5636 86.2451 90.6779C85.8426 88.7403 85.25 85.9872 82.5935 85.0922C82.284 84.9882 81.8052 84.9967 81.6442 85.282C79.9218 88.3426 81.6553 91.5549 82.5172 94.6092C83.0349 96.445 83.3596 98.5501 81.9523 100.216C80.717 101.681 78.5394 102.414 76.402 102.822C70.1591 104.016 55.4334 104.03 56.2564 96.7122C56.7075 92.7024 60.7255 89.0797 58.2939 85.0084C58.0857 84.6595 57.3056 84.6637 57.0961 85.0084C54.5603 89.1698 54.4826 93.8976 51.9164 98.0612C50.856 99.7824 49.5222 101.474 48.9601 103.345C48.4035 105.196 48.7755 107.001 49.543 108.783C50.9559 112.058 52.6159 115.913 55.9844 118.342C59.6804 121.009 65.2612 120.819 69.9371 120.342C72.6533 120.065 75.3513 119.632 78.0883 119.481C80.2049 119.365 82.8905 119.337 84.2271 120.836C85.3194 122.062 85.2958 123.777 85.3818 125.2C85.479 126.816 85.5192 128.453 85.9384 130.045C86.9585 133.927 90.1993 137.289 90.9127 141.241C91.2569 143.148 90.8946 145.391 88.3478 146.287C86.3728 146.983 84.0258 146.9 81.9009 146.955C75.8302 147.113 69.9204 148.549 63.8316 148.698C60.57 148.777 57.4583 147.969 54.2536 147.651C53.0211 147.529 51.8109 147.479 50.577 147.598C49.8234 147.671 48.6006 148.022 47.8831 147.715C45.9622 146.894 47.1142 143.715 47.4639 142.525C47.983 140.761 48.5562 139.008 49.0656 137.242C50.4174 132.553 52.7325 128.161 52.5076 123.276C52.298 118.725 50.4369 114.394 48.6465 110.094C46.6534 105.306 45.1891 100.405 44.0913 95.4513C42.9338 90.2261 42.3134 84.9235 42.5646 79.622C42.8227 74.171 44.2217 68.8409 45.668 63.515C48.4438 53.2958 51.7651 43.0672 56.7158 33.3253C59.2349 28.3674 62.2369 23.611 65.2945 18.8398C67.6276 15.199 68.4423 11.5127 68.3965 7.49014C68.3757 5.6353 68.291 3.43686 70.1522 2.04017C69.8247 2.04017 69.4985 2.04017 69.171 2.04017C70.638 3.30324 70.7268 5.39562 70.8226 6.98958C70.9322 8.82533 70.8129 10.6611 70.7685 12.4968C70.6616 16.9669 71.7927 21.8527 67.3833 25.4065C66.7629 25.8996 67.7428 26.6515 68.359 26.1541Z" fill="#3C8C7F"/>
</svg>
