<svg width="270" height="250" viewBox="0 0 270 250" fill="none" xmlns="http://www.w3.org/2000/svg">
<path opacity="0.5" d="M176.277 137.537C162.882 172.041 114.887 195.646 88.0616 165.627C81.984 158.812 77.3265 150.605 70.8759 144.191C65.0631 138.394 58.2032 134.069 51.7405 129.302C37.5515 118.819 26.335 106.259 24.6983 86.4835C21.9664 53.5461 43.3883 14.9449 72.6691 5.10383C79.9862 1.81008 88.0255 0.364046 95.9444 0.966561C116.897 2.58666 135.407 16.1499 150.125 32.0028C175.254 59.0624 190.971 99.6853 176.277 137.537Z" fill="#C19FC2" fill-opacity="0.28"/>
<path d="M105.889 84.3951C104.668 87.4732 103.774 90.6974 102.544 93.7702C101.178 97.1845 99.5067 99.8757 96.752 102.059C94.0297 104.218 91.1281 106.019 88.8595 108.809C86.0446 112.271 83.5883 116.178 81.008 119.859C70.4571 134.915 59.9471 149.993 48.9797 164.68C43.9179 171.458 38.8705 178.263 34.1937 185.379C29.6205 192.338 25.0702 199.687 21.9796 207.628C20.5884 211.204 19.4078 215.185 19.6749 219.138C19.9084 222.589 22.0386 225.01 24.2085 227.242C25.5094 228.58 26.7334 230.087 28.3244 231.006C29.6975 231.798 31.2007 232.144 32.7062 232.475C34.4007 232.845 36.0531 233.305 37.5009 234.4C38.1328 234.878 39.2231 235.616 38.2194 236.225C36.5802 237.22 34.2816 237.169 32.4728 237.437C29.0513 237.944 25.6972 239.244 22.2131 238.595C18.2524 237.857 14.518 235.333 10.9521 233.396C8.27798 231.943 4.89738 231.083 3.22574 228.115C0.606967 223.465 1.73706 216.203 6.37288 213.695C8.08904 212.767 9.90989 212.954 10.7487 215.043C11.407 216.685 11.3733 218.805 10.768 220.459C10.3034 221.727 8.55235 223.652 7.38016 222.058C6.2525 220.525 7.14187 217.417 7.62447 215.804C8.14678 214.062 9.04578 211.324 10.5971 210.362C11.2301 209.971 12.0713 210.081 12.7693 210.09C13.7815 210.104 14.7984 210.153 15.8057 210.014C17.3414 209.804 18.7868 208.986 18.6039 207.02C18.4029 204.857 16.9262 203.844 15.1414 203.587C12.9475 203.27 10.7824 203.364 10.4466 200.307C10.1181 197.317 11.3372 194.097 12.3554 191.402C13.5227 188.308 14.9296 185.338 16.2823 182.341C17.6013 179.418 18.7928 176.427 20.0926 173.494C23.147 166.6 26.5444 159.685 31.2248 153.971C33.3983 151.317 35.8967 149.354 38.4204 147.165C40.7949 145.104 42.8564 142.652 44.6315 139.95C48.2456 134.448 50.578 128.036 52.5047 121.61C54.4881 115 56.0333 108.236 58.0889 101.651C59.6522 96.6449 61.4863 91.731 63.5972 86.9805C66.0198 81.5271 68.824 76.1942 72.3514 71.5267C75.531 67.3198 79.4639 63.4048 84.2815 61.7793C89.2663 60.0976 94.5628 61.5289 99.1048 64.0823C103.898 66.7775 107.908 70.8853 111.309 75.4618C118.539 85.1904 123.256 96.9086 128.152 108.19C134.322 122.411 141.777 135.859 151.287 147.631C153.566 150.452 155.305 153.477 155.744 157.302C156.125 160.62 155.778 164.105 154.757 167.249C153.673 170.591 151.682 173.4 148.705 174.849C145.844 176.24 142.625 175.838 139.955 174.124C135.314 171.147 131.465 163.523 133.764 157.581C135.576 152.897 141.115 152.928 144.894 153.876C150.709 155.335 155.226 159.442 158.469 164.929C160.272 167.979 161.759 171.242 163.518 174.322C165.586 177.948 168 181.363 170.411 184.713C175.351 191.581 180.872 197.724 186.571 203.799C191.687 209.252 196.894 214.653 202.673 219.241C205.579 221.548 208.632 223.639 211.861 225.341C215.145 227.072 218.547 228.167 222.034 229.254C230.033 231.75 237.901 234.748 245.961 236.999C249.71 238.046 253.524 238.723 257.28 239.722C261.061 240.728 264.776 242.025 268.441 243.464C268.352 243.091 268.264 242.719 268.175 242.345C266.313 244.58 262.973 245.621 260.453 246.481C256.696 247.764 252.739 248.622 248.799 248.615C245.77 248.61 241.802 248.136 239.942 245.071C239.146 243.758 238.231 240.645 239.28 239.279C240.047 238.28 241.631 239.216 242.226 240.002C243.168 241.243 242.201 242.296 241.005 242.368C239.264 242.474 237.428 241.747 235.812 241.112C232.199 239.691 228.897 237.554 225.374 235.906C218.968 232.907 212.136 230.666 205.417 228.708C202.437 227.841 199.41 227.18 196.446 226.239C193.696 225.365 190.69 224.287 188.413 222.289C186.941 220.997 185.481 219.116 184.752 217.187C184.444 216.37 184.199 215.381 185.024 214.868C185.826 214.367 186.746 214.727 187.262 215.508C188.319 217.105 187.574 219.009 185.766 219.029C183.624 219.053 181.91 216.898 180.626 215.239C178.987 213.12 177.597 210.781 176.147 208.504C174.759 206.325 173.222 204.492 171.518 202.611C166.3 196.854 161.035 191.142 156.052 185.128C154.316 183.031 152.477 181.03 150.779 178.896C149.147 176.845 146.974 174.035 147.657 171.072C147.969 169.717 148.565 169.824 149.431 170.563C150.248 171.263 150.93 172.183 151.597 173.05C152.864 174.703 154.254 176.937 156.287 177.443C158.645 178.029 161.233 176.305 163.36 175.435C166.514 174.143 169.642 173.5 173 174.061C177.663 174.839 181.767 177.494 183.936 182.268C186.08 186.989 186.758 193.592 184.929 198.542C183.054 203.615 178.758 207.17 174.179 208.856C169.545 210.562 164.117 210.729 160.014 207.458C158.078 205.914 156.386 203.931 154.151 202.903C152.032 201.927 150.376 202.343 148.247 202.927C147.207 203.212 145.442 203.897 145.517 201.999C145.569 200.659 146.522 199.249 147.271 198.277C147.586 197.869 147.438 197.352 147.005 197.158C143.921 195.777 144.2 191.261 143.258 188.378C142.887 187.244 142.761 187.222 143.622 186.31C144.892 184.962 146.588 184.79 148.014 183.743C148.312 183.525 148.364 183.177 148.23 182.827C146.146 177.426 139.376 176.623 134.817 176.121C132.06 175.817 129.298 175.639 126.545 175.258C123.362 174.818 118.582 173.976 117.522 169.971C117.159 168.603 117.014 167.195 116.541 165.858C116.026 164.404 115.228 163.238 114.241 162.138C113.154 160.928 111.879 159.83 111.075 158.348C110.167 156.677 110.33 154.877 110.946 153.119C112.128 149.747 114.394 146.892 116.425 144.123C117.803 142.246 119.235 140.416 120.724 138.646C122.917 136.037 125.232 133.489 127.82 131.366C129.666 129.851 132.367 127.701 134.805 128.492C134.665 128.218 134.524 127.944 134.385 127.669C134.02 130.001 131.779 131.596 130.171 132.855C128.518 134.149 126.93 135.391 125.453 136.933C123.237 139.247 121.089 141.649 119.089 144.197C117.642 146.039 116.372 148.057 114.773 149.745C112.563 152.078 108.751 154.751 106.486 151.023C104.932 148.464 104.691 145.129 104.661 142.137C104.631 139.046 104.647 136.059 104.099 133.013C102.967 126.717 101.521 120.486 98.615 114.884C98.0325 113.762 97.308 112.632 96.9806 111.374C96.5666 109.788 97.0504 108.194 97.805 106.827C99.1036 104.476 101.32 102.97 103.022 101.023C105.536 98.1485 107.702 94.4705 109.188 90.8326C110.438 87.7691 111.465 83.8233 109.133 81.0585C105.217 76.4137 101.278 85.7045 100.07 88.6729C97.4716 95.0609 96.0251 101.884 93.7228 108.394C89.5251 120.262 83.5377 131.235 77.5853 142.091C71.6076 152.992 63.4131 161.99 55.9383 171.58C52.8128 175.59 49.7307 179.704 46.8363 183.924C44.0803 187.941 41.3472 192.465 40.5036 197.525C39.7177 202.236 41.2341 206.799 43.4449 210.783C45.5137 214.51 48.5104 217.635 52.3182 218.973C54.3148 219.674 56.4149 219.823 58.4897 219.602C58.2887 219.379 58.0889 219.156 57.8879 218.933C58.0696 223.81 52.5781 223.464 49.5706 222.853C47.5355 222.439 45.6353 221.743 43.871 220.518C41.4808 218.858 39.4072 217.11 36.5093 216.825C33.9242 216.572 31.3632 216.349 29.7974 213.746C28.8816 212.225 28.5783 210.326 28.7564 208.524C28.8996 207.078 29.3666 205.331 30.4317 204.38C31.6075 203.329 32.9939 204.203 33.6811 205.502C34.0433 206.186 34.5825 208.63 33.6089 209.151C32.4716 209.757 32.0467 206.703 32.0756 205.957C32.1755 203.354 33.1034 200.714 34.0012 198.335C34.3009 197.542 33.1371 197.195 32.841 197.979C31.8325 200.648 30.6977 203.796 30.8734 206.744C30.9745 208.444 32.7375 212.027 34.5259 210.019C37.3517 206.849 32.918 200.188 29.582 203.431C26.6347 206.296 26.9584 212.377 29.4508 215.405C30.2319 216.354 31.2356 217.056 32.3175 217.496C34.3273 218.313 36.5394 217.819 38.5456 218.621C40.4699 219.391 42.0525 220.897 43.8011 222.032C44.9288 222.765 46.1263 223.287 47.3827 223.668C51.3217 224.867 59.3501 225.757 59.095 218.93C59.083 218.595 58.829 218.224 58.4933 218.261C54.0019 218.737 49.8607 217.11 46.7581 213.436C43.8902 210.04 41.3545 204.788 41.4616 200.034C41.5783 194.845 44.2826 190.056 46.9435 185.988C49.7692 181.67 52.9211 177.541 56.0454 173.487C63.1375 164.282 70.9661 155.719 77.0173 145.58C80.1415 140.343 82.9733 134.84 85.775 129.386C88.5238 124.034 91.1149 118.575 93.3293 112.921C96.0576 105.958 97.6859 98.6064 100.249 91.5891C101.1 89.2607 105.523 77.1153 108.742 82.6491C110.797 86.1785 107.68 91.5744 105.973 94.5173C105.052 96.1066 104.052 97.6504 102.961 99.1004C101.49 101.053 99.5741 102.477 98.0264 104.341C96.6677 105.978 95.4835 108.204 95.6243 110.511C95.7687 112.875 97.3164 114.927 98.2768 116.943C99.7017 119.935 100.719 123.138 101.513 126.401C102.295 129.612 103.1 132.998 103.363 136.317C103.774 141.526 102.635 147.733 105.78 152.194C107.66 154.86 110.547 154.604 112.96 152.995C116.648 150.535 118.994 146.178 121.884 142.767C123.736 140.58 125.654 138.336 127.742 136.426C129.289 135.009 131.046 133.899 132.606 132.499C133.893 131.343 135.254 129.917 135.55 128.023C135.606 127.662 135.467 127.309 135.13 127.199C133.051 126.524 130.874 127.621 129.116 128.791C126.633 130.442 124.43 132.627 122.367 134.864C118.528 139.03 114.773 143.708 111.777 148.669C110.174 151.325 108.421 154.826 109.612 158.073C110.889 161.554 114.417 163.11 115.554 166.723C116.431 169.509 116.351 172.097 118.754 173.921C121.873 176.289 125.912 176.573 129.559 176.967C132.831 177.32 136.125 177.443 139.355 178.185C142.362 178.876 145.882 180.095 147.196 183.501C147.268 183.196 147.34 182.89 147.411 182.585C146.515 183.242 145.471 183.505 144.499 183.984C143.659 184.398 142.972 185.081 142.349 185.825C141.562 186.768 141.612 187.366 142.014 188.49C142.697 190.4 142.731 192.513 143.436 194.44C144.086 196.218 145.054 197.715 146.689 198.447C146.601 198.074 146.512 197.701 146.423 197.328C145.245 198.858 143.111 202.339 145.046 204.156C146.682 205.693 149.614 203.526 151.433 203.557C154.465 203.606 156.752 206.398 159.006 208.278C161.35 210.234 163.901 211.179 166.819 211.344C172.196 211.645 177.784 209.507 181.818 205.535C183.769 203.614 185.325 201.212 186.238 198.491C187.266 195.427 187.26 192.13 186.894 188.923C186.251 183.301 183.983 177.934 179.423 175.036C177.005 173.5 174.23 172.755 171.468 172.532C167.59 172.219 164.117 173.689 160.563 175.201C159.307 175.735 157.756 176.528 156.387 176.09C155.044 175.66 154.043 174.17 153.171 173.045C152.011 171.546 150.444 168.807 148.482 168.615C146.288 168.398 146.125 172.144 146.499 173.752C147.209 176.809 149.47 179.37 151.379 181.577C156.838 187.888 162.223 194.256 167.821 200.421C170.261 203.107 172.842 205.651 174.847 208.766C176.487 211.316 178.032 213.956 179.886 216.323C181.324 218.159 183.16 220.217 185.482 220.359C187.236 220.466 188.885 219.391 188.952 217.291C189.007 215.568 187.992 213.723 186.414 213.365C184.695 212.976 183.071 214.347 183.29 216.331C183.547 218.666 185.337 220.877 186.786 222.451C188.78 224.618 191.513 225.862 194.116 226.838C197.641 228.159 201.308 228.909 204.903 229.944C208.833 231.074 212.734 232.444 216.604 233.804C220.813 235.284 224.975 236.963 228.914 239.193C230.3 239.979 231.702 240.72 233.139 241.386C235.121 242.308 237.183 243.181 239.314 243.559C240.664 243.799 242.566 243.958 243.426 242.487C245.056 239.702 241.151 236.323 238.887 237.904C237.215 239.073 237.64 242.072 238.103 243.813C238.587 245.629 239.682 247.104 241.131 248.08C244.655 250.451 249.386 250.182 253.302 249.599C257.561 248.967 261.865 247.721 265.757 245.666C266.912 245.055 268.147 244.352 269.028 243.294C269.349 242.909 269.193 242.345 268.762 242.175C264.806 240.621 260.789 239.227 256.695 238.197C252.425 237.123 248.133 236.28 243.899 235.02C235.459 232.509 227.091 229.589 218.71 226.847C211.257 224.408 204.632 219.57 198.665 214.145C192.789 208.801 187.326 202.858 181.907 196.954C175.668 190.158 169.806 182.527 165.001 174.404C161.185 167.955 158.535 160.641 152.61 156.121C148.827 153.236 143.796 151.498 139.196 152.162C134.718 152.807 131.882 156.351 131.992 161.419C132.133 167.898 136.014 174.321 141.609 176.417C147.524 178.632 153.334 174.609 155.612 168.502C157.953 162.224 157.691 154.567 153.933 149.065C151.568 145.604 148.771 142.527 146.384 139.069C143.733 135.23 141.236 131.257 138.897 127.178C131.983 115.121 127.236 101.884 121.035 89.4053C115.626 78.5212 108.623 67.0841 97.9723 62.0257C93.2258 59.7723 88.0062 58.8216 83.0539 60.826C78.1377 62.8156 74.1421 66.9288 70.9047 71.3901C64.1977 80.6327 59.6799 91.9827 56.3535 103.202C52.2749 116.958 49.9172 132.914 40.3062 143.541C37.9221 146.177 35.0013 148.038 32.5462 150.578C30.0032 153.208 27.8237 156.258 25.8741 159.446C21.8978 165.952 18.9517 173.088 15.9117 180.163C13.4301 185.939 9.83768 191.932 9.25399 198.442C9.0506 200.707 9.48989 203.332 11.5803 204.285C13.1521 205.003 15.9718 204.242 17.0333 205.959C18.8289 208.86 14.8333 208.785 13.3506 208.762C11.6152 208.735 10.1903 208.658 8.96638 210.204C7.57636 211.96 6.70021 214.321 6.16827 216.56C5.73261 218.392 5.31502 220.854 6.25373 222.587C7.06969 224.092 8.88573 224.26 10.1626 223.394C11.5418 222.458 12.1652 220.561 12.3518 218.862C12.7561 215.186 10.9184 210.767 7.00708 211.992C2.09808 213.53 -0.0200363 219.804 0.86693 224.973C1.29778 227.48 2.46996 229.884 4.36183 231.382C5.69649 232.438 7.36334 232.973 8.8364 233.744C10.7836 234.763 12.6935 235.865 14.6396 236.888C18.2091 238.765 21.8244 240.467 25.8512 240.035C28.8046 239.719 31.711 238.903 34.6559 238.472C36.1085 238.26 38.7706 238.156 39.6792 236.596C40.8574 234.571 37.5117 232.733 36.3323 232.187C34.7991 231.477 33.1552 231.252 31.5473 230.841C29.4111 230.296 27.8634 229.205 26.2784 227.542C24.9546 226.154 23.5189 224.847 22.4057 223.233C21.16 221.428 20.7665 219.503 20.876 217.248C21.1023 212.616 22.9171 208.162 24.8439 204.124C26.8164 199.991 29.0453 196.006 31.3957 192.127C41.2221 175.906 53.2136 161.384 64.1159 146.071C69.7651 138.135 75.3324 130.129 80.9238 122.142C83.7255 118.14 86.4225 113.977 89.4047 110.14C91.8947 106.937 95.2151 105.047 98.2021 102.524C103.254 98.2569 104.498 91.2048 106.933 85.0632C107.238 84.2893 106.202 83.6078 105.889 84.3951Z" fill="#3C8C7F"/>
</svg>
