<svg width="185" height="252" viewBox="0 0 185 252" fill="none" xmlns="http://www.w3.org/2000/svg">
<g id="&#208;&#159;&#208;&#158;&#208;&#155;&#208;&#158;&#208;&#146;&#208;&#152;&#208;&#157;&#208;&#157;&#208;&#144;&#208;&#175; &#208;&#159;&#208;&#158;&#208;&#151;&#208;&#144; &#208;&#152;&#208;&#157;&#208;&#162;&#208;&#149;&#208;&#157;&#208;&#161;&#208;&#152;&#208;&#146;&#208;&#157;&#208;&#158;&#208;&#147;&#208;&#158; &#208;&#146;&#208;&#171;&#208;&#162;&#208;&#175;&#208;&#150;&#208;&#149;&#208;&#157;&#208;&#152;&#208;&#175;">
<path id="Vector" opacity="0.5" d="M136.662 83.8239C125.599 99.2517 109.804 109.02 98.1537 123.782C87.5514 137.235 82.1719 154.772 73.8733 169.945C65.2903 185.617 51.2001 202.245 33.4444 200.858C15.1903 199.415 4.43122 179.802 2.11892 161.055C-0.389119 140.653 2.63797 118.721 7.97864 99.1747C13.1528 80.1939 21.1973 62.1346 31.7497 46.2633C42.5478 30.0361 56.2259 13.5859 72.9725 5.43919C74.8241 4.54034 76.6075 4.71825 78.0967 5.51752C84.7893 2.94179 91.8247 1.38838 98.8601 0.744445C117.801 -1.00944 141.199 2.67625 148.215 25.9296C154.133 45.5423 147.783 68.3071 136.662 83.8239Z" fill="#C19FC2" fill-opacity="0.28"/>
<g id="Group">
<g id="Group_2">
<path id="Vector_2" d="M35.2943 19.9189C35.694 35.9231 39.9947 51.1703 43.7777 66.3878C45.6804 74.0394 47.4566 81.7584 48.5183 89.6453C49.6618 98.1428 50.3946 106.772 51.1551 115.329C51.9253 124.002 52.486 132.707 52.5456 141.432C52.6067 150.273 52.6983 159.102 53.0369 167.937C53.2048 172.331 53.4144 176.722 53.6586 181.11C53.8779 185.047 53.9264 189.097 54.4746 192.993C54.9256 196.196 55.7611 199.307 56.2829 202.493C56.7256 205.199 57.0891 208.423 55.5612 210.77C54.1568 212.926 51.6185 213.871 49.6424 215.064C48.1575 215.961 45.4916 217.961 43.8776 216.45C42.9867 215.615 42.4329 213.729 42.9492 212.477C43.4016 211.376 44.5229 210.987 45.4791 211.209C46.6282 211.478 47.9605 212.773 48.2158 214.172C48.4059 215.212 47.7523 216.091 47.1833 216.781C46.5408 217.561 45.8052 218.236 45.2223 219.083C44.4882 220.146 44.1427 221.554 43.9415 222.885C43.4141 226.369 44.2426 229.761 44.7547 233.172C45.0309 235.008 45.1821 236.855 45.0628 238.72C44.9712 240.143 44.7602 241.551 44.6367 242.971C44.4188 245.501 44.6173 248.124 46.3214 249.913C48.2449 251.933 50.7193 252.142 53.1715 251.938C55.9096 251.71 58.599 251.037 61.3468 250.944C64.9744 250.818 68.5979 251.092 72.2213 251.245C74.6069 251.345 76.9897 251.339 79.3739 251.497C81.6179 251.646 83.8647 251.791 86.1142 251.75C88.1417 251.714 90.3026 251.613 92.2371 250.822C94.427 249.926 97.0887 246.635 95.7981 243.684C94.606 240.958 91.2046 240.045 88.9245 239.395C85.7299 238.483 82.4644 238.024 79.2365 237.322C78.2983 237.118 77.1549 236.901 76.3652 236.445C74.8026 235.543 73.3454 234.225 71.9826 232.964C68.5604 229.799 64.912 225.861 63.1689 221.038C62.475 219.118 62.1795 216.94 63.0191 215.018C62.7027 215.117 62.3862 215.215 62.0698 215.313C66.0236 218.482 67.9303 224.123 71.662 227.612C75.792 231.473 81.4472 232.164 86.5222 231.664C86.2905 231.389 86.0601 231.116 85.8284 230.841C86.0754 233.412 85.1956 235.955 84.2727 238.228C83.5289 240.06 82.4631 241.852 81.9524 243.802C81.5291 245.413 82.4769 246.192 83.7426 245.69C86.396 244.637 88.665 242.36 91.1726 240.924C94.0453 239.278 96.5239 237.523 97.8284 233.886C99.162 230.173 99.2203 225.913 99.1453 221.942C99.0635 217.551 98.772 213.186 98.8234 208.79C98.8872 203.36 99.1509 197.934 99.5742 192.527C100.422 181.701 101.924 170.96 103.775 160.316C105.474 150.555 108.199 141.343 111.682 132.279C115.007 123.63 118.725 115.197 121.844 106.435C123.868 100.745 125.228 94.8659 125.901 88.7352C126.577 82.5764 126.699 75.8909 124.874 69.9758C123.277 64.7979 119.763 60.3048 114.919 59.783C110.235 59.2777 106.051 63.0402 103.284 67.1597C100.151 71.8224 97.9866 77.6718 97.5758 83.6429C97.2247 88.7434 98.6666 95.9028 103.81 96.576C109.007 97.2557 113.864 91.0196 114.275 85.2229C114.465 82.5435 113.992 79.3341 111.838 77.9022C109.946 76.6448 107.595 77.2702 105.801 78.4601C100.357 82.0711 99.1648 90.279 98.6208 96.9874C98.3002 100.941 98.1975 104.912 97.8589 108.864C97.3829 114.41 96.7431 119.934 96.009 125.439C95.3262 130.566 94.7226 135.741 93.4195 140.708C92.201 145.354 90.6161 149.875 89.7391 154.642C87.8822 164.731 88.5109 175.351 88.2028 185.605C87.9738 193.22 89.5906 200.752 89.549 208.374C89.5296 211.822 89.2339 215.447 87.7365 218.479C88.1001 218.423 88.4624 218.367 88.826 218.313C85.7257 214.542 87.1107 208.787 84.417 204.796C81.629 200.663 76.3638 199.682 72.1852 199.471C67.3336 199.226 62.4973 200.042 57.6956 200.748C52.3361 201.537 46.9335 202.3 41.5531 202.83C40.3458 202.949 38.8054 203.217 37.7687 202.274C36.4559 201.079 35.7023 198.732 34.989 197.034C32.4688 191.035 30.9798 184.451 30.1027 177.85C29.209 171.125 29.2603 164.392 29.0965 157.609C28.9231 150.431 28.5678 143.257 27.9891 136.109C27.4451 129.398 26.8969 122.567 25.233 116.092C23.5538 109.56 21.0198 103.38 18.3261 97.3627C15.8087 91.7405 13.0831 86.2384 10.7489 80.5026C8.93785 76.0555 7.37391 71.4669 6.06941 66.7762C1.12481 49.0175 -1.23301 25.7666 10.5977 10.9424C13.6924 7.0648 17.7349 3.52129 22.1868 2.3297C26.6832 1.12658 30.9701 3.09337 34.3451 6.61878C37.6355 10.057 40.1918 14.4185 41.9306 19.175C43.6875 23.9792 45.0406 29.3134 45.1821 34.5768C45.2376 36.6193 45.1169 38.7737 44.3495 40.6385C44.6104 40.5118 44.8713 40.3867 45.1336 40.2599C42.662 39.205 41.7779 36.1256 41.4268 33.2947C41.0438 30.2087 41.2034 27.0586 41.2673 23.9529C41.3269 21.1286 40.9147 18.1776 41.2617 15.3763C41.3866 14.3724 41.6683 13.3766 42.4649 12.873C43.6014 12.1505 45.214 12.4385 46.4117 12.7117C49.6729 13.454 52.5678 15.7549 55.131 18.1545C57.8871 20.7336 60.4073 23.6385 63.0426 26.3838C65.7321 29.185 68.6159 31.6011 71.8286 33.4955C75.1981 35.4837 78.7646 36.9419 82.3076 38.4215C85.9158 39.9275 89.4685 41.5289 93.1613 42.732C96.843 43.9318 100.566 44.9424 104.233 46.2031C111.41 48.6735 118.639 52.3553 123.384 59.4983C125.45 62.6089 127.123 66.2627 128.114 70.0465C128.985 73.3744 129.536 76.8373 130.803 80.0039C132.041 83.0998 133.991 85.2558 136.643 86.584C138.203 87.3642 140.021 87.9106 141.666 87.1601C144.695 85.7792 145.511 81.0523 146.186 77.754C147.027 73.6509 147.609 68.6196 150.208 65.4628C150.792 64.7535 151.484 64.1758 152.262 63.8038C152.037 63.7331 151.812 63.6623 151.586 63.5915C152.584 64.951 151.932 67.8032 151.588 69.426C150.905 72.6387 149.883 75.7478 148.919 78.8518C147.924 82.0546 146.904 85.2706 146.21 88.5887C145.702 91.0179 145.201 93.8686 145.891 96.3209C146.547 98.6547 148.293 99.736 150.282 99.8726C151.724 99.9714 153.192 99.6488 154.585 99.2423C156.864 98.5773 159.156 97.8597 161.356 96.8805C165.382 95.0881 168.588 92.0861 171.276 88.1262C174.097 83.9721 177.865 80.9635 180.949 77.1056C183.476 73.9439 185.546 69.6268 184.142 65.1666C183.032 61.6412 179.884 60.0974 177.029 59.2284C173.842 58.2557 170.382 58.0894 167.353 56.4601C166.269 55.8774 166.335 55.3458 166.27 54.0587C166.159 51.85 165.489 49.7318 164.597 47.8029C163.778 46.0336 162.579 44.4371 160.843 44.024C159.098 43.6092 157.146 44.2083 155.72 45.4378C154.241 46.7133 152.934 48.374 151.921 50.1795C151.045 51.7397 150.314 53.6144 151.207 55.3754C153.454 59.8044 157.196 54.3221 159.818 53.7872C161.7 53.4021 163.697 53.8612 165.539 54.327C167.722 54.88 169.869 55.6108 172.049 56.1737C175.502 57.0674 179.294 57.7125 181.762 54.0423C184.079 50.5942 182.531 46.5191 180.374 43.5846C178.068 40.4459 174.994 37.8669 171.831 36.0828C169.753 34.9109 167.582 33.9712 165.529 32.7351C163.377 31.4398 161.506 29.6804 159.825 27.6346C156.864 24.0319 153.474 19.5519 148.775 21.6981C144.649 23.5826 143.601 29.5142 145.702 33.8197C146.125 34.6871 146.683 35.4442 147.36 36.0449C147.795 36.4317 148.629 36.7131 148.966 37.197C149.165 37.4801 149.084 37.5114 148.865 37.9739C148.289 39.1951 147.42 40.4887 146.517 41.389C145.351 42.5493 143.727 42.7847 142.656 44.1046C141.347 45.7159 140.842 48.4859 141.114 50.6403C141.394 52.849 142.953 55.6305 141.143 57.4295C139.829 58.7363 138.111 58.5206 136.533 58.1405C132.571 57.1826 128.798 55.0183 125.209 52.8688C115.633 47.1347 106.867 39.2543 96.5655 35.3389C93.3889 34.1325 89.9334 33.6091 87.2342 36.3906C85.6299 38.043 84.5641 40.3867 83.7148 42.6563C82.5379 45.7999 81.7691 49.113 81.1488 52.4672C80.0025 58.6671 79.3919 65.0514 76.9439 70.7707C75.8712 73.2773 74.7013 75.7247 73.6854 78.2643C72.9069 80.2113 72.0812 82.3163 71.9272 84.4938C71.7828 86.5462 72.2102 88.7681 73.6424 90.0699C74.84 91.1578 76.3791 91.4245 77.8043 91.8442C79.8929 92.4597 81.3653 93.7682 82.4492 96.0164C83.5691 98.3403 84.1839 100.967 85.469 103.186C87.2481 106.259 91.879 110.182 94.3923 105.891C95.5483 103.918 95.6316 101.016 95.1861 98.7485C94.7462 96.5085 93.5846 94.5565 92.1913 92.9963C89.0535 89.4774 84.918 87.5666 81.0253 85.5422C75.706 82.7755 70.4242 79.8097 65.6475 75.8564C59.9257 71.1196 55.0921 64.6531 50.704 58.2705C49.8089 56.9686 48.9222 55.6404 48.1728 54.2118C47.9424 53.774 47.7079 53.3214 47.5524 52.8375C47.4969 52.6631 47.4664 52.487 47.4609 52.4573C47.44 52.3421 47.4137 52.5676 47.4109 52.5692C48.102 51.8977 47.1153 50.7391 46.4297 51.4056C45.0822 52.7157 47.5413 56.0864 48.17 57.0838C50.1254 60.1879 52.3083 63.0945 54.5204 65.9434C56.312 68.2509 58.1189 70.5831 60.0701 72.7062C63.8615 76.8291 68.3078 80.0796 72.8763 82.8397C77.1298 85.4089 81.6152 87.3839 85.8659 89.9482C89.2909 92.0153 93.5457 95.1161 93.9801 100.131C94.1453 102.047 94.0036 105.205 92.1607 105.984C90.3566 106.747 88.3639 104.761 87.2717 103.284C84.5128 99.55 84.3365 93.4653 80.2273 91.0904C78.8701 90.3053 77.3616 90.1308 75.9364 89.5976C74.2794 88.9771 73.3968 87.7048 73.301 85.6146C73.2011 83.4372 74.0046 81.3239 74.7638 79.3933C75.6894 77.0414 76.7566 74.7718 77.7641 72.4692C78.6772 70.3856 79.5196 68.297 80.0649 66.034C80.8629 62.7143 81.3875 59.3156 81.9551 55.9334C82.5102 52.6318 83.1041 49.3253 84.0367 46.1389C84.8028 43.5204 85.7784 40.7702 87.3133 38.6388C89.6808 35.3504 92.8713 35.6861 96.0729 36.8843C101.221 38.8116 106.04 41.8531 110.697 45.0444C118.249 50.219 125.863 56.228 134.317 59.179C137.158 60.1698 141.325 61.1096 143.04 57.2649C143.894 55.3524 143.071 53.2803 142.655 51.3744C142.202 49.3072 142.441 46.2475 144.02 44.87C145.245 43.8018 146.717 43.5138 147.835 42.1839C148.576 41.3034 149.259 40.2632 149.839 39.2264C150.161 38.652 150.523 37.9525 150.483 37.2332C150.412 35.961 149.246 35.566 148.48 34.9801C146.847 33.7309 146.005 31.3362 145.999 29.078C145.995 26.5698 147.15 24.2574 149.14 23.2912C151.446 22.1721 153.68 23.1118 155.512 24.9025C157.146 26.499 158.465 28.4855 160.027 30.1742C161.607 31.8842 163.353 33.3243 165.281 34.4303C168.682 36.3807 172.189 37.8257 175.291 40.4443C177.805 42.5691 181.468 45.9941 181.569 50.033C181.616 51.9636 180.47 53.7987 179.062 54.6825C177.675 55.5532 175.879 55.3112 174.389 55.038C170.42 54.3106 166.618 52.566 162.608 52.1101C161.045 51.9323 159.359 51.9438 157.937 52.8277C156.632 53.6391 155.11 55.4906 153.544 55.4314C152.828 55.4051 152.204 54.592 152.151 53.7493C152.097 52.8935 152.623 51.9307 152.992 51.2443C153.941 49.4751 155.262 47.7634 156.738 46.5981C158.116 45.5102 160.276 45.0592 161.717 46.2163C163.263 47.4572 164.179 50.1548 164.635 52.2088C164.911 53.4547 164.726 54.7977 165.036 56.014C165.378 57.3488 166.588 57.9051 167.594 58.338C170.561 59.6168 173.718 59.9097 176.759 60.8512C179.475 61.6906 182.607 63.2064 183.1 66.9112C183.759 71.8668 180.493 75.5371 177.689 78.5671C176.071 80.315 174.379 81.9658 172.784 83.7433C171.217 85.4912 169.991 87.5567 168.509 89.3968C165.709 92.8712 162.343 94.9137 158.496 96.2814C156.563 96.9693 154.585 97.6803 152.59 98.0622C151.482 98.2728 150.276 98.3881 149.181 98.0227C145.073 96.65 147.559 88.6479 148.393 85.5735C149.981 79.7208 152.449 73.9735 153.283 67.8707C153.532 66.0488 153.662 63.9223 152.569 62.4328C152.423 62.2337 152.104 62.1201 151.893 62.2205C148.221 63.9799 146.751 68.5208 145.794 72.7457C145.276 75.0335 144.887 77.3623 144.341 79.6418C143.923 81.3864 143.428 83.3499 142.338 84.688C141.256 86.0178 139.78 86.059 138.354 85.5768C135.513 84.6172 133.345 82.4645 132.059 79.3176C130.71 76.016 130.223 72.3277 129.25 68.8681C128.186 65.081 126.451 61.4634 124.365 58.3396C119.651 51.2773 112.533 47.4358 105.421 44.9062C101.709 43.5862 97.9297 42.5576 94.1897 41.361C90.3261 40.125 86.6138 38.4824 82.8433 36.9073C79.0255 35.3125 75.1815 33.7555 71.5941 31.509C68.3343 29.4681 65.5184 26.8331 62.7915 23.9183C57.9635 18.7586 52.6663 12.0386 45.8871 10.9605C43.743 10.6198 41.1992 10.7992 40.2528 13.505C39.3521 16.0775 39.8725 19.2622 39.8975 21.9597C39.9253 25.0062 39.706 28.0477 39.8573 31.0926C40.0016 33.9958 40.3916 37.1839 41.9667 39.5275C42.7036 40.6253 43.657 41.3758 44.7644 41.8482C45.0323 41.9634 45.4222 41.7774 45.5485 41.4697C47.3152 37.174 46.5796 31.7888 45.6817 27.3318C44.713 22.5292 43.224 17.6048 40.9799 13.4161C38.5083 8.80612 35.1236 4.2504 30.8799 1.90836C26.7513 -0.371145 22.2854 -0.0107015 18.2054 2.2474C10.3631 6.58751 4.7094 15.4241 2.31828 25.1395C-0.077003 34.8731 0.375352 45.3538 2.03512 55.1977C3.71848 65.1781 6.71742 74.8788 10.6406 83.9211C16.0265 96.3357 22.8489 108.359 25.1123 122.286C26.2947 129.564 26.7568 137.089 27.1801 144.475C27.595 151.719 27.688 158.952 27.8406 166.205C27.985 173.037 28.7316 179.897 30.2262 186.502C30.934 189.631 31.8249 192.702 32.9268 195.668C33.7886 197.987 34.7267 200.501 36.0575 202.509C36.8791 203.749 37.9186 204.405 39.2425 204.54C41.4976 204.769 43.8901 204.21 46.1188 203.902C51.4298 203.168 56.745 202.48 62.0559 201.756C66.9409 201.089 72.0853 200.503 76.9314 201.817C79.2059 202.434 81.7247 203.523 83.2665 205.706C84.6876 207.72 84.8306 210.395 85.2011 212.872C85.5772 215.382 86.3294 217.625 87.8476 219.473C88.1598 219.853 88.7135 219.76 88.9369 219.307C91.8623 213.387 91.0213 205.564 90.444 199.065C90.1276 195.501 89.7169 191.94 89.599 188.357C89.4588 184.078 89.7307 179.749 89.7793 175.466C89.8348 170.595 89.9098 165.715 90.3372 160.865C90.7563 156.116 91.7555 151.644 93.0586 147.138C94.3354 142.724 95.5677 138.371 96.2435 133.761C96.9777 128.751 97.6646 123.729 98.2489 118.69C98.7734 114.175 99.2606 109.639 99.527 105.092C99.7435 101.387 99.8601 97.6672 100.308 93.9871C101.009 88.22 102.985 79.8953 108.799 78.9078C110.962 78.5408 112.472 80.0944 112.833 82.5863C113.302 85.8253 112.271 89.0495 110.421 91.4195C108.825 93.4653 106.463 95.2149 104.022 94.9515C101.532 94.6833 99.996 92.0696 99.3563 89.4231C98.1045 84.2519 99.4604 78.3762 101.417 73.702C103.403 68.9553 106.556 64.0606 110.872 62.1218C115.053 60.2439 119.473 62.3703 121.935 66.6692C124.676 71.4554 125.098 77.6981 124.911 83.317C124.718 89.117 123.802 94.9318 122.299 100.455C120.237 108.031 117.009 115.22 114.101 122.373C110.84 130.395 107.611 138.469 105.256 146.941C102.695 156.152 101.31 165.868 100.027 175.429C98.7041 185.281 97.7839 195.218 97.5092 205.194C97.3898 209.544 97.455 213.856 97.6382 218.199C97.8075 222.256 98.006 226.46 97.2774 230.461C96.9374 232.332 96.3726 234.202 95.3331 235.696C94.4131 237.018 93.1877 237.907 91.9124 238.67C90.6398 239.434 89.3339 240.107 88.1113 240.984C86.829 241.904 85.5647 242.867 84.2214 243.657C83.8925 243.852 83.5594 244.038 83.2083 244.166C82.8932 244.281 82.7878 244.207 83.1708 244.482C83.3082 244.581 83.1583 244.701 83.2652 244.339C83.3637 244.006 83.4747 243.69 83.6038 243.373C84.3962 241.419 85.3273 239.556 86.0462 237.559C86.8025 235.458 87.441 233.149 87.2189 230.836C87.1787 230.423 86.9316 229.974 86.525 230.013C81.4111 230.518 75.6866 229.826 71.7426 225.533C68.4605 221.962 66.519 216.893 62.7735 213.887C62.4737 213.647 61.9879 213.807 61.8242 214.182C59.9063 218.576 62.3043 223.389 64.6261 226.819C67.3391 230.826 70.8017 234.334 74.4792 237.044C76.7371 238.708 79.2906 239.009 81.8746 239.5C85.1789 240.129 88.6108 240.668 91.7472 242.117C92.7325 242.571 94.0342 243.226 94.5546 244.406C95.0695 245.573 94.3784 246.819 93.7428 247.7C92.5451 249.36 90.6967 249.716 88.9412 249.925C86.6167 250.201 84.2629 250.129 81.9329 250.005C76.2861 249.707 70.6338 249.408 64.9814 249.281C61.8589 249.21 58.86 249.485 55.7722 249.961C53.2257 250.354 50.106 250.999 47.8286 249.21C45.5263 247.402 45.8691 244.27 46.1855 241.429C46.5727 237.956 46.4478 234.775 45.8691 231.333C45.3001 227.956 44.3938 223.654 46.0647 220.484C47.0264 218.659 48.9555 217.734 49.5134 215.551C50.1379 213.109 48.2241 210.614 46.4103 209.815C44.5937 209.017 42.3331 209.807 41.5961 212.06C40.862 214.3 41.9806 217.459 43.8915 218.319C45.8677 219.21 48.0881 217.836 49.8228 216.799C51.8753 215.571 54.2165 214.572 55.9318 212.705C57.568 210.926 58.148 208.291 58.0411 205.727C57.9037 202.432 57.0808 199.203 56.4355 196.013C55.6944 192.351 55.4946 188.694 55.2698 184.943C54.7328 176.005 54.333 167.053 54.1193 158.095C53.9028 149.033 54.0722 139.959 53.6406 130.905C53.2187 122.069 52.3944 113.27 51.4979 104.486C50.6375 96.0641 49.8533 87.6703 48.1963 79.4032C45.0128 63.5224 39.8767 48.2226 37.6729 32.062C37.1247 28.0412 36.7847 23.9874 36.6821 19.9172C36.6557 18.8623 35.2679 18.8573 35.2943 19.9189Z" fill="#3C8C7F"/>
</g>
</g>
</g>
</svg>
