<svg width="302" height="258" viewBox="0 0 302 258" fill="none" xmlns="http://www.w3.org/2000/svg">
<path opacity="0.5" d="M162.156 230.151C151.899 247.662 133.437 253.729 119.408 239.175C106.041 225.295 100.107 201.181 93.0265 182.143C89.0781 171.496 84.8209 161.014 79.4939 151.316C74.5749 142.361 68.9391 134.052 63.7003 125.386C53.5205 108.549 45.712 89.9094 45.6458 68.3402C45.6017 53.0573 49.0538 38.2285 55.3844 25.3942C56.9836 21.6388 58.9799 18.2274 61.318 15.2148C61.704 14.6508 62.068 14.0868 62.465 13.5366C63.0937 12.6562 63.7665 12.0372 64.4613 11.6108C72.1044 3.76992 82.207 -0.356897 92.3868 0.867379C111.754 3.19213 125.915 20.6346 133.713 41.8325C137.286 51.5304 139.955 61.6823 143.308 71.4765C146.947 82.1236 151.866 91.9453 156.598 101.85C166.193 121.892 173.108 142.498 174.321 166.035C175.413 187.288 172.458 212.571 162.156 230.151Z" fill="#C19FC2" fill-opacity="0.28"/>
<path d="M205.399 84.8447C197.679 83.1293 190.194 84.2422 182.638 86.5367C174.72 88.9412 166.342 92.9415 158.075 91.7805C154.15 91.2302 150.434 89.0912 146.7 87.5931C143.517 86.3152 140.277 85.3413 136.936 85.0194C128.243 84.1831 119.602 87.1626 110.979 88.0058C106.894 88.4047 102.778 88.6771 98.6843 88.9151C94.5286 89.1572 90.3023 89.2108 86.1951 88.2548C82.4452 87.3827 79.3383 85.3097 76.1609 82.7662C73.3485 80.5171 70.4997 78.0823 67.2285 76.9997C60.2195 74.6791 52.6315 76.8305 45.6656 78.3258C37.7556 80.0246 30.0011 81.0165 22.4319 76.9695C19.7452 75.5333 15.3711 73.3695 13.2436 77.3065C12.2477 79.1511 13.0164 81.8253 11.4029 83.2174C9.97901 84.4458 8.1129 84.5145 6.67912 85.7691C4.21193 87.9288 2.52008 91.5191 1.40173 94.9305C0.272362 98.3736 -0.494154 102.428 0.374933 106.093C0.459856 106.453 0.759843 106.67 1.05322 106.574C5.3038 105.183 7.51733 100.249 10.9661 97.302C14.9465 93.903 19.8334 93.2537 24.512 92.9662C26.7497 92.8287 28.9908 92.5494 31.1999 92.0831C33.0958 91.6842 35.7538 91.2453 37.181 89.435C39.0504 87.0649 36.2226 84.6975 34.7303 83.6328C34.5594 83.5104 34.3443 83.5063 34.1734 83.6328C30.9253 86.0374 32.776 89.9124 35.0259 92.3541C37.9343 95.5083 41.8551 95.0736 45.4384 94.8975C54.6896 94.4436 65.0502 95.3872 73.1566 101.438C76.4785 103.917 79.56 106.927 83.1478 108.816C87.4833 111.096 92.5379 111.567 97.1557 112.44C102.097 113.376 107.055 114.164 112.028 114.775C116.861 115.368 121.738 115.599 126.528 116.647C131.012 117.629 135.029 119.676 139.252 121.697C143.796 123.87 148.583 125.039 153.383 125.929C158.083 126.8 162.907 127.262 167.53 128.674C171.82 129.985 175.862 132.107 180.356 131.018C182.576 130.48 184.689 129.472 186.974 129.433C188.597 129.406 190.221 129.606 191.84 129.719C194.757 129.921 197.868 129.956 200.491 128.113C203.224 126.192 205.078 122.31 205.786 118.569C206.156 116.618 205.839 114.628 203.977 114.508C201.994 114.38 199.952 115.618 198.076 116.258C195.391 117.174 192.476 116.699 190.056 114.932C185.258 111.428 184.363 103.648 181.51 98.2278C180.791 96.8605 179.952 95.6128 178.968 94.5289C178.78 94.3225 178.522 94.2647 178.3 94.4216C170.553 99.8827 178.961 111.446 178.93 119.017C178.911 123.916 174.689 124.412 171.614 124.367C167.531 124.306 163.432 123.258 159.509 121.9C155.579 120.539 151.22 118.628 148.891 114.152C147.229 110.958 147.637 108.021 149.151 104.963C150.199 102.848 151.164 100.726 150.773 98.1494C149.505 89.7886 139.475 92.1202 134.961 93.5838C131.653 94.6568 128.299 96.1493 125.361 98.3599C124.289 99.166 123.266 100.089 122.532 101.375C121.121 103.848 121.016 107.004 121.234 109.923C121.496 113.409 121.956 116.809 122.078 120.318C122.23 124.711 122.339 129.104 122.424 133.499C122.572 141.1 122.838 148.572 124.415 155.957C125.98 163.286 128.805 169.811 131.072 176.791C133.385 183.911 133.949 191.421 134.014 199.037C134.073 206.091 134.347 212.852 136.394 219.512C137.392 222.763 138.711 225.789 140.012 228.858C141.111 231.45 141.577 234.327 141.921 237.202C142.519 242.207 142.722 247.927 145.765 251.733C148.059 254.602 151.357 255.483 154.432 256.224C158.375 257.175 162.398 257.735 166.411 257.918C169.941 258.078 173.812 258.147 177.201 256.715C178.227 256.282 179.265 255.677 179.965 254.612C180.205 254.246 180.16 253.81 179.854 253.532C174.639 248.812 167.332 250.093 162.38 244.803C157.961 240.082 156.74 230.99 151.109 227.91C149.477 227.019 147.102 226.99 146.011 229.07C145.114 230.78 145.976 232.521 147.35 233.213C148.809 233.949 150.949 234.135 152.039 232.446C152.955 231.029 152.849 228.949 152.649 227.261C152.375 224.94 151.767 222.695 151.123 220.5C150.22 217.423 149.4 214.325 148.753 211.145C146.865 201.859 146.109 192.272 145.786 182.721C145.464 173.206 145.35 163.57 145.793 154.06C146.024 149.072 146.364 144.076 146.148 139.077C145.927 133.971 145.165 128.898 144.491 123.862C143.885 119.329 143.022 114.639 143.152 110.019C143.225 107.42 143.729 104.613 145.589 103.106C147.103 101.879 149.049 101.681 150.804 101.575C153.087 101.438 155.375 101.547 157.658 101.419C164.125 101.057 170.126 98.0999 176.131 95.3322C179.606 93.7297 183.124 92.2124 186.771 91.3334C189.567 90.6607 192.583 89.9743 195.441 90.2384C198.386 90.5108 200.082 92.4957 200.171 96.2484C200.235 98.9005 199.907 101.555 200.037 104.205C200.331 110.215 204.718 112.872 209.045 113.827C212.795 114.655 216.446 113.479 220.161 112.981C223.814 112.491 227.511 112.81 231.152 113.307C238.782 114.347 246.357 115.837 254.008 116.688C257.791 117.109 261.615 117.307 265.389 116.664C269.24 116.006 272.797 114.09 276.514 112.764C282.107 110.768 288.038 109.681 293.213 106.231C295.104 104.971 296.96 103.531 298.57 101.753C299.707 100.498 301.034 98.7781 301.104 96.7587C301.173 94.8026 299.879 93.2496 298.453 92.7365C296.296 91.9592 293.88 93.0061 291.818 93.7627C289.515 94.6086 286.837 95.9045 284.455 94.8425C284.565 95.1795 284.674 95.5165 284.785 95.8522C285.032 95.1933 285.349 94.5935 285.636 93.9608C285.793 93.6155 285.671 93.0157 285.306 92.9511C281.507 92.2743 279.113 96.6335 276.73 99.5814C275.133 101.557 273.433 103.118 271.082 102.916C268.463 102.69 266.013 101.265 263.417 100.852C257.179 99.8579 250.808 101.696 244.557 101.76C238.584 101.821 233.027 100.262 227.745 96.7546C221.859 92.8452 215.735 89.6868 209.064 88.7143C209.241 89.0045 209.418 89.2947 209.596 89.585C210.479 84.3399 217.696 88.7349 219.969 89.8972C221.801 90.834 223.628 91.9703 225.545 92.6154C227.253 93.1918 228.237 92.3926 229.444 90.8739C230.37 89.7102 231.804 88.1186 232.881 90.1448C233.61 91.5136 233.427 93.5082 234.005 94.9897C234.805 97.0407 236.942 97.8083 238.524 98.5993C240.32 99.4975 242.357 100.184 243.894 98.082C245.195 96.302 243.896 93.8851 243.725 91.9001C243.425 88.424 243.815 84.8818 242.839 81.5199C241.861 78.1483 239.633 76.0065 237.176 74.3613C236.99 74.7575 236.804 75.1537 236.619 75.5484C238.605 76.6544 241.595 77.1854 242.254 73.7671C242.879 70.5193 240.758 67.2592 238.594 65.8629C234.049 62.9288 224.918 65.2673 227.606 73.6419C227.783 73.3516 227.961 73.0614 228.137 72.7712C222.295 72.3488 217.478 77.2487 218.048 84.842C218.114 85.7155 219.217 85.7237 219.151 84.842C218.634 77.964 222.86 73.7643 228.137 74.1467C228.467 74.1701 228.799 73.6818 228.669 73.276C226.561 66.7075 233.189 64.9605 237.006 66.5177C239.007 67.3334 240.968 69.4532 241.222 72.2003C241.529 75.5072 238.947 75.3476 237.175 74.3613C236.54 74.0078 235.981 75.122 236.619 75.5484C239.014 77.1524 241.157 79.202 241.956 82.5777C242.676 85.6219 242.393 88.7858 242.621 91.9001C242.711 93.1257 243.109 94.2262 243.288 95.4216C243.533 97.0627 242.407 98.2829 241.045 98.1893C240.204 98.1329 239.282 97.5153 238.518 97.1205C237.593 96.6418 236.428 96.1466 235.626 95.3735C233.825 93.6389 235.021 89.6317 232.784 88.1943C230.846 86.948 229.539 88.9178 228.258 90.4214C226.782 92.1532 225.379 91.1752 223.712 90.3498C221.79 89.3993 219.905 88.3373 217.965 87.446C215.167 86.1598 209.454 83.7305 208.53 89.2177C208.45 89.6937 208.693 90.0348 209.062 90.0885C215.335 91.0032 221.17 93.9594 226.714 97.6267C231.58 100.846 236.6 102.799 242.129 103.088C248.408 103.417 254.621 101.855 260.895 102.034C263.749 102.115 266.28 103.191 269.042 103.91C270.914 104.399 272.775 104.571 274.526 103.455C276.384 102.271 277.79 100.2 279.205 98.3475C280.728 96.3543 282.58 93.8452 285.012 94.2771C284.902 93.9401 284.792 93.6031 284.682 93.2661C284.395 93.8988 284.078 94.4986 283.831 95.1575C283.672 95.5798 283.803 96.009 284.161 96.1672C286.219 97.0847 288.466 96.3818 290.496 95.6761C292.736 94.8975 295.379 93.3968 297.75 93.9388C299.779 94.4023 300.512 96.5193 299.403 98.5965C298.291 100.678 296.46 102.203 294.789 103.505C290.372 106.949 285.625 108.33 280.615 109.956C276.931 111.152 273.36 112.628 269.737 114.062C266.228 115.452 262.531 115.794 258.869 115.681C251.461 115.452 243.99 114.072 236.659 112.806C233.248 112.218 229.828 111.647 226.386 111.442C222.984 111.238 219.717 111.659 216.357 112.268C212.48 112.973 208.777 112.927 205.145 110.859C203.254 109.781 201.685 108.201 201.267 105.556C200.552 101.022 202.668 94.9237 199.922 91.1133C198.627 89.3167 196.614 88.8738 194.767 88.8243C192.184 88.7555 189.531 89.3167 186.996 89.8835C180.194 91.4049 173.944 95.2125 167.383 97.7546C164.481 98.8785 161.528 99.7424 158.489 99.9845C156.316 100.158 154.14 100.092 151.964 100.15C148.952 100.229 145.287 100.47 143.396 103.869C142.296 105.844 142.045 108.377 142.039 110.722C142.03 114.995 142.772 119.313 143.331 123.51C143.987 128.428 144.744 133.37 145.008 138.351C145.262 143.109 144.991 147.872 144.757 152.621C144.308 161.74 144.369 170.939 144.603 180.069C144.823 188.695 145.362 197.339 146.675 205.824C147.325 210.026 148.172 214.187 149.289 218.237C149.82 220.164 150.44 222.049 150.909 224.002C151.385 225.985 151.971 228.386 151.575 230.463C151.134 232.783 148.092 233.087 146.972 231.305C146.221 230.111 147.437 229.001 148.297 228.766C149.879 228.331 151.431 229.499 152.575 230.734C154.832 233.169 156.223 236.589 157.769 239.707C159.193 242.578 160.798 245.338 163.114 247.181C165.516 249.093 168.319 249.943 171.057 250.76C173.95 251.624 176.849 252.5 179.295 254.715C179.258 254.355 179.222 253.994 179.184 253.635C177.395 256.356 173.307 256.41 170.763 256.541C166.717 256.75 162.636 256.373 158.628 255.692C155.581 255.173 152.293 254.63 149.433 253.139C145.012 250.833 143.942 245.387 143.336 240.009C143.031 237.292 142.792 234.543 142.173 231.901C141.5 229.027 140.196 226.538 139.138 223.874C136.634 217.578 135.304 210.995 135.148 203.964C134.989 196.786 135.162 189.654 133.757 182.626C132.315 175.412 129.173 168.994 127.126 162.048C125.177 155.436 124.049 148.572 123.719 141.54C123.328 133.184 123.628 124.759 123.015 116.417C122.627 111.121 120.74 104.181 124.867 100.4C127.458 98.0256 130.691 96.5716 133.741 95.4326C137.084 94.185 140.686 93.2399 144.192 93.6375C147.265 93.9855 150.605 96.3102 149.606 100.848C149.046 103.395 147.334 105.285 146.798 107.86C146.269 110.405 146.985 113.164 148.164 115.263C150.338 119.13 153.961 121.21 157.47 122.583C161.048 123.983 164.758 124.995 168.487 125.493C171.49 125.895 175.395 126.289 178.057 124.089C180.624 121.968 180.182 117.782 179.411 114.585C178.351 110.189 176.108 105.748 176.125 101.052C176.133 98.5717 177.153 96.8055 178.854 95.6059C178.632 95.5702 178.409 95.5344 178.186 95.4986C183.001 100.804 183.225 110.061 188.282 115.069C190.578 117.343 193.961 118.614 196.878 118.009C198.177 117.739 199.431 117.185 200.687 116.712C201.673 116.34 203.101 115.581 204.149 115.899C205.424 116.285 204.681 118.527 204.381 119.563C203.573 122.357 202.291 125.103 200.225 126.707C196.955 129.243 192.765 128.374 189.129 128.136C186.805 127.985 184.68 128.249 182.423 128.976C179.458 129.932 176.782 130.261 173.762 129.39C171.163 128.641 168.658 127.476 166.029 126.873C163.168 126.217 160.28 125.745 157.398 125.254C151.808 124.302 146.185 123.291 140.838 120.959C138.141 119.783 135.573 118.221 132.845 117.142C130.419 116.183 127.93 115.505 125.415 115.033C119.932 114.006 114.368 113.743 108.858 112.984C102.635 112.125 96.4377 110.996 90.2714 109.648C87.5395 109.05 84.9367 108.431 82.4253 106.901C80.299 105.606 78.3336 103.949 76.3572 102.338C72.0382 98.818 67.7159 96.4189 62.6393 95.1107C57.2428 93.7186 51.6202 93.3142 46.1189 93.4917C43.6561 93.5715 41.0974 94.0075 38.6787 93.2165C36.7387 92.5824 33.3418 89.8312 33.4399 86.8889C33.4653 86.135 33.9748 85.0125 34.6178 85.1418C34.877 85.1941 35.2752 85.6536 35.4969 85.8613C35.8862 86.2244 36.5865 86.8407 36.6703 87.5065C36.8016 88.5409 35.7329 89.0884 35.1075 89.4172C32.7264 90.6662 29.9702 91.0101 27.4236 91.3196C24.47 91.6773 21.4944 91.636 18.564 92.2756C16.0384 92.8273 13.5678 93.8315 11.3301 95.4079C9.50476 96.6954 8.0379 98.5428 6.5589 100.367C4.86374 102.458 3.12226 104.472 0.758742 105.246C0.984837 105.406 1.21093 105.567 1.43703 105.726C0.565736 102.049 1.5021 97.9018 2.73514 94.5206C3.88768 91.3595 5.70085 87.5464 8.39965 86.1556C10.8999 84.8681 13.1543 84.5063 13.6252 80.7028C13.7509 79.6917 13.7697 78.5803 14.3498 77.7659C15.1505 76.6434 16.5181 76.3256 17.6585 76.4605C19.5004 76.6764 21.2132 77.8209 22.8907 78.7013C29.6349 82.2393 36.9394 81.4965 43.9881 80.0632C51.1978 78.5968 58.7681 76.1936 66.0759 78.074C72.8632 79.821 77.6498 87.1626 84.404 89.182C91.8364 91.4049 99.6075 90.1669 107.137 89.651C115.655 89.0678 124.037 86.6784 132.554 86.2932C136.244 86.1268 139.885 86.6289 143.451 87.8187C146.766 88.9247 149.974 90.4654 153.231 91.8011C161.741 95.2923 170.519 91.8217 178.847 89.1462C187.562 86.3482 196.105 84.1679 205.107 86.1666C205.799 86.3248 206.097 84.9988 205.399 84.8447Z" fill="#3C8C7F"/>
</svg>
