<svg width="206" height="259" viewBox="0 0 206 259" fill="none" xmlns="http://www.w3.org/2000/svg">
<path opacity="0.5" d="M199.712 91.5918C192.699 123.775 178.944 156.552 154.269 178.664C141.197 190.374 123.922 201.516 105.797 198.132C88.8702 194.96 76.9198 178.994 74.2383 162.235C72.6655 152.429 73.7097 142.86 75.9915 133.264C77.2162 128.136 78.8019 122.942 78.8277 117.602C78.8535 112.977 77.4999 108.602 76.1591 104.227C73.2585 94.8167 71.299 85.9086 72.8074 76.0093C74.1868 66.8897 77.9769 58.1667 82.7081 50.3688C98.0878 25.0059 124.954 4.9164 154.321 2.66955C155.172 1.96906 156.28 1.46684 157.686 1.24216C176.726 -1.73161 193.614 10.6128 200.589 28.5083C208.298 48.3202 204.095 71.4627 199.712 91.5918Z" fill="#C19FC2" fill-opacity="0.28"/>
<path d="M96.4634 31.2916C97.5192 30.0123 98.8397 28.5117 98.9583 26.791C99.0506 25.4521 98.2581 24.3224 97.5167 23.2656C96.5096 21.8307 95.7382 20.279 94.7585 18.8356C93.9298 17.6134 92.8441 16.699 91.2653 17.0419C91.4999 17.1355 91.7345 17.228 91.9704 17.3216C90.499 14.0504 94.3641 10.3962 91.556 7.33053C91.2665 7.01436 90.796 7.15542 90.5763 7.45335C87.4025 11.7582 86.9232 17.2571 84.3735 21.8684C83.5073 23.4359 82.5663 25.3001 83.0493 27.129C83.4674 28.7087 84.7778 29.9539 85.6215 31.322C87.1142 33.7431 87.8968 36.6154 88.8415 39.27C89.8138 42.0037 90.7473 44.752 91.5985 47.5234C93.3183 53.1245 94.7048 58.8399 95.405 64.6527C95.9566 69.2287 96.2212 73.953 95.7557 78.5485C95.5186 80.8833 95.1691 83.2071 94.8683 85.5347C94.0658 91.7402 93.3158 98.0575 93.7364 104.319C94.0147 108.457 94.8072 114.557 99.4387 116.272C105.09 118.363 109.841 113.415 111.249 108.556C111.947 106.144 112.219 103.077 110.724 100.881C109.22 98.6728 105.842 98.3165 103.631 99.7381C102.581 100.413 101.813 101.604 101.92 102.86C102.02 104.026 102.93 104.875 104.141 104.863C107.71 104.826 108.579 100.634 108.797 97.9529C108.948 96.0924 108.875 94.2221 108.79 92.3603C108.686 90.0571 108.718 87.7527 108.693 85.4483C108.623 79.0738 108.408 72.6993 107.934 66.3405C107.692 63.0986 107.39 59.8602 106.989 56.6328C106.726 54.5023 106.302 52.4265 105.305 50.4954C104.331 48.6105 102.908 46.9871 101.614 45.3102C100.163 43.4289 99.1479 41.4225 98.0571 39.3333C97.1598 37.615 96.1676 35.8846 94.5401 34.7281C94.313 34.5664 93.9722 34.6527 93.7838 34.823C90.5313 37.7646 94.6212 43.4399 96.3698 46.0836C97.5754 47.9065 98.9633 49.6478 100.034 51.5509C101.864 54.8002 102.146 58.6782 101.765 62.296C101.431 65.482 100.597 68.5708 100.477 71.7799C100.37 74.6765 100.447 77.6121 99.9405 80.4783C99.4812 83.0807 98.4003 85.9603 95.5248 86.7994C92.9426 87.5533 91.2203 85.0592 90.2593 83.1038C89.0874 80.7228 88.7667 78.2189 88.1326 75.6883C87.425 72.8646 85.2659 70.6988 84.366 67.9518C83.7045 65.9295 84.2163 63.9923 85.5355 62.3336C86.2468 61.4386 87.2677 60.5813 88.5108 60.7248C90.469 60.951 91.8655 63.1898 92.1426 64.9251C92.2661 65.6997 92.2075 66.63 91.5623 67.1833C91.279 67.4277 90.5775 67.8387 90.2243 67.5663C89.9098 67.3231 89.9959 66.5606 90.0234 66.225C90.2792 63.1545 92.7916 61.66 95.722 61.2514C101.216 60.4853 107.95 61.2939 112.691 64.2295C113.897 64.9774 115.002 65.9295 115.764 67.12C116.767 68.6851 116.869 70.3851 116.727 72.1861C116.585 73.9798 116.261 75.7613 116.51 77.561C116.731 79.1601 117.357 80.6145 117.935 82.1127C118.348 83.1816 118.76 84.2906 118.676 85.4471C118.606 86.4163 118.346 87.3843 118.043 88.306C117.451 90.1179 116.411 92.7069 114.479 93.5387C113.427 93.9911 112.46 93.5399 111.646 92.8492C111.32 92.5719 110.913 92.6437 110.666 92.972C107.742 96.8621 114.677 101.757 117.212 103.766C119.054 105.226 121.161 106.572 122.739 108.319C125.565 111.449 124.669 114.93 124.126 118.645C123.876 120.362 123.827 122.085 124.22 123.788C124.596 125.421 125.73 127.153 125.649 128.855C125.479 132.446 119.64 131.574 117.255 131.479C113.677 131.338 110.078 131.994 106.51 131.602C102.84 131.201 99.9317 129.222 98.7036 125.814C98.2693 124.61 97.9636 123.34 97.8375 122.07C97.7863 121.554 97.5367 120.169 97.9673 119.736C97.7676 119.937 97.9411 119.881 98.2219 120.227C98.6762 120.787 99.0206 121.473 99.3302 122.115C100.19 123.899 100.679 125.854 101.06 127.781C101.462 129.82 101.711 131.883 101.902 133.949C102.08 135.86 102.294 137.8 102.086 139.716C101.886 141.552 101.316 143.639 100.261 145.193C99.3701 146.506 98.2144 147.648 97.1685 148.842C95.9517 150.233 93.9136 152.184 94.9694 154.149C95.9579 155.988 98.2306 157.226 99.9929 158.235C104.448 160.786 109.392 162.379 113.871 164.851C116.629 166.374 120.224 168.856 123.293 166.56C125.743 164.727 125.431 161.363 125.117 158.71C124.941 157.215 124.743 155.747 124.865 154.239C125.019 152.359 125.406 150.503 125.749 148.65C126.392 145.171 127.083 141.46 126.15 137.967C125.728 136.39 124.938 134.988 123.849 133.757C123.646 133.527 123.167 133.513 122.967 133.757C121.421 135.653 121.144 138.325 120.86 140.647C120.492 143.665 120.247 146.629 119.564 149.603C117.86 157.012 113.723 163.453 109.683 169.855C105.836 175.952 101.55 181.796 96.4235 186.94C90.6225 192.761 83.8044 197.732 77.1922 202.637C71.6559 206.742 65.9498 210.631 59.9728 214.103C57.7875 215.372 55.5422 216.659 53.1597 217.545C51.5734 218.135 49.2695 218.561 48.8239 216.321C48.5194 214.786 49.6951 212.919 51.053 212.193C52.975 211.165 53.7637 213.724 53.4005 215.185C52.8564 217.371 50.3565 218.804 48.4832 219.799C46.3366 220.939 44.0539 221.793 41.7825 222.66C35.2664 225.144 29.1397 228.797 23.612 232.954C20.7939 235.073 17.7412 237.373 15.4997 240.09C14.6311 241.143 13.9135 242.308 13.106 243.403C12.3272 244.459 11.4959 245.69 10.0407 245.776C8.31339 245.878 7.63574 244.577 7.80423 243.058C7.59581 243.261 7.38863 243.463 7.1802 243.666C8.32467 243.66 9.30811 244.781 9.9908 245.55C11.1665 246.874 12.115 248.398 12.9737 249.931C13.8398 251.478 14.6136 253.079 15.2476 254.73C15.6869 255.873 16.1737 257.12 16.2199 258.355C16.4283 258.152 16.6355 257.95 16.8439 257.747C13.9359 257.832 11.023 257.764 8.11624 257.637C6.42264 257.564 3.29 257.776 2.66847 255.744C2.19171 254.185 2.79579 252.248 2.92434 250.669C3.12278 248.221 2.38893 245.953 1.97333 243.565C1.74993 242.287 1.5914 240.897 2.00201 239.637C2.50123 238.106 3.67566 237.672 5.03729 237.02C7.48846 235.848 8.65165 233.516 9.95461 231.307C12.8751 226.352 16.9899 221.979 21.3781 218.223C25.9272 214.329 31.0442 211.009 36.5706 208.581C41.7612 206.301 46.847 203.932 51.5809 200.822C56.3659 197.679 60.6767 193.959 64.6105 189.851C69.2271 185.031 73.7813 180.153 78.1944 175.155C79.9616 173.152 81.5991 171.204 82.3279 168.61C82.9445 166.423 83.1916 164.299 84.4908 162.344C85.9473 160.154 87.9579 158.04 89.9148 156.259C91.6297 154.697 93.6902 153.335 96.1064 153.217C99.1654 153.068 101.8 154.762 104.235 156.346C107.008 158.151 109.721 160.044 112.558 161.754C117.971 165.018 123.707 166.83 129.881 168.196C134.845 169.294 139.762 170.563 144.717 171.697C149.059 172.69 153.414 173.706 157.609 175.202C161.612 176.63 165.599 178.543 168.627 181.53C172.278 185.13 173.25 189.78 174.178 194.603C175.445 201.186 176.099 207.859 176.837 214.512C177.171 217.532 177.612 220.544 177.854 223.572C178.076 226.339 178.196 229.112 178.527 231.87C179.119 236.805 180.379 242.3 184.552 245.583C188.385 248.597 193.499 248.94 198.166 249.711C199.329 249.903 200.511 250.118 201.543 250.707C202.609 251.315 203.388 252.26 204.114 253.213C204.239 252.915 204.363 252.617 204.487 252.319C199.63 254.213 194.544 253.985 189.421 253.872C185.113 253.777 180.809 254.144 176.501 253.94C174.176 253.831 169.274 253.869 168.537 250.939C168.039 248.957 169.129 246.649 169.531 244.728C170.095 242.024 170.001 239.322 168.235 237.043C168.203 237.289 168.17 237.535 168.138 237.78C169.293 236.398 171.131 236.693 172.751 236.387C174.376 236.08 175.361 235.1 175.761 233.545C175.851 233.197 175.644 232.925 175.325 232.797C173.531 232.075 171.896 232.223 170.071 232.697C169.521 232.841 168.897 233.05 168.334 232.849C167.178 232.439 166.58 230.705 166.162 229.733C163.78 224.183 162.312 218.228 160.491 212.488C159.672 209.907 159.319 207.137 158.982 204.467C158.525 200.845 158.219 197.158 158.428 193.508C158.508 192.112 158.604 187.577 160.782 187.429C161.818 187.358 163.159 189.309 163.813 190.016C164.379 190.629 164.922 191.029 164.798 191.915C164.644 193.013 163.384 192.895 162.49 192.992C161.332 193.119 160.203 193.401 159.051 193.568C157.2 193.84 155.324 193.956 153.454 193.993C150.284 194.055 147.114 193.865 143.961 193.564C140.145 193.198 136.354 192.867 132.528 192.609C127.681 192.282 122.795 191.862 118.066 190.728C114.287 189.822 109.669 188.376 107.74 184.769C107.368 184.075 106.291 184.689 106.661 185.383C108.48 188.782 112.483 190.437 116.064 191.464C120.708 192.794 125.592 193.301 130.4 193.672C134.493 193.988 138.576 194.213 142.659 194.647C146.241 195.028 149.848 195.278 153.453 195.209C156.803 195.144 159.992 194.489 163.298 194.129C165.127 193.93 166.66 192.828 165.967 190.761C165.786 190.222 165.235 189.745 164.86 189.334C164.178 188.584 163.471 187.846 162.726 187.155C161.874 186.363 160.975 185.902 159.813 186.444C158.754 186.937 158.21 188.074 157.871 189.109C156.769 192.487 157.034 196.375 157.278 199.859C157.539 203.58 158.007 207.328 158.815 210.976C159.308 213.204 160.145 215.344 160.807 217.528C161.959 221.331 163.011 225.175 164.476 228.88C165.204 230.72 166.165 233.984 168.654 234.137C169.524 234.191 170.366 233.854 171.197 233.66C172.525 233.35 173.729 233.46 174.993 233.968C174.849 233.719 174.703 233.469 174.558 233.22C174.065 235.138 172.566 235.202 170.837 235.381C169.462 235.523 168.166 235.829 167.255 236.918C167.096 237.109 166.982 237.429 167.158 237.655C168.945 239.96 168.777 242.587 168.132 245.262C167.655 247.238 166.732 249.542 167.426 251.569C168.293 254.099 171.491 254.693 173.849 254.961C178.362 255.474 182.901 255.081 187.426 255.069C193.321 255.052 199.201 255.681 204.818 253.491C205.15 253.362 205.456 252.946 205.191 252.598C203.84 250.825 202.388 249.446 200.147 248.862C197.543 248.185 194.799 248.046 192.164 247.489C189.657 246.959 187.148 246.142 185.161 244.503C182.876 242.617 181.569 239.9 180.782 237.136C179.212 231.621 179.453 225.794 178.745 220.151C177.89 213.329 177.306 206.476 176.293 199.672C175.803 196.387 175.212 193.115 174.43 189.884C173.894 187.66 173.191 185.541 171.921 183.603C169.702 180.219 166.308 177.771 162.664 175.994C154.543 172.032 145.243 170.634 136.513 168.456C130.052 166.843 123.34 165.918 117.316 162.981C114.197 161.461 111.292 159.556 108.413 157.646C105.784 155.901 103.17 153.85 100.183 152.719C95.425 150.919 91.3501 153.01 88.0328 156.359C86.1969 158.213 84.1801 160.263 82.9158 162.541C81.8562 164.449 81.6627 166.53 81.0387 168.574C80.0814 171.71 77.5217 174.074 75.3675 176.476C73.0274 179.083 70.6524 181.66 68.2536 184.216C63.833 188.926 59.4274 193.629 54.1956 197.507C49.6102 200.906 44.5918 203.692 39.3675 206.043C36.5856 207.295 33.7812 208.446 31.1166 209.933C28.5219 211.381 26.0433 213.018 23.6795 214.803C18.8358 218.462 14.4688 222.761 10.9156 227.634C10.1106 228.737 9.35303 229.866 8.6716 231.046C7.89656 232.387 7.16896 233.818 6.022 234.904C5.02481 235.849 3.71185 236.144 2.57363 236.866C1.66255 237.445 1.11217 238.309 0.798904 239.314C0.0325999 241.767 0.894983 244.415 1.39296 246.831C1.85598 249.077 1.60887 251.114 1.38172 253.36C1.24194 254.747 1.16958 256.348 2.25164 257.421C3.70188 258.859 6.22167 258.771 8.11746 258.853C11.0229 258.979 13.9371 259.048 16.8451 258.963C17.1733 258.953 17.4816 258.692 17.4691 258.355C17.4155 256.919 16.8826 255.495 16.3596 254.168C15.6333 252.324 14.7621 250.529 13.7637 248.811C12.5119 246.655 10.2117 242.434 7.18142 242.451C6.81699 242.454 6.59359 242.73 6.5574 243.059C6.25662 245.765 8.50564 247.69 11.2314 246.771C12.4021 246.375 13.1796 245.344 13.891 244.41C14.8233 243.187 15.5946 241.821 16.6192 240.668C19.4735 237.457 23.1365 234.707 26.6673 232.247C30.2617 229.742 34.0632 227.51 38.0295 225.609C42.8458 223.301 48.7691 222.096 52.7291 218.384C54.4065 216.812 55.2427 214.737 54.3504 212.54C53.7014 210.945 52.175 210.258 50.5687 211.066C47.531 212.595 45.8548 218.425 50.374 219.29C52.4508 219.688 55.0842 218.102 56.8302 217.218C58.9906 216.124 61.0723 214.891 63.1378 213.639C71.0168 208.864 78.4053 203.383 85.6266 197.719C89.1598 194.949 92.7279 192.203 95.9704 189.107C98.8159 186.389 101.429 183.452 103.849 180.369C108.911 173.92 113.204 166.841 117.154 159.701C119.184 156.031 120.344 152.078 121.182 148.008C121.818 144.923 121.839 141.76 122.402 138.664C122.649 137.301 122.942 135.728 123.849 134.616C123.555 134.616 123.262 134.616 122.967 134.616C128.409 140.764 123.067 149.346 123.606 156.344C123.818 159.1 125.222 163.583 122.528 165.598C119.589 167.794 115.693 164.296 113.027 163.066C108.057 160.774 102.705 158.871 98.2381 155.681C97.4531 155.121 96.4709 154.421 96.0478 153.534C95.6047 152.603 96.4347 151.679 96.9901 150.965C98.947 148.446 101.336 146.468 102.453 143.43C103.853 139.62 103.384 135.63 102.915 131.692C102.479 128.038 101.882 124.207 100.108 120.912C99.601 119.971 97.7339 117.198 96.7754 119.369C96.0116 121.097 96.7442 123.723 97.2622 125.415C98.1221 128.22 99.7395 130.528 102.541 131.794C106.037 133.374 109.992 132.9 113.715 132.72C116.88 132.567 120.15 133.114 123.284 132.57C124.623 132.338 125.775 131.672 126.454 130.48C127.202 129.17 126.84 127.706 126.375 126.371C125.719 124.482 125.107 122.713 125.175 120.686C125.232 118.955 125.659 117.271 125.9 115.561C126.348 112.362 125.593 109.323 123.175 107.002C121.306 105.207 119.102 103.735 117.092 102.096C115.088 100.46 112.611 98.5707 111.556 96.1605C111.159 95.2533 111.133 94.3948 111.745 93.5813C111.418 93.6226 111.092 93.6639 110.765 93.7041C115.512 97.7353 118.958 90.6336 119.721 86.8516C119.919 85.8666 120.019 84.906 119.812 83.9161C119.433 82.1115 118.5 80.4759 118.013 78.7017C116.925 74.7374 119.203 70.4885 116.993 66.7443C113.796 61.328 105.749 59.9186 99.898 59.8493C96.6082 59.8103 92.4921 59.8553 90.1844 62.5379C89.0886 63.8111 87.8493 67.1042 89.3944 68.4783C91.1454 70.0361 93.332 67.4252 93.4318 65.8188C93.5616 63.7309 92.3236 61.4484 90.5776 60.2652C88.3835 58.7779 86.0147 59.7143 84.5058 61.6417C83.3314 63.1423 82.6088 64.9579 82.8484 66.861C83.1005 68.8663 84.2137 70.6466 85.2359 72.3612C85.9947 73.6332 86.6599 74.8431 86.9957 76.2866C87.3401 77.7702 87.551 79.2635 88.0041 80.7227C88.7679 83.1852 89.9748 86.1439 92.3511 87.5375C94.7623 88.9505 97.7002 87.6323 99.269 85.6076C101.156 83.1743 101.407 79.7523 101.564 76.818C101.746 73.4204 101.725 70.1164 102.334 66.7552C103.13 62.3616 103.682 57.8878 102.232 53.5586C100.422 48.1594 95.2103 44.2595 94.0009 38.6146C93.7726 37.5493 93.8025 36.4561 94.6662 35.6754C94.4141 35.707 94.1619 35.7386 93.9098 35.7703C95.6234 36.9875 96.5558 39.0949 97.4668 40.8947C98.3979 42.7346 99.3788 44.4237 100.649 46.0629C101.79 47.5343 103.018 48.9644 103.942 50.5806C105.059 52.5323 105.504 54.6689 105.77 56.8675C107.127 68.1135 107.243 79.3547 107.474 90.6567C107.537 93.7637 107.937 96.9448 107.252 100.015C106.925 101.482 106.292 103.121 104.648 103.554C103.084 103.966 102.848 102.422 103.592 101.415C105.198 99.2419 108.985 99.8487 110.031 102.169C111.056 104.443 110.484 107.323 109.59 109.542C108.632 111.919 106.872 114.366 104.239 115.111C102.312 115.656 100.125 115.649 98.5077 114.36C96.9451 113.115 96.1888 111.12 95.7158 109.271C95.0706 106.746 94.9058 104.117 94.8783 101.524C94.8197 95.9586 95.4762 90.4025 96.1975 84.8902C96.4709 82.7985 96.7791 80.7094 96.995 78.6117C97.4019 74.6486 97.2397 70.5906 96.8653 66.6312C95.9018 56.4382 92.8378 46.6271 89.352 37.0167C88.5395 34.7767 87.8293 32.4578 86.5263 30.4318C85.7725 29.2596 84.5245 28.0897 84.2287 26.6973C83.7894 24.6337 85.4743 22.626 86.2942 20.8627C87.244 18.8198 87.8693 16.66 88.5719 14.5307C89.3258 12.2458 90.2057 10.0265 91.6522 8.06381C91.3252 8.10515 90.9994 8.14649 90.6724 8.18662C92.0203 9.65683 91.1791 11.7618 90.786 13.4436C90.4278 14.9722 90.2294 16.4582 90.8921 17.9308C91.0057 18.1826 91.3489 18.264 91.5972 18.2105C93.0263 17.9004 93.8212 19.6175 94.3779 20.6159C95.0094 21.748 95.6908 22.8109 96.4384 23.8749C96.9751 24.6398 97.6852 25.5068 97.7214 26.4748C97.7751 27.9353 96.4446 29.3799 95.581 30.427C95.083 31.0362 95.9604 31.902 96.4634 31.2916Z" fill="#3C8C7F"/>
</svg>
